<?xml version="1.0" encoding="utf-8"?>
<!-- Generator: Adobe Illustrator 21.1.0, SVG Export Plug-In . SVG Version: 6.00 Build 0)  -->
<svg version="1.1" id="Layer_1" xmlns="http://www.w3.org/2000/svg" xmlns:xlink="http://www.w3.org/1999/xlink" x="0px" y="0px"
	 viewBox="0 0 291 125" style="enable-background:new 0 0 291 125;" xml:space="preserve">
<style type="text/css">
	.st0{fill-rule:evenodd;clip-rule:evenodd;fill:#002D5C;}
</style>
<path class="st0" d="M77.4,81.2L54.8,45.5c-1.4-2.3-5.1-2.3-6.7,0.1L25.7,81.2h7.4l6.8-10.7h14.5l3.8-6.1H43.7L51.6,52L70,81.2H77.4
	z"/>
<path class="st0" d="M265.3,81.2l-22.6-35.7c-1.4-2.3-5.1-2.3-6.7,0.1l-22.4,35.6h7.4l6.8-10.8h14.5l3.8-6.1h-14.5l7.9-12.3
	l18.4,29.2H265.3z"/>
<path class="st0" d="M110.6,66c6.1,0,11.1-5,11.1-11.1c0-6.1-5-11.1-11.1-11.1l-30.5,0v37.4H87V49.9h23.6c2.8,0,5,2.2,5,5
	c0,2.8-2.2,5-5,5H91.1l22,21.2h8.8L106.2,66L110.6,66z"/>
<polygon class="st0" points="188.6,43.8 184.5,49.9 201.1,49.9 201.1,81.2 207.9,81.2 207.9,49.9 222.7,49.9 222.7,43.8 "/>
<path class="st0" d="M172.8,59.5L172.8,59.5h-19.5c0,0,0,0,0,0c-2.6,0-4.8-2.1-4.8-4.7c0-2.6,2.1-4.7,4.8-4.7l24.2,0l3.8-6.1l-28,0
	c-6,0-10.9,4.9-10.9,10.9c0,6,4.9,10.9,10.9,10.9c0,0,0,0,0,0h19.5c0,0,0,0,0,0c2.6,0,4.8,2.1,4.8,4.8c0,2.6-2.1,4.7-4.8,4.7
	c0,0,0,0,0,0l-25.6,0l-3.8,6.1l29.4,0c6,0,10.9-4.9,10.9-10.9C183.7,64.3,178.8,59.5,172.8,59.5"/>
<polygon class="st0" points="128.9,43.9 128.8,81.2 135.7,81.2 135.7,43.9 "/>
</svg>
