<?xml version="1.0" encoding="utf-8"?>
<!-- Generator: Adobe Illustrator 21.1.0, SVG Export Plug-In . SVG Version: 6.00 Build 0)  -->
<svg version="1.1" id="Layer_1" xmlns="http://www.w3.org/2000/svg" xmlns:xlink="http://www.w3.org/1999/xlink" x="0px" y="0px"
	 viewBox="0 0 291 125" style="enable-background:new 0 0 291 125;" xml:space="preserve">
<path d="M235.8,46.9c0-2.7,2.2-5,5-5c2.7,0,5,2.2,5,5c0,2.7-2.2,5-5,5C238.1,51.9,235.8,49.6,235.8,46.9 M240.8,51.2
	c2.4,0,4.3-1.9,4.3-4.3c0-2.4-1.9-4.3-4.3-4.3c-2.4,0-4.3,1.9-4.3,4.3C236.5,49.3,238.4,51.2,240.8,51.2z M241.7,47.1
	c0.6-0.1,1.3-0.4,1.3-1.4c0-1.3-1.2-1.6-2.3-1.6h-1.8v5.4h0.9v-2.1h0.9c1,0,1.4,0.3,1.4,1.5c0,0.3,0,0.5,0.1,0.7h0.9
	c-0.1-0.1-0.1-0.5-0.1-0.9C242.9,47.7,242.5,47.2,241.7,47.1z M239.8,46.8v-2h0.9c0.9,0,1.4,0.3,1.4,0.9c0,0.7-0.5,1.1-1.4,1.1
	H239.8z"/>
<polygon points="101.7,42 101.7,52.7 111.1,52.7 111.1,83.1 123.4,83.1 123.4,52.7 132.7,52.7 132.7,42 "/>
<rect x="174.8" y="41.9" width="12.2" height="41.1"/>
<polygon points="219.9,60.9 233.6,42 218.4,42 212.8,50.7 207.9,42 192.8,42 205.4,60.8 189,83.1 203.9,83.1 212.6,71 219.5,83.1 
	234.2,83.1 "/>
<rect x="86" y="41.9" width="12.3" height="41.1"/>
<path d="M75.8,66.9c-1.8,3-5.4,5-9,5c-5.2,0-9-4.2-9-9.4c0-5.2,3.8-9.4,9-9.4c3.6,0,7.2,2,9,5l6.5-10.5c-3.9-4.1-9.4-6.6-15.5-6.6
	c-11.9,0-21.5,9.6-21.5,21.5c0,11.9,9.6,21.5,21.5,21.5c6.1,0,11.6-2.6,15.5-6.6L75.8,66.9z"/>
<path d="M159.2,66.7c4.7-1.6,7.7-6,7.7-11.6c0-3.8-1.2-6.9-3.4-9.2c-2.6-2.5-6.4-3.9-11.2-3.9h-16.2v41.1h12.3V70.8l7.8,12.3h15.5
	L159.2,66.7z M148.4,50.8c2.1,0,4.9,0.2,6.4,1.7c0.7,0.7,1.1,1.8,1.1,3.2c0,3.4-2.2,4.8-7.5,4.8V50.8z"/>
<path d="M84.5,30.9c0-4.3,3.5-7.7,7.7-7.7c4.3,0,7.7,3.5,7.7,7.7c0,4.3-3.5,7.7-7.7,7.7C87.9,38.7,84.5,35.2,84.5,30.9"/>
<path d="M181,101.8c4.3,0,7.7-3.5,7.7-7.7c0-4.3-3.5-7.7-7.7-7.7c-4.3,0-7.7,3.5-7.7,7.7C173.2,98.3,176.7,101.8,181,101.8"/>
</svg>
