<?xml version="1.0" encoding="utf-8"?>
<!-- Generator: Adobe Illustrator 21.1.0, SVG Export Plug-In . SVG Version: 6.00 Build 0)  -->
<svg version="1.1" id="Layer_1" xmlns="http://www.w3.org/2000/svg" xmlns:xlink="http://www.w3.org/1999/xlink" x="0px" y="0px"
	 viewBox="0 0 291 125" style="enable-background:new 0 0 291 125;" xml:space="preserve">
<style type="text/css">
	.st0{fill:#808080;}
	.st1{fill:#057DB7;}
</style>
<path class="st0" d="M260.9,83.3c8.1,0,14.5-4,15.6-12.7L276,70h-2.3l-0.6,0.6c-1.2,6.3-5.2,9.8-12.2,9.8c-8.7,0-15-6.4-15-17.9
	c0-11.5,6.4-17.9,15-17.9c6.9,0,11,3.5,12.2,9.2l0.6,0.6h2.3l0.6-0.6c-1.2-8.1-7.5-12.1-15.6-12.1c-9.8,0-18.5,6.9-18.5,20.8
	C242.4,76.4,251.1,83.3,260.9,83.3 M235.5,82.1V42.9l-0.6-0.6h-4.1l-0.6,0.6l-15,35.2h-0.6l-15-35.2l-0.6-0.6h-4l-0.6,0.6v39.3
	l0.6,0.6h2.3l0.6-0.6V48.7h0.6l14.5,33.5l0.6,0.6h2.9l0.6-0.6l14.5-33.5h0.6v33.5l0.6,0.6h2.3L235.5,82.1z M186.9,82.1v-1.7
	l-0.6-0.6h-21.4l-0.6-0.6v-15l0.6-0.6h20.3l0.6-0.6v-1.7l-0.6-0.6h-20.3l-0.6-0.6V45.8l0.6-0.6h21.4l0.6-0.6v-1.7l-0.6-0.6h-24.9
	l-0.6,0.6v39.3l0.6,0.6h24.9L186.9,82.1z"/>
<path class="st1" d="M151.6,74.7v8h-26.1V42.3h9.2v32.4H151.6z M125.5,42.3h9.2 M73.3,85.4L73.3,85.4l22.9-17.8v15.1h26.1v-8h-16.9
	V42.3h-9.2v15.1l-22,17.1l-4.9-3.8l22-17.1l-6.5-5.1l-22,17.1l-4.9-3.8l22-17.1l-6.5-5.1L50.4,57.4c-2.3-8.7-10.2-15.1-19.6-15.1
	H14.4v40.4h16.4c9.4,0,17.3-6.4,19.6-15.1L73.3,85.4z M23.6,74.7V50.3h7.2c6.1,0,11.1,5.5,11.1,12.2c0,6.7-4.9,12.2-11.1,12.2H23.6z
	"/>
</svg>
