<?xml version="1.0" encoding="utf-8"?>
<!-- Generator: Adobe Illustrator 21.1.0, SVG Export Plug-In . SVG Version: 6.00 Build 0)  -->
<svg version="1.1" id="Layer_1" xmlns="http://www.w3.org/2000/svg" xmlns:xlink="http://www.w3.org/1999/xlink" x="0px" y="0px"
	 viewBox="0 0 300 180" style="enable-background:new 0 0 300 180;" xml:space="preserve">
<style type="text/css">
	.st0{fill:#808080;}
	.st1{fill:#057DB7;}
</style>
<path class="st0" d="M273.3,112.2c8.7,0,15.5-4.3,16.7-13.6l-0.6-0.6h-2.5l-0.6,0.6c-1.2,6.8-5.6,10.5-13,10.5
	c-9.3,0-16.1-6.8-16.1-19.1c0-12.3,6.8-19.1,16.1-19.1c7.4,0,11.7,3.7,13,9.9l0.6,0.6h2.5l0.6-0.6c-1.2-8.6-8-12.9-16.7-12.9
	c-10.5,0-19.8,7.4-19.8,22.2C253.5,104.8,262.8,112.2,273.3,112.2 M246.1,110.9V69l-0.6-0.6h-4.3l-0.6,0.6l-16.1,37.6h-0.6L207.8,69
	l-0.6-0.6h-4.3l-0.6,0.6v41.9l0.6,0.6h2.5l0.6-0.6V75.2h0.6l15.4,35.8l0.6,0.6h3.1l0.6-0.6l15.5-35.8h0.6v35.8l0.6,0.6h2.5
	L246.1,110.9z M194.2,110.9v-1.8l-0.6-0.6h-22.9l-0.6-0.6v-16l0.6-0.6h21.6l0.6-0.6v-1.8l-0.6-0.6h-21.6l-0.6-0.6V72.1l0.6-0.6h22.9
	l0.6-0.6V69l-0.6-0.6H167l-0.6,0.6v41.9l0.6,0.6h26.6L194.2,110.9z"/>
<path class="st1" d="M156.6,103v8.6h-27.9V68.4h9.8V103H156.6z M128.6,68.4h9.8 M72.9,114.5L72.9,114.5l24.5-19v16.1h27.9V103h-18.1
	V68.4h-9.8v16.1l-23.5,18.3l-5.2-4.1l23.5-18.3l-7-5.4L61.7,93.3l-5.2-4.1l23.5-18.3l-7-5.4L48.5,84.5C46,75.2,37.6,68.4,27.5,68.4
	H10v43.2h17.5c10.1,0,18.5-6.9,20.9-16.2L72.9,114.5z M19.8,103V77h7.7c6.5,0,11.8,5.8,11.8,13c0,7.2-5.3,13-11.8,13H19.8z"/>
</svg>
