<?xml version="1.0" encoding="utf-8"?>
<!-- Generator: Adobe Illustrator 21.1.0, SVG Export Plug-In . SVG Version: 6.00 Build 0)  -->
<svg version="1.1" id="Layer_1" xmlns="http://www.w3.org/2000/svg" xmlns:xlink="http://www.w3.org/1999/xlink" x="0px" y="0px"
	 viewBox="0 0 291 125" style="enable-background:new 0 0 291 125;" xml:space="preserve">
<style type="text/css">
	.st0{fill-rule:evenodd;clip-rule:evenodd;fill:#BF2037;}
	.st1{fill-rule:evenodd;clip-rule:evenodd;}
	.st2{fill-rule:evenodd;clip-rule:evenodd;fill:#FFFFFF;}
</style>
<path class="st0" d="M143.7,18.9c1.3,0.1,2.5,0.2,3.8,0.4c11.1,1.6,20.3,6.7,27.6,15.2c0.1,0.1,0.2,0.2,0.4,0.5
	c-1.1-0.2-2-0.2-2.9-0.4c-4.2-0.9-8.5-1.5-12.8-1.8c-2.5-0.2-5.1-0.3-7.6-0.5c-0.5,0-0.6,0.3-0.7,0.6c-1.9,5.6-3.7,11.2-5.6,16.8
	c-1.8,5.3-3.5,10.6-5.3,15.9c-0.1,0.2-0.1,0.5-0.2,0.8c1.3,0.1,2.5,0.3,3.7,0.4c5.6,0.7,11.2,1.6,16.4,3.8c2.7,1.1,5.3,2.6,7.1,5
	c3.4,4.4,2.3,10.4-2.5,13.5c-4.2,2.8-10.4,2.6-14.2-0.6c-0.9-0.8-1.7-1.8-2.4-2.8c-1.6-2.4-3.2-4.8-4.8-7.2
	c-0.4-0.7-0.8-0.8-1.4-0.2c-0.7,0.6-1.4,1.3-2,1.9c-0.7,0.7-1.5,1.4-2.2,2.1c-0.6,0.6-0.7,1.1-0.4,1.9c1.1,2.5,2.2,5,3.2,7.5
	c0.3,0.6,0.7,0.9,1.3,1.1c1.7,0.4,3.4,0.9,5.2,1.2c3.3,0.6,6.7,0.9,10.1,0.7c6.4-0.3,12.1-2.5,17-6.6c4.2-3.5,6.6-8.1,7.2-13.6
	c0.6-5-0.2-9.8-3.2-14c-1.9-2.7-4.5-4.7-7.4-6.3c-4.1-2.2-8.6-3.3-13.2-3.9c-1.9-0.3-3.8-0.4-5.8-0.6c-0.1,0-0.3-0.1-0.4-0.1
	c0.2-0.6,0.3-1.2,0.5-1.8c0.4-1.4,0.9-2.8,1.3-4.2c0.1-0.5,0.3-0.6,0.8-0.6c4.8,0.3,9.6,0.6,14.4,0.9c2.3,0.2,4.6,0.5,6.8,0.7
	c0.9,0.1,0.9,0.1,1.1-0.8c0.3-1.7,0.7-3.5,1-5.2c0-0.2,0.1-0.3,0.2-0.5c7.6,11.8,9.6,24.4,5.4,37.8c-5.2,16.2-19.1,27.6-35.4,29.7
	c-15,1.9-27.8-2.9-38.3-13.9c8.6,1.4,17.3,2.1,26.1,2.4c0-1,0-1.9,0-2.8c0-0.1-0.4-0.3-0.6-0.3c-2-0.3-3.9-0.6-5.9-0.8
	c-0.3,0-0.5-0.2-0.8-0.2c-1.5-0.4-2.2-1.4-2.2-2.9c-0.1-2.1-0.3-4.2-0.3-6.3c-0.1-6.6-0.2-13.1-0.3-19.7c0-1.4,0.1-2.8,0.1-4.2
	c0-0.5,0.1-0.7,0.7-0.7c2.8,0,5.6,0,8.5-0.1c0.5,0,1.1-0.1,1.6-0.4c1.3-0.5,2.5-1.1,3.8-1.7c0.2-0.1,0.4-0.3,0.4-0.5c0-1,0-2,0-3.2
	c-4.9,0.1-9.8,0.1-14.8,0.2c0-0.5,0-1,0-1.5c0.2-3.4,0.2-6.9,0.5-10.3c0.3-2.9,2.1-4.8,5.7-4c2.4,0.5,4.5,1.5,6.7,2.5
	c0.9,0.4,1.7,0.9,2.6,1.3c1.4,0.7,2.1,0.3,2.7-0.6c0.5-0.8,1.2-1.5,1.9-2.2c0.6-0.7,0.5-1.2-0.2-1.8c-1.1-0.8-2.2-1.6-3.3-2.6
	c-1.6-1.4-3.4-1.9-5.4-1.9c-7.6,0.1-14.6,2.1-20.8,6.8c-2.8,2.2-5.1,4.8-6.1,8.3c-0.5,1.8-0.5,3.6-0.8,5.5c-0.1,0.4-0.1,0.9-0.1,1.3
	c-1.2,0.1-2.3,0.2-3.4,0.3c-0.6,0.1-1.2,0.2-1.8,0.1c-0.7,0-0.9,0.2-0.9,0.9c0,1.4-0.1,2.8-0.2,4.3c2.1-0.1,4-0.2,6-0.3
	c0,1.3,0,2.5,0,3.8c0.1,4,0,8.1,0.2,12.1c0.2,4.3,0.6,8.6,0.9,12.9c0,0.3,0,0.5,0,0.8c0,1-0.3,1.4-1.3,1.7c-0.1,0-0.2,0.1-0.3,0.1
	c-1.2,0.3-1.9,0-2.7-1.1c-2.7-4.1-4.8-8.5-6-13.2c-0.9-3.5-1.4-7-1.4-10.6c-0.1-4.8,0.5-9.6,2.1-14.1c5.7-15.9,16.8-25.8,33.3-29.3
	c1.8-0.4,3.6-0.5,5.5-0.7c0.2,0,0.4-0.1,0.7-0.1C141.1,18.9,142.4,18.9,143.7,18.9"/>
<path class="st1" d="M192.3,87.8L192.3,87.8c0-1.6-1.3-2.9-2.8-2.9c-1.5,0-2.8,1.3-2.8,2.8c0,1.6,1.3,2.8,2.8,2.8
	C191,90.6,192.2,89.4,192.3,87.8 M189.5,84.5c1.9,0,3.3,1.5,3.3,3.3c0,1.8-1.5,3.2-3.3,3.2c-1.8,0-3.2-1.4-3.2-3.3
	C186.2,85.9,187.6,84.5,189.5,84.5z"/>
<path class="st2" d="M190.5,87.8L190.5,87.8c0.4-0.2,0.6-0.7,0.4-1.2c-0.2-0.5-0.7-0.6-1.2-0.6c-0.5,0-1,0-1.5,0c0,1.1,0,2.2,0,3.2
	c0,0.1,0.2,0.3,0.3,0.4c0.1-0.1,0.3-0.3,0.3-0.4c0-0.3,0-0.7,0-1c1.2-0.1,1.3,0,1.6,1.1c0,0.1,0.3,0.3,0.4,0.4
	c0.1-0.1,0.2-0.1,0.3-0.2C190.8,88.9,190.7,88.4,190.5,87.8 M192.3,87.8c0,1.6-1.3,2.8-2.8,2.8c-1.5,0-2.8-1.3-2.8-2.8
	c0-1.5,1.3-2.8,2.8-2.8C191,84.9,192.3,86.2,192.3,87.8z"/>
<path class="st1" d="M188.8,86.2L188.8,86.2c0,0.6,0,1,0,1.6c0.5-0.2,1-0.3,1.4-0.5c0.1,0,0.1-0.6,0-0.6
	C189.8,86.5,189.4,86.4,188.8,86.2 M190.5,87.8c0.2,0.6,0.3,1.1,0.5,1.7c-0.1,0.1-0.2,0.1-0.3,0.2c-0.1-0.1-0.4-0.2-0.4-0.4
	c-0.2-1.1-0.3-1.2-1.6-1.1c0,0.3,0,0.7,0,1c0,0.2-0.2,0.3-0.3,0.4c-0.1-0.1-0.3-0.3-0.3-0.4c0-1,0-2.1,0-3.2c0.5,0,1,0,1.5,0
	c0.5,0,1,0.1,1.2,0.6C191.1,87.1,190.9,87.6,190.5,87.8z"/>
<path class="st2" d="M188.8,86.2c0.6,0.2,1,0.3,1.4,0.5c0.1,0,0.1,0.5,0,0.6c-0.4,0.2-0.9,0.3-1.4,0.5
	C188.8,87.2,188.8,86.9,188.8,86.2"/>
</svg>
