<?xml version="1.0" encoding="utf-8"?>
<!-- Generator: Adobe Illustrator 21.1.0, SVG Export Plug-In . SVG Version: 6.00 Build 0)  -->
<svg version="1.1" id="Layer_1" xmlns="http://www.w3.org/2000/svg" xmlns:xlink="http://www.w3.org/1999/xlink" x="0px" y="0px"
	 viewBox="0 0 291 125" style="enable-background:new 0 0 291 125;" xml:space="preserve">
<style type="text/css">
	.st0{fill:#807F82;}
	.st1{fill:#31B24A;}
</style>
<g>
	<g>
		<path class="st0" d="M154.8,105.4h-0.5v-1.3h0.5V105.4z M175.5,108.9v-3.5c0-0.3-0.1-0.6-0.4-0.9c-0.3-0.3-0.6-0.3-1-0.3
			c-0.3,0-0.6,0-0.8,0.1c-0.3,0.1-0.5,0.2-0.6,0.3V103h-2.2v5.9h2.2v-3.3h0.5v3.3L175.5,108.9L175.5,108.9z M157.2,104.6
			c0-0.4-0.1-0.8-0.4-1.1c-0.3-0.3-0.6-0.5-1.1-0.5h-3.7v5.9h2.4v-2.2h0.5v2.2h2.4V107c0-0.3,0-0.6-0.2-0.7
			c-0.2-0.2-0.4-0.4-0.6-0.4c0.3-0.2,0.4-0.3,0.6-0.5C157.1,105.2,157.2,104.9,157.2,104.6 M186.1,106.5c0-1-0.3-1.7-0.8-2
			c-0.3-0.3-1-0.4-1.8-0.4c-0.8,0-1.4,0.1-1.8,0.4c-0.5,0.4-0.8,1.1-0.8,2.1c0,1,0.3,1.7,0.8,2.1c0.3,0.3,1,0.4,1.8,0.4
			c0.8,0,1.4-0.1,1.8-0.4C185.9,108.2,186.1,107.5,186.1,106.5 M180.8,106.5c0-0.8-0.2-1.4-0.5-1.7c-0.4-0.5-1.1-0.7-2.1-0.7
			c-0.8,0-1.4,0.1-1.8,0.4c-0.5,0.3-0.8,1.1-0.8,2.1c0,1,0.3,1.7,0.8,2c0.4,0.3,1,0.4,1.7,0.4c0.8,0,1.4-0.1,1.7-0.4
			c0.3-0.3,0.6-0.6,0.8-1.1c0-0.1,0-0.2,0-0.3h-2.3v0.7H178v-1.1h2.8C180.8,106.7,180.8,106.6,180.8,106.5 M162.3,108.9v-3
			c0-0.6-0.3-1.1-0.7-1.4c-0.4-0.3-1-0.5-1.7-0.5c-0.8,0-1.4,0.2-1.9,0.5c-0.4,0.3-0.6,0.6-0.6,0.9v0.2h2.1v-0.6h0.5v0.8h-1.1
			c-1.1,0-1.7,0.5-1.7,1.3c0,1.1,0.5,1.6,1.5,1.6c0.6,0,1.1-0.2,1.4-0.7v0.6L162.3,108.9L162.3,108.9z M191.4,108.9v-3.3
			c0-0.4-0.2-0.7-0.5-1c-0.3-0.3-0.6-0.4-1-0.4c-0.6,0-1.1,0.2-1.4,0.5v-0.4h-2.2v4.7h2.2v-3.3h0.5v3.3L191.4,108.9L191.4,108.9z
			 M170.3,105.6v-1.3h-0.8v-1.4h-2.2v1.4h-1.8l-0.7,2.4l-0.6-2.4h-2.2l1.7,4.5l-0.6,1.7h2.2l1.9-5.1v3.5h2.2v-3.3H170.3z M178.5,106
			H178v-0.9h0.5V106z M183.8,107.9h-0.5v-2.7h0.5V107.9z M160.2,107.7h-0.5v-1h0.5V107.7z M111.8,104.3c-1.4,0-2.3,0.8-2.3,2.3
			s0.8,2.3,2.3,2.3c1.4,0,2.3-0.9,2.3-2.3C114.1,105.1,113.2,104.3,111.8,104.3z M111.8,107.8c-0.8,0-0.8-0.9-0.8-1.2
			c0-0.4,0.1-1.2,0.8-1.2c0.8,0,0.8,0.8,0.8,1.2C112.6,106.9,112.6,107.8,111.8,107.8z M118.9,107l-0.5-2.7h-1.7l-0.5,2.6l-0.5-2.6
			h-1.4l1,4.5h1.7l0.5-2.7l0.5,2.7h1.7l1-4.5h-1.4L118.9,107z M122.9,107.1h1.8V106h-1.8v-0.6h1.9v-1.1h-3.3v4.5h3.3v-1.1h-1.9
			L122.9,107.1L122.9,107.1z M131.8,107.1h1.8V106h-1.8v-0.6h1.9v-1.1h-3.3v4.5h3.3v-1.1h-1.9L131.8,107.1L131.8,107.1z
			 M136.4,104.3h-1.7v4.5h1.7c1.7,0,2.7-0.8,2.7-2.3C139,104.6,137.5,104.3,136.4,104.3z M136.4,107.7h-0.3v-2.3h0.3
			c0.8,0,1.2,0.4,1.2,1.1C137.6,107.3,137.2,107.7,136.4,107.7z M147.8,104.3l-0.8,1.5l-0.8-1.5h-1.7l1.7,2.8v1.7h1.4v-1.7l1.7-2.8
			H147.8z M107,104.3h-1.5v4.5h1.4v-1.5h0.3c1.1,0,1.8-0.6,1.8-1.5C109,104.8,108.4,104.3,107,104.3z M107,106.4h-0.2v-1h0.2
			c0.4,0,0.6,0.2,0.6,0.5C107.7,106.2,107.5,106.4,107,106.4z M129.1,107.5c0-0.1-0.1-0.2-0.1-0.3c-0.1-0.3-0.2-0.4-0.3-0.6
			c0.4-0.2,0.6-0.6,0.6-1.1c0-0.8-0.6-1.2-1.5-1.2h-2.2v4.5h1.4v-1.7h0.1c0.3,0,0.4,0.1,0.7,0.8l0.3,0.8h1.5L129.1,107.5z
			 M127.2,106.2H127v-0.8h0.3c0.6,0,0.8,0.1,0.8,0.4C128,106.1,127.6,106.2,127.2,106.2z M143.9,106.5c0.3-0.2,0.5-0.6,0.5-1
			c0-0.8-0.6-1.2-1.5-1.2h-2.1v4.5h1.9c1.1,0,1.8-0.5,1.8-1.4C144.6,107.2,144.5,106.8,143.9,106.5z M142.2,105.4h0.3
			c0.5,0,0.7,0.1,0.7,0.3c0,0.3-0.3,0.4-0.7,0.4h-0.3V105.4z M142.4,107.9h-0.3V107h0.3c0.5,0,0.8,0.1,0.8,0.4
			C143.2,107.7,143,107.9,142.4,107.9z"/>
		<path class="st1" d="M172.6,14.5c0.2,0,0.4,0.2,0.4,0.4v9.8c0,0.2-0.2,0.4-0.4,0.4h-35.7c-0.2,0-0.4,0.2-0.4,0.4v43.2
			c0,0.2-0.2,0.4-0.4,0.4h-9.8c-0.2,0-0.4-0.2-0.4-0.4V14.9c0-0.2,0.2-0.4,0.4-0.4L172.6,14.5L172.6,14.5z M149.2,36.5
			c-0.3-0.3-0.6,0-0.6,0.3V67c0,0.5,0.3,0.6,0.7,0.2l15.6-14.5c0.2-0.2,0.2-0.5,0-0.7L149.2,36.5z"/>
		<path d="M85.3,83.8h-8.5v3.1h7.1c0.2,0,0.3,0.1,0.3,0.3c0,2,0,2.6,0,3.1c0,0.2-0.1,0.3-0.3,0.3h-7c0,0,0,3.3,0,5
			c0,0.3,0,0.3-0.2,0.3h-3.7c-0.1,0-0.2,0-0.2-0.3c0-4.4,0-9.9,0-15c0-0.3,0-0.3,0.2-0.3h12.4c0.2,0,0.2,0.2,0.2,0.2v3.1
			C85.5,83.7,85.5,83.8,85.3,83.8z M103.3,88.1c0-4.5-3.5-8.1-8.1-8.1c-4.6,0-8.1,3.6-8.1,8.1s3.5,8.1,8.1,8.1
			C99.8,96.2,103.3,92.6,103.3,88.1z M99,88.1c0,2.4-1.4,4.2-3.9,4.2c-2.5,0-3.9-1.8-3.9-4.2s1.4-4.2,3.9-4.2
			C97.6,83.9,99,85.8,99,88.1z M119.5,95.2c-1.3-2.2-2.6-4.5-3.2-5.4c1.4-0.7,2.1-2.2,2.1-4.3c0-2.8-1.9-5.3-5.4-5.3h-7.1
			c-0.1,0-0.2,0-0.2,0.2c0,5.5,0,9.2,0,15.2c0,0.2,0,0.2,0.2,0.2c1.4,0,2.3,0,3.8,0c0.2,0,0.2,0,0.2-0.2c0-1.8,0-4.3,0-4.3l2.6,0
			c0,0,1.7,2.6,2.5,4.2c0.2,0.4,0.3,0.5,0.5,0.5h4.1C119.7,95.9,119.8,95.7,119.5,95.2z M114,85.9c0,1.3-0.7,2.2-1.9,2.3l-2.3,0.1
			v-4.5h2.3C113.4,83.7,114,84.6,114,85.9z M128.7,96.3c4.4,0,6.9-3,7.5-5.8c0-0.3,0-0.3-0.1-0.3h-3.8c-0.2,0-0.2,0.1-0.2,0.2
			c-0.7,1.4-1.7,2-3.3,2c-2.3,0-3.8-1.8-3.8-4.3v0c0-2.5,1.5-4.3,3.8-4.3c1.6,0,2.7,0.7,3.3,2c0,0,0,0.2,0.2,0.2h3.8
			c0.1,0,0.1-0.1,0.1-0.3c-0.6-2.8-3.1-5.8-7.5-5.8c-4.5,0-8.1,3.5-8.1,8.2C120.7,92.9,124.2,96.3,128.7,96.3z M149.6,95.5
			c0-0.9,0-1.8,0-3c0-0.3,0-0.3-0.3-0.3h-6.7v-2.6h6.4c0.2,0,0.2,0,0.2-0.3c0-0.9,0-1.7,0-2.8c0-0.3,0-0.3-0.2-0.3h-6.4v-2.6h6.6
			c0.2,0,0.3,0,0.3-0.3c0-1,0-1.7,0-2.8c0-0.3,0-0.3-0.3-0.3h-10.4c-0.2,0-0.2,0-0.2,0.2c0,4.4,0,11,0,15c0,0.3,0,0.3,0.3,0.3h10.5
			C149.6,95.9,149.6,95.8,149.6,95.5z M167,86.3c0-3.5-2-6-5.5-6h-8.4c-0.1,0-0.2,0-0.2,0.2c0,5.5,0,9.2,0,15.2c0,0.2,0,0.2,0.2,0.2
			c1.4,0,2.3,0,3.7,0c0.2,0,0.2,0,0.2-0.2c0-1.8,0-3.8,0-3.8s4.1,0.1,4.7,0C164.7,91.5,167,90,167,86.3z M162.7,86.1
			c0,1.3-0.6,2.3-2.2,2.4h-3.4v-4.8h3.4C161.8,83.7,162.7,84.6,162.7,86.1z M185.2,88.1c0-4.5-3.5-8.1-8.1-8.1
			c-4.6,0-8.1,3.6-8.1,8.1s3.5,8.1,8.1,8.1C181.7,96.2,185.2,92.6,185.2,88.1z M180.8,88.1c0,2.4-1.4,4.2-3.9,4.2
			c-2.5,0-3.9-1.8-3.9-4.2s1.4-4.2,3.9-4.2C179.4,83.9,180.8,85.8,180.8,88.1z M191.7,95.6c0-3.6,0-11.6,0-15.2c0-0.2,0-0.2-0.2-0.2
			c-1.5,0-2.4,0-3.8,0c-0.2,0-0.2,0-0.2,0.2c0,5.5,0,9.2,0,15.2c0,0.2,0,0.2,0.2,0.2c1.4,0,2.3,0,3.8,0
			C191.7,95.9,191.7,95.8,191.7,95.6z M224.1,84.2c0-1.3,0-2.1,0-3.7c0-0.2,0-0.2-0.2-0.2h-13.3c-0.2,0-0.2,0-0.2,0.2
			c0,1.6,0,2.4,0,3.7c0,0.1,0,0.2,0.2,0.2l4.6,0c0,0,0,8.5,0,11.3c0,0.2,0,0.2,0.2,0.2c1.4,0,2.2,0,3.8,0c0.2,0,0.2,0,0.2-0.2
			c0-1.8,0-11.3,0-11.3l4.5,0C224.1,84.4,224.1,84.4,224.1,84.2z M208.1,95.3v-2.2c0-4.2,0-8.8,0-12.5c0-0.2,0-0.3-0.2-0.3
			c-1.4,0-2.1,0-3.5,0c-0.2,0-0.2,0-0.2,0.3v7.3c0,0-5.7-5.2-8.4-7.4c-0.7-0.6-0.7,0.1-0.7,0.3v0V83l0,0c0,4.5,0,7.6,0,12.6
			c0,0.1,0.1,0.2,0.2,0.2c1.4,0,2,0,3.5,0c0.2,0,0.2,0,0.2-0.2v-6.8c0,0,4.7,3.9,8.1,6.6C208,96.2,208.1,95.7,208.1,95.3z"/>
	</g>
</g>
</svg>
