<?xml version="1.0" encoding="utf-8"?>
<!-- Generator: Adobe Illustrator 21.1.0, SVG Export Plug-In . SVG Version: 6.00 Build 0)  -->
<svg version="1.1" id="Layer_1" xmlns="http://www.w3.org/2000/svg" xmlns:xlink="http://www.w3.org/1999/xlink" x="0px" y="0px"
	 viewBox="0 0 300 180" style="enable-background:new 0 0 300 180;" xml:space="preserve">
<style type="text/css">
	.st0{fill:#231F20;}
	.st1{fill:#E2231A;}
</style>
<polygon class="st0" points="15,105 15,75.1 48.1,75.1 48.1,81.7 22.3,81.7 22.3,86.8 44.5,86.8 44.5,93.3 22.3,93.3 22.3,105 "/>
<path class="st0" d="M125.7,105V94.8c0-0.9-0.8-1.3-0.8-1.3c-0.3-0.2-1.4-0.3-2.9-0.3h0.4h-15.4V105h-7.3v-30h22.8
	c3.9,0,6.7,0.6,8.5,2.4c1.8,1.9,2.1,4.3,2.1,6.9v2.1c0,2.2-1.1,4.2-2.5,5.3l0.3,0.1c0.6,0.3,0.9,0.6,0.9,0.6c1,1.3,1,2.5,1,3.9v8.6
	H125.7z M121.7,86.8c1.8,0,2.9,0,3.3-0.3c0,0,0.8-0.4,0.8-1.3l0-2c0-0.9-0.8-1.3-0.8-1.3c-0.6-0.3-1.5-0.3-3.8-0.3h-14.3v5.1H122
	H121.7z"/>
<path class="st0" d="M143.8,105V81.7h-6.9v-6.7h27.5v6.7l-13.2,0V105H143.8z M145.7,79.8v-1V79.8z"/>
<path class="st0" d="M259.4,105V81.7h-6.9v-6.7H280v6.7l-13.2,0V105H259.4z M261.3,79.8v-1V79.8z"/>
<rect x="168" y="75.1" class="st0" width="7.3" height="30"/>
<polygon class="st0" points="219.4,105 219.4,75.1 248.9,75.1 248.9,81.7 226.7,81.7 226.7,86.8 242.1,86.8 242.1,93.3 226.7,93.3 
	226.7,98.4 249.1,98.4 249.1,105 "/>
<path class="st0" d="M188.1,105h-7.3v-30l23.6,0c0,0,4.3-0.2,7.1,2.6c0,0,2.8,2.3,2.8,8.1V105H207V85.2c0,0,0.1-2-0.6-2.7
	c0,0-0.6-0.8-1.8-0.8h-16.5L188.1,105z"/>
<path class="st0" d="M278.3,98.2c-1.8,0-3.2,1.4-3.2,3.2c0,1.8,1.4,3.2,3.2,3.2c1.8,0,3.2-1.4,3.2-3.2
	C281.5,99.6,280.1,98.2,278.3,98.2 M277,99.3h1.8c0.6,0,1.2,0.1,1.3,1c0,0.5-0.1,0.7-0.5,1c0.4,0.3,0.4,0.3,0.5,1c0,0.5,0,0.6,0.2,1
	h-0.6l-0.1-0.5c-0.1-0.5,0.1-1.2-0.7-1.2h-1.3v1.7H277V99.3z M281.9,101.7v-0.6c-0.2-1.9-1.7-3.3-3.6-3.3c-2,0-3.6,1.6-3.6,3.6
	c0,2,1.6,3.6,3.6,3.6C280.2,105,281.8,103.6,281.9,101.7z M277.5,99.7v1.4h1.3c0.3,0,0.7-0.1,0.7-0.6c0.1-0.7-0.4-0.8-0.7-0.8H277.5
	z"/>
<rect x="51.3" y="86" class="st1" width="12.2" height="8"/>
<rect x="66.8" y="74.7" class="st1" width="11.9" height="8"/>
<rect x="66.8" y="97.3" class="st1" width="11.9" height="8"/>
<rect x="82" y="86" class="st1" width="12.2" height="8"/>
<path class="st1" d="M56.3,74.7c-2.5,0.7-4.5,3.5-5,7.1v0.9h12.2v-8H56.3z"/>
<path class="st1" d="M51.3,97.3v1c0.4,3.4,2.3,6.2,4.7,7h7.5v-8H51.3z"/>
<path class="st1" d="M94.2,82.7v-0.9c-0.5-3.6-2.5-6.4-5-7.1H82v8H94.2z"/>
<path class="st1" d="M89.6,105.3c2.4-0.8,4.2-3.5,4.7-7v-1H82v8H89.6z"/>
</svg>
