<?xml version="1.0" encoding="utf-8"?>
<!-- Generator: Adobe Illustrator 21.1.0, SVG Export Plug-In . SVG Version: 6.00 Build 0)  -->
<svg version="1.1" id="Layer_1" xmlns="http://www.w3.org/2000/svg" xmlns:xlink="http://www.w3.org/1999/xlink" x="0px" y="0px"
	 viewBox="0 0 291 125" style="enable-background:new 0 0 291 125;" xml:space="preserve">
<style type="text/css">
	.st0{fill-rule:evenodd;clip-rule:evenodd;fill:#00B38C;}
	.st1{fill-rule:evenodd;clip-rule:evenodd;fill:#231F20;}
</style>
<path class="st0" d="M113.9,38.6H33.8v-23h80.1V38.6z M39,33.4h69.6V20.9H39V33.4z"/>
<polygon class="st1" points="53.1,53.2 53.1,75.3 48.5,75.3 48.5,66 38.5,66 38.5,75.3 33.9,75.3 33.9,53.2 38.5,53.2 38.5,62 
	48.5,62 48.5,53.2 "/>
<path class="st1" d="M60.5,68.3c0.4,2.6,2.3,3.7,4.7,3.7c1.8,0,3-0.4,4.6-1.4v3.7c-1.3,1-3.1,1.4-5.3,1.4c-4.9,0-8.3-3.2-8.3-8.3
	c0-5,3.2-8.5,7.6-8.5c4.7,0,7.1,3.2,7.1,8v1.4H60.5z M60.6,65.3h6.1c-0.1-1.7-1.1-3-2.8-3C62.4,62.4,61.1,63.3,60.6,65.3z"/>
<polygon class="st1" points="88.3,69.5 91.1,59.2 95.5,59.2 90.6,75.3 86.5,75.3 83.8,65.4 81.2,75.3 77.1,75.3 72.2,59.2 
	76.6,59.2 79.5,69.5 82.2,59.2 85.6,59.2 "/>
<path class="st1" d="M111.7,68.3c0.4,2.6,2.3,3.7,4.7,3.7c1.8,0,3-0.4,4.6-1.4v3.7c-1.3,1-3.1,1.4-5.3,1.4c-4.9,0-8.3-3.2-8.3-8.3
	c0-5,3.2-8.5,7.6-8.5c4.7,0,7.1,3.2,7.1,8v1.4H111.7z M111.9,65.3h6.1c-0.1-1.7-1.1-3-2.8-3C113.6,62.4,112.4,63.3,111.9,65.3z"/>
<path class="st1" d="M158.4,67.6v7.7h-4.6V53.2h9c4.7,0,7.8,2.5,7.8,7.2c0,4.7-3.1,7.2-7.8,7.2H158.4z M162.6,57.1h-4.1v6.6h4.1
	c2.4,0,3.5-1.4,3.5-3.3C166.1,58.4,165,57.1,162.6,57.1z"/>
<path class="st1" d="M181.6,65.2c0-1.6-1.3-2.5-3.6-2.5c-1.6,0-3.1,0.5-4.4,1.3v-3.9c1.2-0.7,3.2-1.3,5.4-1.3c4.4,0,6.9,2.3,6.9,6.2
	v10.3h-4.3v-0.9c-0.5,0.5-2.1,1.2-3.9,1.2c-3.2,0-5.9-1.9-5.9-5.2c0-3.1,2.7-5.2,6.2-5.2c1.4,0,3,0.5,3.6,0.9V65.2z M181.6,69.7
	c-0.4-0.9-1.6-1.4-2.8-1.4c-1.4,0-2.8,0.6-2.8,2c0,1.4,1.4,2,2.8,2c1.3,0,2.5-0.5,2.8-1.4V69.7z"/>
<path class="st1" d="M197.3,58.8c1.6,0,3.2,0.4,4.4,1.3v4.1c-1.1-1-2.4-1.4-3.8-1.4c-2.4,0-4.3,1.7-4.3,4.5c0,2.8,1.9,4.5,4.3,4.5
	c1.4,0,2.7-0.5,3.8-1.4v4c-1.2,0.9-2.7,1.3-4.4,1.3c-4.6,0-8.1-3.2-8.1-8.4C189.2,62.1,192.7,58.8,197.3,58.8"/>
<polygon class="st1" points="220.8,75.3 215.6,75.3 209.8,67.9 209.8,75.3 205.3,75.3 205.3,51.9 209.8,51.9 209.8,65.6 215.3,59.2 
	220.7,59.2 214,66.6 "/>
<path class="st1" d="M231.3,65.2c0-1.6-1.3-2.5-3.6-2.5c-1.6,0-3.1,0.5-4.4,1.3v-3.9c1.2-0.7,3.2-1.3,5.4-1.3c4.4,0,6.9,2.3,6.9,6.2
	l0,10.3h-4.3v-0.9c-0.5,0.5-2.1,1.2-3.9,1.2c-3.2,0-5.9-1.9-5.9-5.2c0-3.1,2.7-5.2,6.2-5.2c1.4,0,3,0.5,3.6,0.9V65.2z M231.3,69.7
	c-0.4-0.9-1.6-1.4-2.8-1.4c-1.4,0-2.8,0.6-2.8,2c0,1.4,1.4,2,2.8,2c1.3,0,2.5-0.5,2.8-1.4V69.7z"/>
<path class="st1" d="M249.7,63.6c-0.6-0.4-1.4-0.5-2.2-0.5c-1.5,0-2.7,0.8-3.1,2.3v10h-4.5V59.2h4.5v1.6c0.7-1.2,2-1.9,3.6-1.9
	c0.8,0,1.4,0.1,1.7,0.3V63.6z"/>
<path class="st1" d="M262.5,74c-0.7,0.9-2.3,1.7-4,1.7c-4.7,0-7.3-3.8-7.3-8.4s2.6-8.4,7.3-8.4c1.7,0,3.3,0.8,4,1.7v-8.7h4.5v23.4
	h-4.5V74z M262.5,64.6c-0.5-1.1-1.7-1.9-3-1.9c-2.4,0-3.9,1.9-3.9,4.5c0,2.6,1.4,4.5,3.9,4.5c1.3,0,2.5-0.8,3-1.9V64.6z"/>
<path class="st1" d="M105,72.5c-1.3,0-2.2-0.7-2.2-2.2h0.1V53.3h-4.5v16v1.1v0.2c0,3.6,2.3,5.7,5.7,5.7c1,0,1.8-0.1,2.5-0.4v-3.8
	C106.1,72.4,105.6,72.5,105,72.5"/>
<path class="st1" d="M141.9,63.5h4.1v-3.6h-4.1v-6.6h-4.5v6.6h-6.5v-6.6h-4.5v6.6h-2.9v3.6h2.9v5.8v1.1v0.2c0,3.6,2.3,5.7,5.7,5.7
	c1,0,1.8-0.1,2.5-0.4v-3.8c-0.5,0.3-1,0.4-1.6,0.4c-1.3,0-2.2-0.7-2.2-2.2h0.1v-6.9h6.5v5.8v1.1v0.2c0,3.6,2.3,5.7,5.7,5.7
	c1,0,1.8-0.1,2.5-0.4v-3.8c-0.5,0.3-1,0.4-1.6,0.4c-1.3,0-2.2-0.7-2.2-2.2h0.1V63.5z"/>
<polygon class="st1" points="48.3,84.1 48.3,86.6 37,86.6 37,93.7 47.3,93.7 47.3,96.2 37,96.2 37,103.8 48.3,103.8 48.3,106.4 
	34.1,106.4 34.1,84.1 "/>
<path class="st1" d="M52.6,90.3h2.7v2c0.9-1.3,2.7-2.4,4.8-2.4c3.7,0,5.7,2.4,5.7,5.9v10.6H63V96.2c0-2.3-1.1-3.8-3.6-3.8
	c-1.9,0-3.5,1.3-4.1,3v10.9h-2.7V90.3z"/>
<path class="st1" d="M83.2,98.8c0.1,3.7,2.5,5.5,5.4,5.5c1.8,0,3.1-0.4,4.6-1.5v2.5c-1.3,1-3,1.4-4.9,1.4c-4.6,0-7.8-3.2-7.8-8.2
	c0-5,2.9-8.5,7.2-8.5c4.4,0,6.6,3.2,6.6,7.9v1H83.2z M83.3,96.6h8.3c-0.1-2.4-1.3-4.4-3.9-4.4C85.6,92.3,83.8,93.7,83.3,96.6z"/>
<path class="st1" d="M106.3,93c-0.4-0.3-1.1-0.4-1.8-0.4c-1.7,0-3.2,1.1-3.7,3v10.8H98V90.3h2.7v2.1c0.7-1.4,2.2-2.4,4-2.4
	c0.7,0,1.3,0.1,1.6,0.3V93z"/>
<path class="st1" d="M111.9,112.6h-2.7V90.3h2.7v1.9c0.8-1.2,2.5-2.2,4.5-2.2c4.8,0,7.3,3.9,7.3,8.4s-2.5,8.4-7.3,8.4
	c-2,0-3.7-1.1-4.5-2.2V112.6z M111.9,101.6c0.8,1.7,2.4,2.7,4.1,2.7c3.1,0,4.9-2.5,4.9-5.9c0-3.4-1.8-5.9-4.9-5.9
	c-1.7,0-3.3,1-4.1,2.7V101.6z"/>
<path class="st1" d="M136.2,93c-0.4-0.3-1.1-0.4-1.8-0.4c-1.7,0-3.2,1.1-3.7,3v10.8h-2.7V90.3h2.7v2.1c0.7-1.4,2.2-2.4,4-2.4
	c0.7,0,1.3,0.1,1.6,0.3V93z"/>
<path class="st1" d="M140.9,87.1c-0.9,0-1.7-0.8-1.7-1.7c0-1,0.8-1.7,1.7-1.7c1,0,1.8,0.8,1.8,1.7C142.7,86.3,141.9,87.1,140.9,87.1
	 M142.3,106.4h-2.7V90.3h2.7V106.4z"/>
<path class="st1" d="M146.2,102.2c1.5,1.4,3.3,2.2,5.3,2.2c1.8,0,3.3-0.7,3.3-2.3c0-1.2-0.9-1.9-2.3-2.3l-2.2-0.8
	c-2.4-0.8-4.1-2-4.1-4.6c0-2.8,2.5-4.5,5.7-4.5c1.8,0,3.5,0.5,4.8,1.4v2.8c-1.3-1.1-2.8-1.9-4.8-1.9c-1.7,0-3.1,0.7-3.1,2.1
	c0,1.3,0.9,1.7,2.4,2.3l2.5,0.8c2.4,0.8,3.8,2.3,3.8,4.5c0,3-2.7,4.7-6,4.7c-2.1,0-4.1-0.7-5.3-1.6V102.2z"/>
<path class="st1" d="M163,98.8c0.1,3.7,2.5,5.5,5.4,5.5c1.8,0,3.1-0.4,4.6-1.5v2.5c-1.3,1-3,1.4-4.9,1.4c-4.7,0-7.8-3.2-7.8-8.2
	c0-5,2.9-8.5,7.2-8.5c4.4,0,6.6,3.2,6.6,7.9v1H163z M163.1,96.6h8.3c-0.1-2.4-1.3-4.4-3.9-4.4C165.4,92.3,163.6,93.7,163.1,96.6z"/>
<path class="st1" d="M77,104.3c-1.6,0-2.7-1-2.7-2.9V100h0.1v-7.4h4.3v-2.3h-4.3v-4h-2.8v4h-3.7v2.3h3.7v7.4v1.6
	c0,3.2,2.1,5.1,4.9,5.1c0.9,0,1.5-0.1,2.1-0.4v-2.5C78.2,104.2,77.5,104.3,77,104.3"/>
</svg>
