<?xml version="1.0" encoding="utf-8"?>
<!-- Generator: Adobe Illustrator 21.1.0, SVG Export Plug-In . SVG Version: 6.00 Build 0)  -->
<svg version="1.1" id="Layer_1" xmlns="http://www.w3.org/2000/svg" xmlns:xlink="http://www.w3.org/1999/xlink" x="0px" y="0px"
	 viewBox="0 0 300 180" style="enable-background:new 0 0 300 180;" xml:space="preserve">
<style type="text/css">
	.st0{fill:#00A0DC;}
</style>
<path class="st0" d="M144,29h-0.4h0c-0.8,0-1.5,0-2.3,0.1l-12.1,33.2h10.5c6.3,0,9.6,4.8,7.5,10.7l-14.9,41l-12.5,0l16-43.9h-9.4
	l-16,43.9H97.8l18.8-51.7h0l11.3-31.1C103,38.1,84.8,61,84.8,88.1c0,27.9,19.4,51.3,45.4,57.5l11-30.1h0l19.3-53.2h23.1
	c6.3,0,9.6,4.8,7.5,10.7L178,109c-1,2.7-4.2,5-7.1,5h-16.6l-12.1,33.2c0.6,0,1.2,0,1.8,0c32.6,0,59.1-26.5,59.1-59.1
	C203,55.5,176.6,29,144,29 M179.7,70h-9.4l-13.2,36.2h9.4L179.7,70z"/>
</svg>
