<?xml version="1.0" encoding="utf-8"?>
<!-- Generator: Adobe Illustrator 21.1.0, SVG Export Plug-In . SVG Version: 6.00 Build 0)  -->
<svg version="1.1" id="Layer_1" xmlns="http://www.w3.org/2000/svg" xmlns:xlink="http://www.w3.org/1999/xlink" x="0px" y="0px"
	 viewBox="0 0 291 125" style="enable-background:new 0 0 291 125;" xml:space="preserve">
<style type="text/css">
	.st0{fill:#00558A;}
	.st1{fill:#FFFFFF;}
	.st2{fill:none;stroke:#95C951;stroke-width:0.76;stroke-miterlimit:10;}
	.st3{fill:none;stroke:#5AB5E6;stroke-width:0.76;stroke-miterlimit:10;}
</style>
<rect x="51.2" y="20.8" class="st0" width="188.7" height="83.1"/>
<path class="st1" d="M141.6,56.9c-1.1,0-2.1,0.9-2.1,2c0,1.1,0.9,2.1,2.1,2.1c1.1,0,2-0.9,2-2.1C143.6,57.8,142.7,56.9,141.6,56.9
	 M141.6,60.7c-1,0-1.7-0.8-1.7-1.8c0-1,0.7-1.8,1.7-1.8c1,0,1.7,0.8,1.7,1.8C143.3,60,142.6,60.7,141.6,60.7z"/>
<path class="st1" d="M142.7,58.4c0-0.4-0.2-0.6-0.8-0.6h-1v2.3h0.3v-1.1h0.5l0.7,1.1h0.3l-0.7-1.1C142.3,59,142.7,58.9,142.7,58.4
	 M141.6,58.8h-0.4V58h0.7c0.3,0,0.6,0,0.6,0.4C142.4,58.9,141.9,58.8,141.6,58.8z"/>
<path class="st1" d="M98.3,30.7c-1.5-1.4-3.2-2.1-5.3-2.3H76.1v2.3C76.1,30.7,98.3,30.7,98.3,30.7"/>
<path class="st1" d="M76.2,34.9h24.6c0-0.9-0.3-1.5-0.6-2.3H76.2V34.9z"/>
<path class="st1" d="M100.9,36.9h-7v2.3h6.7C100.8,38.5,100.9,37.7,100.9,36.9"/>
<rect x="80.6" y="36.9" class="st1" width="6.6" height="2.3"/>
<path class="st1" d="M80.6,43.4c0,0,17.1,0,17.1,0c0.7-0.6,1.5-1.5,1.9-2.3h-19V43.4z"/>
<path class="st1" d="M99.7,47.6c-0.6-0.8-1.3-1.6-2-2.3H80.6v2.3C80.6,47.6,99.7,47.6,99.7,47.6"/>
<path class="st1" d="M80.6,51.9l6.7,0c0,0,0-2.3,0-2.3h-6.7V51.9z"/>
<path class="st1" d="M94,49.6v2.3h7.1c-0.1-0.8-0.1-1.6-0.4-2.3H94z"/>
<path class="st1" d="M76.1,56.1h23.6l0.2,0c0.5-0.6,0.7-1.5,0.9-2.3H76.1V56.1z"/>
<path class="st1" d="M76.1,60.4l16.6,0c2.2,0,4.3-0.8,5.8-2.3c-0.1,0-22.3,0-22.3,0V60.4z"/>
<polygon class="st1" points="133.6,36.9 122.9,36.9 122.1,39.2 133.6,39.2 133.6,36.9 "/>
<polygon class="st1" points="102.8,34.9 117,34.9 116.2,32.7 102.8,32.7 "/>
<rect x="127.1" y="45.4" class="st1" width="6.5" height="2.3"/>
<polygon class="st1" points="107.1,39.2 118.5,39.2 117.7,36.9 107.1,36.9 "/>
<rect x="127.1" y="49.6" class="st1" width="6.5" height="2.3"/>
<rect x="127.1" y="53.8" class="st1" width="10.8" height="2.3"/>
<polygon class="st1" points="120.2,60.4 120.5,60.4 121.3,58.1 119.4,58.1 "/>
<rect x="102.8" y="58.1" class="st1" width="10.8" height="2.3"/>
<polygon class="st1" points="115.5,30.7 114.7,28.4 102.8,28.4 102.8,30.7 "/>
<polygon class="st1" points="118.7,56.1 122,56.1 122.8,53.8 117.9,53.8 "/>
<polygon class="st1" points="120,43.4 119.2,41.1 107.1,41.1 107.1,43.4 113.6,43.4 113.6,41.6 114.2,43.4 "/>
<rect x="107.1" y="49.6" class="st1" width="6.5" height="2.3"/>
<rect x="107.1" y="45.4" class="st1" width="6.5" height="2.3"/>
<rect x="102.8" y="53.8" class="st1" width="10.8" height="2.3"/>
<rect x="127.1" y="58.1" class="st1" width="10.8" height="2.3"/>
<polygon class="st1" points="123.6,34.9 137.9,34.9 137.9,32.7 124.4,32.7 "/>
<polygon class="st1" points="125.1,30.7 137.9,30.7 137.9,28.4 125.9,28.4 "/>
<path class="st1" d="M117.3,51.9c0,0,6.2,0,6.2,0c0,0,0.8-2.3,0.8-2.3h-7.9C116.4,49.6,117.3,51.9,117.3,51.9"/>
<path class="st1" d="M115.8,47.6l9.2,0c0,0,0.8-2.3,0.8-2.3H115C115,45.4,115.8,47.6,115.8,47.6"/>
<path class="st1" d="M133.6,43.4v-2.3h-12.2l-0.8,2.3h5.8c0,0,0.6-1.7,0.6-1.7s0,1.7,0,1.7H133.6z"/>
<polygon class="st1" points="58.7,58.1 58.7,60.4 74.1,60.4 74.1,58.1 58.7,58.1 "/>
<rect x="63" y="41.1" class="st1" width="6.6" height="2.3"/>
<rect x="63" y="36.9" class="st1" width="6.6" height="2.3"/>
<rect x="63" y="45.4" class="st1" width="6.6" height="2.3"/>
<rect x="58.7" y="32.7" class="st1" width="15.4" height="2.3"/>
<rect x="58.7" y="28.4" class="st1" width="15.4" height="2.3"/>
<rect x="63" y="49.6" class="st1" width="6.6" height="2.3"/>
<path class="st1" d="M74.1,53.8c0,0-15.4,0-15.4,0v2.3h15.4C74.1,56.1,74.1,53.8,74.1,53.8"/>
<polyline class="st2" points="225.4,51.7 225.4,74.1 205.9,85.3 186.5,74.1 186.5,51.7 201.4,43.1 "/>
<polyline class="st2" points="220.8,71.5 205.9,80.1 191,71.5 191,54.3 201.4,48.3 "/>
<polyline class="st2" points="210.4,48.3 220.8,54.3 220.8,66.2 "/>
<line class="st2" x1="239.9" y1="82.5" x2="225.4" y2="74.1"/>
<polyline class="st2" points="239.9,77.3 229.9,71.5 229.9,54.3 239.9,48.5 "/>
<line class="st2" x1="205.9" y1="40.5" x2="205.9" y2="20.8"/>
<polyline class="st2" points="239.9,43.3 225.4,51.7 210.4,43.1 "/>
<line class="st2" x1="210.4" y1="37.9" x2="210.4" y2="20.8"/>
<polyline class="st2" points="235.8,40.4 225.4,46.5 214.9,40.5 "/>
<polyline class="st3" points="225.4,20.8 225.4,29.2 205.9,40.4 186.5,29.2 186.5,20.8 "/>
<polyline class="st3" points="220.8,20.8 220.8,26.6 210.4,32.6 "/>
<polyline class="st3" points="205.9,35.2 191,26.6 191,20.8 "/>
<polyline class="st3" points="239.9,32.4 229.9,26.6 229.9,20.8 "/>
<polygon class="st3" points="205.9,62.9 186.5,74.1 167.1,62.9 167.1,40.4 186.5,29.2 205.9,40.4 "/>
<polyline class="st3" points="186.5,68.8 171.6,60.2 171.6,43 186.5,34.4 201.4,43 201.4,60.2 191,66.2 "/>
<polyline class="st3" points="239.9,65.7 225.4,74.1 205.9,62.9 205.9,40.4 225.4,29.2 239.9,37.6 "/>
<line class="st3" x1="239.9" y1="60.5" x2="229.8" y2="66.3"/>
<polyline class="st3" points="225.4,68.8 210.4,60.2 210.4,43 225.4,34.4 239.9,42.8 "/>
<line class="st2" x1="205.9" y1="37.6" x2="205.9" y2="20.8"/>
<line class="st2" x1="210.4" y1="35.2" x2="210.4" y2="20.8"/>
<line class="st2" x1="229.9" y1="67.9" x2="229.9" y2="54.3"/>
<line class="st2" x1="186.5" y1="70.7" x2="186.5" y2="51.7"/>
<line class="st2" x1="191" y1="67.9" x2="191" y2="54.3"/>
<path class="st0" d="M243.4,99.5h-1.6v-0.5h3.9v0.5H244v4.5h-0.6V99.5 M246.5,98.9h1l1.6,4.1l1.6-4.1h1v5h-0.7v-4.4h0l-1.8,4.4H249
	l-1.8-4.4h0v4.4h-0.6V98.9z"/>
<path class="st0" d="M243.4,99.5h-1.6v-0.5h3.9v0.5H244v4.5h-0.6V99.5 M246.5,98.9h1l1.6,4.1l1.6-4.1h1v5h-0.7v-4.4h0l-1.8,4.4H249
	l-1.8-4.4h0v4.4h-0.6V98.9z"/>
<line class="st2" x1="225.4" y1="70.3" x2="225.4" y2="51.7"/>
<path class="st1" d="M63.8,69.6c1,0,1.8,0.3,2.4,0.8c0.6,0.6,0.9,1.4,0.9,2.5c0,1.1-0.3,1.9-0.9,2.5c-0.6,0.6-1.4,0.9-2.4,0.9h-3.6
	v4.6h-1.5V69.6H63.8z M63.4,75c0.7,0,1.3-0.2,1.7-0.5c0.4-0.3,0.6-0.9,0.6-1.6c0-1.4-0.8-2.1-2.4-2.1h-3V75H63.4z"/>
<rect x="68.5" y="69.6" class="st1" width="1.3" height="11.2"/>
<path class="st1" d="M75,72.5c2,0,3,0.7,3,2.2v4.7c0,0.3,0.1,0.5,0.4,0.5c0.1,0,0.3,0,0.4-0.1v1c-0.3,0.1-0.6,0.2-1,0.2
	c-0.8,0-1.1-0.4-1.1-1.3C76,80.6,75.1,81,73.9,81c-0.8,0-1.5-0.2-2-0.6c-0.5-0.4-0.7-1-0.7-1.7c0-0.7,0.2-1.3,0.7-1.7
	c0.5-0.4,1.6-0.8,3.3-1c0.6-0.1,1-0.2,1.2-0.3c0.2-0.2,0.3-0.4,0.3-0.7c0-0.9-0.6-1.3-1.8-1.3c-0.7,0-1.2,0.1-1.5,0.4
	c-0.3,0.2-0.5,0.6-0.5,1.2h-1.3C71.6,73.4,72.8,72.5,75,72.5 M72.6,78.7c0,0.4,0.1,0.7,0.4,0.9c0.3,0.2,0.7,0.3,1.2,0.3
	c0.7,0,1.3-0.2,1.8-0.5c0.5-0.4,0.7-0.8,0.7-1.3v-1.4c-0.2,0.2-0.6,0.3-0.9,0.3l-1.4,0.2c-0.6,0.1-1,0.2-1.3,0.5
	C72.8,77.9,72.6,78.2,72.6,78.7z"/>
<path class="st1" d="M81.8,70.3v2.4h1.6v1.2h-1.6V79c0,0.2,0,0.4,0.1,0.5c0.1,0.1,0.3,0.2,0.7,0.2h0.8v1.2h-1.1
	c-0.7,0-1.2-0.1-1.4-0.3c-0.3-0.2-0.4-0.7-0.4-1.4v-5.3h-1.4v-1.2h1.4v-2.4H81.8z"/>
<path class="st1" d="M86.1,71.2h-1.3v-1.6h1.3V71.2z M86.1,80.8h-1.3v-8.1h1.3V80.8z"/>
<path class="st1" d="M91.7,72.5c1.9,0,2.8,1,2.8,2.9v5.4h-1.3v-5.6c0-0.5-0.1-0.8-0.4-1.1c-0.3-0.3-0.7-0.5-1.2-0.5
	c-0.8,0-1.4,0.2-1.8,0.7c-0.4,0.5-0.6,1.1-0.6,1.8v4.6h-1.3v-8.1H89V74h0C89.7,73,90.5,72.5,91.7,72.5"/>
<path class="st1" d="M97.5,72.7v5.5c0,0.5,0.1,0.9,0.4,1.2c0.3,0.3,0.7,0.4,1.2,0.4c0.8,0,1.4-0.2,1.8-0.7c0.4-0.5,0.6-1.1,0.6-1.8
	v-4.6h1.3v8.1h-1.3v-1.3h0c-0.6,1-1.4,1.5-2.6,1.5c-1.9,0-2.8-1-2.8-2.9v-5.4H97.5"/>
<path class="st1" d="M108.5,72.5c1.2,0,1.9,0.5,2.2,1.4c0.3-0.4,0.6-0.8,1.1-1c0.4-0.2,0.9-0.4,1.5-0.4c0.9,0,1.6,0.2,2,0.6
	c0.4,0.4,0.7,1,0.7,1.7v6h-1.3v-5.4c0-0.6-0.1-1-0.4-1.3c-0.2-0.3-0.6-0.4-1.2-0.4c-0.6,0-1.1,0.2-1.5,0.6c-0.4,0.4-0.6,0.9-0.6,1.5
	v5.1h-1.3v-5.4c0-0.6-0.1-1-0.4-1.3c-0.2-0.3-0.6-0.4-1.2-0.4c-0.4,0-0.7,0.1-1.1,0.3c-0.3,0.2-0.6,0.4-0.8,0.8
	c-0.2,0.4-0.3,0.7-0.3,1v5.1h-1.3v-8.1h1.3v1.2h0C106.5,73,107.4,72.5,108.5,72.5"/>
<path class="st1" d="M63.6,84.3c1.4,0,2.3,0.3,2.8,0.8c0.5,0.6,0.7,1.2,0.8,1.9c0,0.6-0.1,1.1-0.4,1.5c-0.3,0.4-0.7,0.8-1.2,1v0
	c0.7,0.1,1.2,0.5,1.6,0.9c0.4,0.5,0.6,1.1,0.6,1.8c0,0.9-0.3,1.7-1,2.3c-0.6,0.6-1.4,0.9-2.4,0.9h-5.5V84.3H63.6z M63.4,89.1
	c0.8,0,1.3-0.1,1.7-0.4c0.4-0.3,0.6-0.7,0.6-1.4c0-0.6-0.2-1-0.5-1.3c-0.3-0.3-0.9-0.4-1.8-0.4h-3.1v3.6H63.4z M64.1,94.3
	c0.6,0,1.1-0.2,1.5-0.5c0.4-0.4,0.6-0.8,0.6-1.5c0-1.2-0.8-1.9-2.5-1.9h-3.3v3.9H64.1z"/>
<path class="st1" d="M70.4,87.4v5.5c0,0.5,0.1,0.9,0.4,1.2c0.3,0.3,0.7,0.4,1.2,0.4c0.8,0,1.4-0.2,1.8-0.7c0.4-0.5,0.6-1.1,0.6-1.8
	v-4.6h1.3v8.1h-1.3v-1.3h0c-0.6,1-1.4,1.5-2.6,1.5c-1.9,0-2.8-1-2.8-2.9v-5.4H70.4"/>
<path class="st1" d="M80.2,87.2c1.1,0,1.9,0.2,2.4,0.6c0.5,0.4,0.8,1.1,0.9,1.9h-1.3v0c0-0.4-0.2-0.8-0.6-1
	c-0.3-0.2-0.8-0.3-1.3-0.3c-0.5,0-1,0.1-1.3,0.3c-0.3,0.2-0.5,0.4-0.5,0.8c0,0.3,0.1,0.5,0.4,0.7c0.3,0.2,0.7,0.3,1.2,0.5l1.3,0.3
	c0.8,0.2,1.4,0.4,1.8,0.8c0.4,0.4,0.6,0.8,0.6,1.5c0,0.8-0.3,1.4-0.9,1.9c-0.6,0.5-1.5,0.7-2.5,0.7c-1,0-1.9-0.2-2.5-0.7
	c-0.6-0.5-0.9-1.1-1-2.1h1.3c0,0.5,0.2,0.9,0.6,1.2c0.4,0.3,0.9,0.4,1.6,0.4c1.3,0,2-0.4,2-1.2c0-0.4-0.2-0.6-0.5-0.8
	c-0.3-0.2-1-0.4-2.1-0.6c-1-0.2-1.7-0.5-2.1-0.8c-0.4-0.4-0.6-0.8-0.6-1.5c0-0.7,0.3-1.3,0.8-1.7C78.5,87.4,79.3,87.2,80.2,87.2"/>
<path class="st1" d="M86.5,85.9h-1.3v-1.6h1.3V85.9z M86.5,95.5h-1.3v-8.1h1.3V95.5z"/>
<path class="st1" d="M92.2,87.2c1.9,0,2.8,1,2.8,2.9v5.4h-1.3V90c0-0.5-0.1-0.8-0.4-1.1c-0.3-0.3-0.7-0.5-1.2-0.5
	c-0.8,0-1.4,0.2-1.8,0.7c-0.4,0.5-0.6,1.1-0.6,1.8v4.6h-1.3v-8.1h1.3v1.3h0C90.1,87.7,91,87.2,92.2,87.2"/>
<path class="st1" d="M100,87.2c1.2,0,2.1,0.4,2.7,1.2c0.6,0.8,1,1.9,1,3.3v0.2h-6.1v0.1c0,0.8,0.2,1.4,0.7,1.9
	c0.4,0.5,1.1,0.7,1.9,0.7c1.2,0,1.9-0.5,2.1-1.6h1.3c-0.2,0.9-0.6,1.6-1.2,2.1c-0.6,0.5-1.4,0.7-2.3,0.7c-1.3,0-2.2-0.4-2.9-1.3
	c-0.7-0.8-1-1.9-1-3.1c0-1.2,0.4-2.2,1.1-3C98,87.6,98.9,87.2,100,87.2 M102.3,90.7c0-0.7-0.3-1.2-0.7-1.6c-0.4-0.4-1-0.7-1.6-0.7
	c-0.6,0-1.1,0.2-1.6,0.6c-0.4,0.4-0.7,1-0.7,1.7H102.3z"/>
<path class="st1" d="M107.8,87.2c1.1,0,1.9,0.2,2.4,0.6c0.5,0.4,0.8,1.1,0.9,1.9h-1.3v0c0-0.4-0.2-0.8-0.6-1
	c-0.3-0.2-0.8-0.3-1.3-0.3c-0.5,0-1,0.1-1.3,0.3c-0.3,0.2-0.5,0.4-0.5,0.8c0,0.3,0.1,0.5,0.4,0.7c0.3,0.2,0.7,0.3,1.2,0.5l1.3,0.3
	c0.8,0.2,1.4,0.4,1.8,0.8c0.4,0.4,0.6,0.8,0.6,1.5c0,0.8-0.3,1.4-0.9,1.9c-0.6,0.5-1.5,0.7-2.5,0.7c-1,0-1.9-0.2-2.5-0.7
	c-0.6-0.5-0.9-1.1-1-2.1h1.3c0,0.5,0.2,0.9,0.6,1.2c0.4,0.3,0.9,0.4,1.6,0.4c1.3,0,2-0.4,2-1.2c0-0.4-0.2-0.6-0.5-0.8
	c-0.3-0.2-1-0.4-2.1-0.6c-1-0.2-1.7-0.5-2.1-0.8c-0.4-0.4-0.6-0.8-0.6-1.5c0-0.7,0.3-1.3,0.8-1.7C106.1,87.4,106.9,87.2,107.8,87.2"
	/>
<path class="st1" d="M115.7,87.2c1.1,0,1.9,0.2,2.4,0.6c0.5,0.4,0.8,1.1,0.9,1.9h-1.3v0c0-0.4-0.2-0.8-0.6-1
	c-0.3-0.2-0.8-0.3-1.3-0.3c-0.5,0-1,0.1-1.3,0.3c-0.3,0.2-0.5,0.4-0.5,0.8c0,0.3,0.1,0.5,0.4,0.7c0.3,0.2,0.7,0.3,1.2,0.5l1.3,0.3
	c0.8,0.2,1.4,0.4,1.8,0.8c0.4,0.4,0.6,0.8,0.6,1.5c0,0.8-0.3,1.4-0.9,1.9c-0.6,0.5-1.5,0.7-2.5,0.7c-1,0-1.9-0.2-2.5-0.7
	c-0.6-0.5-0.9-1.1-1-2.1h1.3c0,0.5,0.2,0.9,0.6,1.2s0.9,0.4,1.6,0.4c1.3,0,2-0.4,2-1.2c0-0.4-0.2-0.6-0.5-0.8
	c-0.3-0.2-1-0.4-2.1-0.6c-1-0.2-1.7-0.5-2.1-0.8c-0.4-0.4-0.6-0.8-0.6-1.5c0-0.7,0.3-1.3,0.8-1.7C114,87.4,114.8,87.2,115.7,87.2"/>
<path class="st1" d="M129.6,84.3c1,0,1.8,0.3,2.4,0.8c0.6,0.6,0.9,1.4,0.9,2.5c0,1.1-0.3,1.9-0.9,2.5c-0.6,0.6-1.4,0.9-2.4,0.9h-3.6
	v4.6h-1.5V84.3H129.6z M129.2,89.7c0.7,0,1.3-0.2,1.7-0.5c0.4-0.3,0.6-0.9,0.6-1.6c0-1.4-0.8-2.1-2.4-2.1h-3v4.1H129.2z"/>
<path class="st1" d="M137.4,87.2c2,0,3,0.7,3,2.2v4.7c0,0.3,0.1,0.5,0.4,0.5c0.1,0,0.3,0,0.4-0.1v1c-0.3,0.1-0.6,0.2-1,0.2
	c-0.8,0-1.1-0.4-1.1-1.3c-0.7,0.8-1.7,1.3-2.9,1.3c-0.8,0-1.5-0.2-2-0.6c-0.5-0.4-0.7-1-0.7-1.7c0-0.7,0.2-1.3,0.7-1.7
	c0.5-0.4,1.6-0.8,3.3-1c0.6-0.1,1-0.2,1.2-0.3c0.2-0.2,0.3-0.4,0.3-0.7c0-0.9-0.6-1.3-1.8-1.3c-0.7,0-1.2,0.1-1.5,0.4
	c-0.3,0.2-0.5,0.6-0.5,1.2h-1.3C134,88.1,135.2,87.2,137.4,87.2 M135,93.3c0,0.4,0.1,0.7,0.4,0.9c0.3,0.2,0.7,0.3,1.2,0.3
	c0.7,0,1.3-0.2,1.8-0.5c0.5-0.4,0.7-0.8,0.7-1.3v-1.4c-0.2,0.2-0.6,0.3-0.9,0.3l-1.4,0.2c-0.6,0.1-1,0.2-1.3,0.5
	C135.1,92.6,135,92.9,135,93.3z"/>
<path class="st1" d="M146.7,87.2v1.4c-1,0-1.7,0.3-2.2,0.8c-0.5,0.5-0.7,1.4-0.7,2.5v3.6h-1.3v-8.1h1.3v1.7h0
	c0.6-1.3,1.6-1.9,2.8-1.9L146.7,87.2L146.7,87.2z"/>
<path class="st1" d="M150.5,84.9v2.4h1.6v1.2h-1.6v5.1c0,0.2,0,0.4,0.1,0.5c0.1,0.1,0.3,0.2,0.7,0.2h0.8v1.2H151
	c-0.7,0-1.2-0.1-1.4-0.3c-0.3-0.2-0.4-0.7-0.4-1.4v-5.3h-1.4v-1.2h1.4v-2.4H150.5z"/>
<path class="st1" d="M157.3,87.2c1.9,0,2.8,1,2.8,2.9v5.4h-1.3V90c0-0.5-0.1-0.8-0.4-1.1c-0.3-0.3-0.7-0.5-1.2-0.5
	c-0.8,0-1.4,0.2-1.8,0.7c-0.4,0.5-0.6,1.1-0.6,1.8v4.6h-1.3v-8.1h1.3v1.3h0C155.2,87.7,156.1,87.2,157.3,87.2"/>
<path class="st1" d="M165.1,87.2c1.2,0,2.1,0.4,2.7,1.2c0.7,0.8,1,1.9,1,3.3v0.2h-6.1v0.1c0,0.8,0.2,1.4,0.7,1.9
	c0.5,0.5,1.1,0.7,1.9,0.7c1.2,0,1.9-0.5,2.1-1.6h1.3c-0.2,0.9-0.6,1.6-1.2,2.1c-0.6,0.5-1.4,0.7-2.3,0.7c-1.3,0-2.2-0.4-2.9-1.3
	c-0.7-0.8-1-1.9-1-3.1c0-1.2,0.4-2.2,1.1-3C163.1,87.6,164,87.2,165.1,87.2 M167.4,90.7c0-0.7-0.3-1.2-0.7-1.6
	c-0.4-0.4-1-0.7-1.6-0.7c-0.6,0-1.1,0.2-1.6,0.6c-0.4,0.4-0.7,1-0.7,1.7H167.4z"/>
<path class="st1" d="M174.4,87.2v1.4c-1,0-1.7,0.3-2.2,0.8c-0.5,0.5-0.7,1.4-0.7,2.5v3.6h-1.3v-8.1h1.3v1.7h0
	c0.6-1.3,1.6-1.9,2.8-1.9L174.4,87.2L174.4,87.2z"/>
</svg>
