<?xml version="1.0" encoding="utf-8"?>
<!-- Generator: Adobe Illustrator 21.1.0, SVG Export Plug-In . SVG Version: 6.00 Build 0)  -->
<svg version="1.1" id="Layer_1" xmlns="http://www.w3.org/2000/svg" xmlns:xlink="http://www.w3.org/1999/xlink" x="0px" y="0px"
	 viewBox="0 0 291 125" style="enable-background:new 0 0 291 125;" xml:space="preserve">
<style type="text/css">
	.st0{fill:#F26C21;}
	.st1{fill:#FFFFFF;}
</style>
<rect x="24" y="21.1" class="st0" width="244.1" height="81.4"/>
<path class="st1" d="M130.4,48.5c-3.6,0-7.7,1.7-10.2,5l0,0V49h-8.6v31.3h8.6V62.5c0-3.2,2.5-6.6,7.1-6.6c3.6,0,7.2,2.5,7.2,6.6
	v17.8h8.6V60.9C143.1,53.7,137.9,48.5,130.4,48.5"/>
<polygon class="st1" points="204.2,49 196.4,70.4 188.6,49 178.8,49 191.7,80.3 201.1,80.3 214,49 "/>
<path class="st1" d="M102.4,70.7c-3.6,2.7-5.7,3.3-9,3.3c-3,0-5.3-0.9-6.9-2.5l22-9.1c-0.5-3.4-1.8-6.4-3.8-8.7
	c-2.9-3.4-7.2-5.1-12.4-5.1c-9.5,0-16.6,7-16.6,16.2c0,9.5,7.1,16.2,17.5,16.2c5.8,0,11.8-2.8,14.6-6L102.4,70.7z M85.9,58.5
	c1.5-2,3.8-3.1,6.6-3.1c3.1,0,5.5,1.8,6.7,4.4l-15,6.2C83.7,62.8,84.5,60.2,85.9,58.5z"/>
<polygon class="st1" points="74.9,72.4 55.4,72.4 55.4,39.7 46.6,39.7 46.6,80.3 74.9,80.3 "/>
<path class="st1" d="M229.5,80.9c-9.4,0-16.8-7-16.8-16.2c0-9.1,7.4-16.2,16.9-16.2c9.4,0,16.8,7,16.8,16.2
	C246.4,73.8,238.9,80.9,229.5,80.9 M229.5,55.9c-4.8,0-8.3,3.6-8.3,8.8c0,4.9,3.7,8.8,8.4,8.8c4.8,0,8.3-3.7,8.3-8.8
	C237.9,59.7,234.2,55.9,229.5,55.9z"/>
<path class="st1" d="M163.2,80.9c-9.4,0-16.8-7-16.8-16.2c0-9.1,7.4-16.2,16.9-16.2c9.4,0,16.8,7,16.8,16.2
	C180.1,73.8,172.7,80.9,163.2,80.9 M163.2,55.9c-4.8,0-8.3,3.6-8.3,8.8c0,4.9,3.7,8.8,8.4,8.8c4.8,0,8.3-3.7,8.3-8.8
	C171.7,59.7,168,55.9,163.2,55.9z"/>
<path class="st1" d="M247.5,76.6h-1.4v-0.8h3.6v0.8h-1.4v3.7h-0.9L247.5,76.6L247.5,76.6z M250.8,75.8h0.9L253,78l1.4-2.1h0.9v4.5
	h-0.8v-3.2l-1.4,2.2H253l-1.4-2.2v3.2h-0.8V75.8z"/>
</svg>
