<?xml version="1.0" encoding="utf-8"?>
<!-- Generator: Adobe Illustrator 21.1.0, SVG Export Plug-In . SVG Version: 6.00 Build 0)  -->
<svg version="1.1" id="Layer_1" xmlns="http://www.w3.org/2000/svg" xmlns:xlink="http://www.w3.org/1999/xlink" x="0px" y="0px"
	 viewBox="0 0 300 180" style="enable-background:new 0 0 300 180;" xml:space="preserve">
<style type="text/css">
	.st0{fill:#BE2026;}
	.st1{fill:#741A13;}
</style>
<path class="st0" d="M149.3,86.6l-6.3-3.8l-0.5,0.7c-1.4,2.3-3.4,3.4-5.9,3.4c-4.2,0-7.4-3.2-7.4-7.4c0-4.2,3.2-7.4,7.4-7.3
	c2.5,0,4.3,1.1,5.9,3.4l0.5,0.7l6.4-3.8l-0.6-0.8c-3-4.4-7-6.6-12.2-6.6c-9.7,0-15,7.4-15,14.3c0,6.9,5.2,14.3,14.9,14.3
	c4.9,0,9.6-2.5,12.2-6.6L149.3,86.6z"/>
<path class="st0" d="M149,94l8.8,0l2.6-6.5l13.2,0l2.6,6.5l8.8,0l-15.7-38l-7.8,0l2.1,5L149,94z M167,71l3.5,8.9l-7.1,0L167,71z"/>
<path class="st0" d="M188.6,94l7.7,0l0-17l5,0l0-7.1l-5,0l0-3.4c0-1.5,1-3,2.8-3c1,0,1.6,0.2,2.2,0.4l0.9,0.4l3.2-7l-0.9-0.4
	c-1.4-0.6-3.4-0.8-4.8-0.8c-3.5,0-6.4,1.1-8.3,3.3c-1.7,1.9-2.6,4.5-2.6,7.4l0,3l-3.4,0l0,7.1l3.4,0L188.6,94z"/>
<polygon class="st0" points="85.5,55.8 85.5,94 93.8,94 93.8,72.2 101.9,78.2 110,72.2 110,94 118.4,94 118.4,55.8 101.9,68.3 "/>
<path class="st0" d="M218.6,65.5c-9.7,0-14.9,7.3-14.9,14.3c0,6.9,5.2,14.3,14.9,14.3h0c4.4,0,8.6-2.1,11.8-5.7l-6.3-3.4
	c-1.6,1.6-3.6,2.5-5.7,2.5c-3.2,0-6-2.1-6.7-4.9l20.9,0l0-1.9C232.7,70.2,224.4,65.5,218.6,65.5 M211.9,76.2c1-2.6,3.2-4.1,6-4.1
	c2.8,0,5,1.5,6.2,4.1L211.9,76.2z"/>
<path class="st0" d="M250,65.5c-9.7,0-14.9,7.3-14.9,14.3c0,6.9,5.2,14.3,14.9,14.3h0c4.4,0,8.6-2.1,11.8-5.7l-6.3-3.4
	c-1.6,1.6-3.6,2.5-5.7,2.5c-3.2,0-6-2.1-6.7-4.9l20.9,0l0-1.9C264.1,70.2,255.9,65.5,250,65.5 M243.3,76.2c1-2.6,3.2-4.1,6-4.1
	c2.8,0,5,1.5,6.2,4.1L243.3,76.2z"/>
<polygon class="st0" points="263.1,64.2 266.4,64.2 266.4,64.8 265.1,64.8 265.1,68.2 264.4,68.2 264.4,64.8 263.1,64.8 "/>
<polygon class="st0" points="266.8,64.2 267.8,64.2 268.9,67.4 268.9,67.4 270,64.2 271,64.2 271,68.2 270.3,68.2 270.3,65.1 
	270.3,65.1 269.2,68.2 268.6,68.2 267.5,65.1 267.5,65.1 267.5,68.2 266.8,68.2 "/>
<polygon class="st0" points="36.5,88.4 36.5,69 48.7,74.7 48.7,65.3 28,55.8 28,93.8 48.7,103.3 48.7,94 "/>
<polygon class="st1" points="60.8,88.4 60.8,69 48.7,74.7 48.7,65.3 69.3,55.8 69.3,93.8 48.7,103.3 48.7,94 "/>
<polygon class="st0" points="92.4,118.4 89.9,118.4 89.9,105.5 85.5,105.5 85.5,103.4 96.8,103.4 96.8,105.5 92.4,105.5 "/>
<path class="st0" d="M107,112.7c0,1.9-0.5,3.3-1.4,4.3c-1,1-2.3,1.6-4,1.6c-1.1,0-2-0.2-2.8-0.7c-0.8-0.5-1.4-1.2-1.9-2.1
	c-0.4-0.9-0.7-1.9-0.7-3.1c0-1.8,0.5-3.3,1.4-4.3c0.9-1,2.3-1.6,4-1.6c1.6,0,2.9,0.5,3.9,1.6C106.5,109.5,107,110.9,107,112.7
	 M98.8,112.7c0,2.6,1,3.9,2.9,3.9c1.9,0,2.9-1.3,2.9-3.9c0-2.6-1-3.9-2.9-3.9c-1,0-1.7,0.3-2.2,1C99,110.5,98.8,111.4,98.8,112.7z"
	/>
<path class="st0" d="M119.2,107v1.3l-1.9,0.4c0.2,0.2,0.3,0.5,0.4,0.9c0.1,0.3,0.2,0.7,0.2,1.1c0,1.2-0.4,2.1-1.2,2.8
	c-0.8,0.7-1.9,1-3.3,1c-0.4,0-0.7,0-1-0.1c-0.5,0.3-0.8,0.7-0.8,1.1c0,0.3,0.1,0.5,0.4,0.6c0.2,0.1,0.7,0.2,1.3,0.2h2
	c1.3,0,2.2,0.3,2.9,0.8c0.7,0.5,1,1.3,1,2.3c0,1.3-0.5,2.3-1.6,3c-1.1,0.7-2.6,1-4.6,1c-1.5,0-2.7-0.3-3.5-0.8
	c-0.8-0.5-1.2-1.3-1.2-2.3c0-0.7,0.2-1.3,0.7-1.8c0.4-0.5,1.1-0.8,1.9-1c-0.3-0.1-0.6-0.4-0.8-0.7c-0.2-0.3-0.3-0.6-0.3-1
	c0-0.4,0.1-0.8,0.4-1.1c0.2-0.3,0.6-0.6,1.1-0.9c-0.6-0.3-1.1-0.7-1.4-1.2c-0.4-0.6-0.5-1.2-0.5-2c0-1.2,0.4-2.2,1.2-2.9
	c0.8-0.7,1.9-1,3.3-1c0.3,0,0.7,0,1,0.1c0.4,0,0.6,0.1,0.8,0.1H119.2z M110.3,120.1c0,0.5,0.2,0.9,0.7,1.2c0.5,0.3,1.1,0.4,2,0.4
	c1.3,0,2.3-0.2,2.9-0.6c0.6-0.4,1-0.9,1-1.5c0-0.5-0.2-0.8-0.5-1.1c-0.4-0.2-1-0.3-2-0.3h-1.8c-0.7,0-1.2,0.2-1.6,0.5
	C110.5,119.2,110.3,119.6,110.3,120.1z M111.3,110.7c0,0.7,0.2,1.3,0.5,1.6c0.4,0.4,0.9,0.6,1.6,0.6c1.4,0,2.1-0.7,2.1-2.2
	c0-0.7-0.2-1.3-0.5-1.7c-0.3-0.4-0.9-0.6-1.6-0.6c-0.7,0-1.2,0.2-1.6,0.6C111.5,109.4,111.3,109.9,111.3,110.7z"/>
<path class="st0" d="M125.9,118.6c-1.8,0-3.1-0.5-4.1-1.5c-1-1-1.5-2.4-1.5-4.3c0-1.9,0.5-3.3,1.4-4.4c0.9-1.1,2.2-1.6,3.8-1.6
	c1.5,0,2.7,0.5,3.6,1.4c0.9,0.9,1.3,2.2,1.3,3.8v1.3h-7.6c0,1.1,0.3,1.9,0.9,2.5c0.6,0.6,1.4,0.9,2.4,0.9c0.7,0,1.3-0.1,1.9-0.2
	c0.6-0.1,1.2-0.3,1.9-0.6v2c-0.6,0.3-1.2,0.5-1.8,0.6C127.3,118.5,126.6,118.6,125.9,118.6 M125.4,108.6c-0.8,0-1.4,0.2-1.8,0.7
	c-0.5,0.5-0.7,1.2-0.8,2.1h5.2c0-0.9-0.2-1.6-0.7-2.1C126.8,108.9,126.2,108.6,125.4,108.6z"/>
<path class="st0" d="M137.2,116.6c0.6,0,1.2-0.1,1.8-0.3v1.8c-0.3,0.1-0.6,0.2-1,0.3c-0.4,0.1-0.9,0.1-1.3,0.1
	c-2.3,0-3.4-1.2-3.4-3.6v-6.1h-1.6v-1.1l1.7-0.9l0.8-2.4h1.5v2.5h3.2v1.8h-3.2v6.1c0,0.6,0.1,1,0.4,1.3
	C136.3,116.5,136.7,116.6,137.2,116.6"/>
<path class="st0" d="M151,118.4h-2.4v-7c0-0.9-0.2-1.5-0.5-2c-0.4-0.4-0.9-0.6-1.7-0.6c-1,0-1.8,0.3-2.2,0.9c-0.5,0.6-0.7,1.6-0.7,3
	v5.6H141v-16h2.4v4.1c0,0.7,0,1.3-0.1,2.1h0.2c0.3-0.5,0.8-1,1.4-1.3c0.6-0.3,1.3-0.5,2-0.5c2.8,0,4.1,1.4,4.1,4.2V118.4z"/>
<path class="st0" d="M159.2,118.6c-1.8,0-3.1-0.5-4.1-1.5c-1-1-1.5-2.4-1.5-4.3c0-1.9,0.5-3.3,1.4-4.4c0.9-1.1,2.2-1.6,3.8-1.6
	c1.5,0,2.7,0.5,3.6,1.4c0.9,0.9,1.3,2.2,1.3,3.8v1.3H156c0,1.1,0.3,1.9,0.9,2.5c0.6,0.6,1.4,0.9,2.4,0.9c0.7,0,1.3-0.1,1.9-0.2
	c0.6-0.1,1.2-0.3,1.9-0.6v2c-0.6,0.3-1.2,0.5-1.8,0.6C160.7,118.5,160,118.6,159.2,118.6 M158.8,108.6c-0.8,0-1.4,0.2-1.8,0.7
	c-0.5,0.5-0.7,1.2-0.8,2.1h5.2c0-0.9-0.2-1.6-0.7-2.1C160.1,108.9,159.5,108.6,158.8,108.6z"/>
<path class="st0" d="M172,106.8c0.5,0,0.9,0,1.2,0.1l-0.2,2.2c-0.3-0.1-0.7-0.1-1.1-0.1c-1,0-1.7,0.3-2.3,0.9
	c-0.6,0.6-0.9,1.4-0.9,2.5v5.9h-2.4V107h1.9l0.3,2h0.1c0.4-0.7,0.9-1.2,1.5-1.6C170.6,107,171.3,106.8,172,106.8"/>
<path class="st0" d="M180.7,104c0-0.4,0.1-0.8,0.4-1c0.2-0.2,0.6-0.3,1-0.3c0.4,0,0.8,0.1,1,0.3c0.2,0.2,0.4,0.6,0.4,1
	c0,0.4-0.1,0.7-0.4,1c-0.2,0.2-0.6,0.4-1,0.4c-0.4,0-0.8-0.1-1-0.4C180.8,104.7,180.7,104.4,180.7,104 M183.2,118.4h-2.4V107h2.4
	V118.4z"/>
<path class="st0" d="M194.1,115.1c0,1.1-0.4,2-1.2,2.6c-0.8,0.6-2,0.9-3.5,0.9c-1.5,0-2.7-0.2-3.6-0.7v-2.1c1.3,0.6,2.6,0.9,3.7,0.9
	c1.5,0,2.2-0.4,2.2-1.3c0-0.3-0.1-0.5-0.2-0.7c-0.2-0.2-0.4-0.4-0.8-0.6c-0.4-0.2-0.9-0.4-1.6-0.7c-1.3-0.5-2.2-1-2.7-1.5
	c-0.5-0.5-0.7-1.2-0.7-2c0-1,0.4-1.7,1.2-2.3c0.8-0.5,1.9-0.8,3.2-0.8c1.3,0,2.6,0.3,3.8,0.8l-0.8,1.8c-1.2-0.5-2.3-0.8-3.1-0.8
	c-1.3,0-1.9,0.4-1.9,1.1c0,0.4,0.2,0.7,0.5,0.9c0.3,0.2,1.1,0.6,2.2,1c0.9,0.4,1.6,0.7,2,1c0.4,0.3,0.7,0.6,0.9,1
	C194,114.1,194.1,114.6,194.1,115.1"/>
<path class="st0" d="M208,118.6c-1.4,0-2.6-0.5-3.3-1.6h-0.1c0.1,1,0.1,1.5,0.1,1.7v4.7h-2.4V107h2c0.1,0.2,0.2,0.7,0.3,1.5h0.1
	c0.8-1.1,1.9-1.7,3.4-1.7c1.4,0,2.5,0.5,3.3,1.5c0.8,1,1.2,2.5,1.2,4.3c0,1.9-0.4,3.3-1.2,4.3C210.6,118.1,209.5,118.6,208,118.6
	 M207.5,108.8c-1,0-1.7,0.3-2.1,0.8c-0.4,0.6-0.7,1.5-0.7,2.7v0.4c0,1.4,0.2,2.4,0.7,3c0.4,0.6,1.2,0.9,2.1,0.9c0.8,0,1.5-0.3,1.9-1
	c0.5-0.7,0.7-1.7,0.7-2.9c0-1.3-0.2-2.2-0.7-2.9C209,109.1,208.3,108.8,207.5,108.8z"/>
<path class="st0" d="M225.4,112.7c0,1.9-0.5,3.3-1.4,4.3c-1,1-2.3,1.6-4,1.6c-1.1,0-2-0.2-2.8-0.7c-0.8-0.5-1.4-1.2-1.9-2.1
	c-0.4-0.9-0.7-1.9-0.7-3.1c0-1.8,0.5-3.3,1.4-4.3c0.9-1,2.3-1.6,4-1.6c1.6,0,2.9,0.5,3.9,1.6C224.9,109.5,225.4,110.9,225.4,112.7
	 M217.1,112.7c0,2.6,1,3.9,2.9,3.9c1.9,0,2.9-1.3,2.9-3.9c0-2.6-1-3.9-2.9-3.9c-1,0-1.7,0.3-2.2,1
	C217.3,110.5,217.1,111.4,217.1,112.7z"/>
<path class="st0" d="M237.3,118.4l-1.5-5.3c-0.2-0.6-0.5-1.9-1-3.9h-0.1c-0.4,1.8-0.7,3.2-0.9,3.9l-1.5,5.3h-2.7l-3.2-11.4h2.5
	l1.4,5.6c0.3,1.4,0.6,2.6,0.7,3.6h0.1c0.1-0.5,0.2-1.1,0.3-1.7c0.1-0.6,0.3-1.1,0.4-1.5l1.7-6h2.6l1.7,6c0.1,0.3,0.2,0.8,0.4,1.5
	c0.2,0.7,0.2,1.2,0.3,1.6h0.1c0.1-0.8,0.3-2,0.7-3.5l1.5-5.6h2.4l-3.2,11.4H237.3z"/>
<path class="st0" d="M249.9,118.6c-1.8,0-3.1-0.5-4.1-1.5c-1-1-1.5-2.4-1.5-4.3c0-1.9,0.5-3.3,1.4-4.4c0.9-1.1,2.2-1.6,3.8-1.6
	c1.5,0,2.7,0.5,3.6,1.4c0.9,0.9,1.3,2.2,1.3,3.8v1.3h-7.6c0,1.1,0.3,1.9,0.9,2.5c0.6,0.6,1.4,0.9,2.4,0.9c0.7,0,1.3-0.1,1.9-0.2
	c0.6-0.1,1.2-0.3,1.9-0.6v2c-0.6,0.3-1.2,0.5-1.8,0.6C251.3,118.5,250.7,118.6,249.9,118.6 M249.4,108.6c-0.8,0-1.4,0.2-1.8,0.7
	c-0.5,0.5-0.7,1.2-0.8,2.1h5.2c0-0.9-0.2-1.6-0.7-2.1C250.8,108.9,250.2,108.6,249.4,108.6z"/>
<path class="st0" d="M262.7,106.8c0.5,0,0.9,0,1.2,0.1l-0.2,2.2c-0.3-0.1-0.7-0.1-1.1-0.1c-1,0-1.7,0.3-2.3,0.9
	c-0.6,0.6-0.9,1.4-0.9,2.5v5.9H257V107h1.9l0.3,2h0.1c0.4-0.7,0.9-1.2,1.5-1.6C261.4,107,262,106.8,262.7,106.8"/>
<path class="st0" d="M264,117.1c0-0.5,0.1-0.9,0.4-1.1c0.3-0.3,0.6-0.4,1.1-0.4c0.5,0,0.9,0.1,1.1,0.4c0.3,0.3,0.4,0.7,0.4,1.1
	c0,0.5-0.1,0.9-0.4,1.2c-0.3,0.3-0.6,0.4-1.1,0.4c-0.5,0-0.9-0.1-1.1-0.4C264.1,118,264,117.6,264,117.1"/>
</svg>
