<?xml version="1.0" encoding="utf-8"?>
<!-- Generator: Adobe Illustrator 21.1.0, SVG Export Plug-In . SVG Version: 6.00 Build 0)  -->
<svg version="1.1" id="Layer_1" xmlns="http://www.w3.org/2000/svg" xmlns:xlink="http://www.w3.org/1999/xlink" x="0px" y="0px"
	 viewBox="0 0 291 125" style="enable-background:new 0 0 291 125;" xml:space="preserve">
<style type="text/css">
	.st0{fill-rule:evenodd;clip-rule:evenodd;fill:#1687C8;}
	.st1{fill:#1687C8;}
</style>
<polygon class="st0" points="691.7,246.2 691.7,263.1 687.6,263.1 687.6,250.3 674.8,250.3 674.8,246.2 "/>
<polygon class="st0" points="687.6,263.1 687.6,267.1 670.8,267.1 670.8,250.3 674.8,250.3 674.8,263.1 "/>
<polygon class="st0" points="706.3,255.3 706.3,246.2 704.6,246.2 701.5,250.7 698.4,246.2 696.6,246.2 696.6,255.3 698.4,255.3 
	698.4,249.4 700.9,253.1 702,253.1 704.5,249.4 704.5,255.3 "/>
<rect x="710.8" y="246.2" class="st0" width="1.8" height="9"/>
<path class="st0" d="M726,254.4v-2l-1.8,0v1.1h-5.3V248h5.3v1.1l1.8,0v-2c0-0.5-0.4-0.9-0.9-0.9H718c-0.5,0-0.9,0.4-0.9,0.9v7.2
	c0,0.5,0.4,0.9,0.9,0.9h7.1C725.6,255.3,726,254.9,726,254.4"/>
<path class="st0" d="M732.3,248L732.3,248h5.3v1.9h-5.3V248z M739.4,255.3l-2.7-3.6h1.8c0.5,0,0.9-0.4,0.9-0.9v-3.6
	c0-0.5-0.4-0.9-0.9-0.9h-7.9v9h1.8v-3.6h2.2l2.6,3.6H739.4z"/>
<path class="st0" d="M745.7,248L745.7,248h5.3v5.5h-5.3V248z M752.7,254.4v-7.2c0-0.5-0.4-0.9-0.9-0.9h-7.1c-0.5,0-0.9,0.4-0.9,0.9
	v7.2c0,0.5,0.4,0.9,0.9,0.9h7.1C752.4,255.3,752.7,254.9,752.7,254.4z"/>
<polygon class="st0" points="705.4,259.8 705.4,258.1 696.6,258.1 696.6,267.1 698.4,267.1 698.4,263.5 703.7,263.5 703.7,261.7 
	698.4,261.7 698.4,259.8 "/>
<path class="st0" d="M709.7,259.8L709.7,259.8h5.3v5.5h-5.3V259.8z M716.7,266.2V259c0-0.5-0.4-0.9-0.9-0.9h-7.1
	c-0.5,0-0.9,0.4-0.9,0.9v7.2c0,0.5,0.4,0.9,0.9,0.9h7.1C716.3,267.1,716.7,266.7,716.7,266.2z"/>
<path class="st0" d="M728.7,266.2v-2l-1.8,0v1.1h-5.3v-5.5h5.3v1.1l1.8,0v-2c0-0.5-0.4-0.9-0.9-0.9h-7.1c-0.5,0-0.9,0.4-0.9,0.9v7.2
	c0,0.5,0.4,0.9,0.9,0.9h7.1C728.4,267.1,728.7,266.7,728.7,266.2"/>
<path class="st0" d="M740.7,266.2v-8.1H739v7.3h-5.3v-7.3h-1.8v8.1c0,0.5,0.4,0.9,0.9,0.9h7.1C740.4,267.1,740.7,266.7,740.7,266.2"
	/>
<path class="st0" d="M752.7,266.2v-3.6c0-0.5-0.4-0.9-0.9-0.9h-6.2v-1.9h5.3v0.9l1.8,0V259c0-0.5-0.4-0.9-0.9-0.9h-7.1
	c-0.5,0-0.9,0.4-0.9,0.9v3.6c0,0.5,0.4,0.9,0.9,0.9h6.2v1.9h-5.3v-0.9l-1.8,0v1.8c0,0.5,0.4,0.9,0.9,0.9h7.1
	C752.4,267.1,752.7,266.7,752.7,266.2"/>
<path class="st1" d="M755.9,247.9L755.9,247.9h0.4c0.3,0,0.4-0.1,0.4-0.4c0-0.3-0.1-0.4-0.4-0.4h-0.3V247.9z M756.7,249L756.7,249
	l-0.4-0.9h-0.3v0.9h-0.2v-2.1h0.6c0.5,0,0.6,0.2,0.6,0.6c0,0.3-0.1,0.5-0.4,0.6l0.4,0.9H756.7z M756.3,246.5L756.3,246.5
	c-0.8,0-1.5,0.7-1.5,1.5c0,0.8,0.7,1.5,1.5,1.5c0.8,0,1.5-0.7,1.5-1.5C757.8,247.1,757.1,246.5,756.3,246.5z M756.3,249.6
	c-0.9,0-1.6-0.7-1.6-1.6c0-0.9,0.7-1.6,1.6-1.6c0.9,0,1.6,0.7,1.6,1.6C757.9,248.9,757.2,249.6,756.3,249.6z"/>
<polygon class="st0" points="89.3,34.7 89.3,79.5 78.5,79.5 78.5,45.5 44.6,45.5 44.6,34.7 "/>
<polygon class="st0" points="78.5,79.5 78.5,90.3 33.8,90.3 33.8,45.5 44.6,45.5 44.6,79.5 "/>
<polygon class="st0" points="128.2,58.7 128.2,34.8 123.6,34.8 115.3,46.7 107.1,34.8 102.4,34.8 102.4,58.7 107.1,58.7 107.1,43 
	113.9,52.9 116.7,52.9 123.5,43 123.5,58.7 "/>
<rect x="140.2" y="34.8" class="st0" width="4.7" height="23.9"/>
<path class="st0" d="M180.4,56.3V51l-4.7,0v3h-14.1V39.4h14.1v3.1l4.7,0v-5.3c0-1.4-1-2.4-2.4-2.4h-18.8c-1.3,0-2.3,1-2.3,2.4v19.1
	c0,1.3,1,2.4,2.3,2.4h18.8C179.4,58.7,180.4,57.6,180.4,56.3"/>
<path class="st0" d="M197.2,39.4L197.2,39.4h14.1v5h-14.1V39.4z M216,58.7l-7.1-9.6h4.7c1.3,0,2.4-1,2.4-2.4v-9.6
	c0-1.4-1-2.4-2.4-2.4h-21.1v23.9h4.7v-9.6h5.8l7,9.6H216z"/>
<path class="st0" d="M232.7,39.4L232.7,39.4h14.1V54h-14.1V39.4z M251.5,56.3V37.2c0-1.4-1-2.4-2.4-2.4h-18.8c-1.3,0-2.3,1-2.3,2.4
	v19.1c0,1.3,1,2.4,2.3,2.4h18.8C250.5,58.7,251.5,57.6,251.5,56.3z"/>
<polygon class="st0" points="125.8,70.8 125.8,66.2 102.4,66.2 102.4,90.1 107.1,90.1 107.1,80.5 121.2,80.5 121.2,75.8 107.1,75.8 
	107.1,70.8 "/>
<path class="st0" d="M137.1,70.8L137.1,70.8h14.1v14.6h-14.1V70.8z M155.9,87.7V68.6c0-1.4-1-2.4-2.4-2.4h-18.8
	c-1.3,0-2.3,1-2.3,2.4v19.1c0,1.3,1,2.4,2.3,2.4h18.8C154.8,90.1,155.9,89,155.9,87.7z"/>
<path class="st0" d="M187.7,87.7v-5.4l-4.7,0v3H169V70.8H183v3.1l4.7,0v-5.3c0-1.4-1-2.4-2.4-2.4h-18.8c-1.3,0-2.3,1-2.3,2.4v19.1
	c0,1.3,1,2.4,2.3,2.4h18.8C186.7,90.1,187.7,89,187.7,87.7"/>
<path class="st0" d="M219.6,87.7V66.2h-4.7v19.3h-14.1V66.2h-4.7v21.6c0,1.3,1,2.4,2.3,2.4h18.8C218.6,90.1,219.6,89,219.6,87.7"/>
<path class="st0" d="M251.5,87.7v-9.5c0-1.3-1-2.4-2.4-2.4h-16.4v-4.9h14.1v2.5l4.7,0v-4.8c0-1.4-1-2.4-2.4-2.4h-18.8
	c-1.3,0-2.3,1-2.3,2.4v9.5c0,1.3,1,2.4,2.3,2.4h16.4v4.9h-14.1v-2.5l-4.7,0v4.8c0,1.3,1,2.4,2.3,2.4h18.8
	C250.5,90.1,251.5,89,251.5,87.7"/>
<path class="st1" d="M260,39.1L260,39.1h0.9c0.8,0,1.1-0.3,1.1-1c0-0.7-0.3-0.9-1.1-0.9H260V39.1z M262,42.1L262,42.1l-1.1-2.4H260
	v2.4h-0.7v-5.5h1.6c1.2,0,1.7,0.5,1.7,1.5c0,0.8-0.4,1.3-1.1,1.5l1.2,2.5H262z M261,35.4L261,35.4c-2.2,0-4,1.7-4,4
	c0,2.2,1.8,3.9,3.9,3.9c2.2,0,3.9-1.8,3.9-3.9C264.9,37.1,263.2,35.4,261,35.4z M260.9,43.7c-2.4,0-4.3-1.9-4.3-4.3
	c0-2.5,1.9-4.3,4.4-4.3c2.4,0,4.3,1.9,4.3,4.3C265.3,41.8,263.4,43.7,260.9,43.7z"/>
</svg>
