<?xml version="1.0" encoding="utf-8"?>
<!-- Generator: Adobe Illustrator 21.1.0, SVG Export Plug-In . SVG Version: 6.00 Build 0)  -->
<svg version="1.1" id="Layer_1" xmlns="http://www.w3.org/2000/svg" xmlns:xlink="http://www.w3.org/1999/xlink" x="0px" y="0px"
	 viewBox="0 0 291 125" style="enable-background:new 0 0 291 125;" xml:space="preserve">
<style type="text/css">
	.st0{fill:#1D4067;}
	.st1{fill:#628093;}
</style>
<path class="st0" d="M61.6,50h2.8c1.4,0,2.5-1,2.5-2.3c0-0.8-0.4-4.1-5.2-4.1h-0.2c-1.4,0-2.5,1-2.5,2.3v1.8
	C59.1,48.9,60.2,50,61.6,50"/>
<path class="st0" d="M33.5,78.5c1.4,0,2.5-1,2.5-2.3V60.7c0-1.3,1.1-2.3,2.5-2.3h1.7c4,0,4.4,2.4,4.4,2.4c0.2,1.2,0.4,3.3,0.4,4.5
	v10.8c0,1.3,1.1,2.3,2.5,2.3h2.5c1.4,0,2.5-1,2.5-2.3V65.6v-3.5c0-6-2.8-8.7-9-9.3c-0.9-0.1-1.8-0.1-2.8-0.1H14.5
	c-1.4,0-2.5,1-2.5,2.3v21.1c0,1.3,1.1,2.3,2.5,2.3H17c1.4,0,2.5-1,2.5-2.3V60.7c0-1.3,1.1-2.3,2.5-2.3h3.7c1.4,0,2.5,1,2.5,2.3v15.5
	c0,1.3,1.1,2.3,2.5,2.3H33.5z"/>
<path class="st0" d="M145,52.7h-8.4c-9.4,0-14.3,4.5-14.3,12.9c0,8.4,4.9,12.8,14.3,12.8h8.4c1.4,0,2.5-1,2.5-2.3v-0.8
	c0-1.3-1.1-2.3-2.5-2.3h-7.4c-4.9,0-6-2.6-6-2.6c-0.5-1.2,0.2-2.1,1.6-2.1H145c1.4,0,2.5-1,2.5-2.3v-0.8c0-1.3-1.1-2.3-2.5-2.3
	h-14.4c0.2-4.1,4.5-4.6,4.5-4.6c1.4-0.1,3.6-0.3,5-0.3h4.9c1.4,0,2.5-1,2.5-2.3V55C147.5,53.8,146.3,52.7,145,52.7"/>
<path class="st1" d="M179.5,76.2v-0.9c0-1.3-1.1-2.3-2.5-2.3h-2.9H169c0,0-1.9,0-3.4-0.8c-2.3-1.3-3.3-3.3-3.3-6.4
	c0-5.9,6.8-7,6.8-7c1.4-0.2,3.6-0.4,5-0.4h2.9c1.4,0,2.5-1,2.5-2.3v-1c0-1.3-1.1-2.3-2.5-2.3h-7.7c-4.7,0-8,0.8-10.7,3.1
	c-2.6,2.3-4.2,5.8-4.2,9.9c0,3.9,1.6,7.4,4.2,9.7c2.6,2.3,8.2,2.8,8.2,2.8c1.4,0.1,3.7,0.2,5.1,0.2h5.1
	C178.4,78.5,179.5,77.4,179.5,76.2"/>
<path class="st1" d="M207.4,71c0,1.3-1.1,2.3-2.5,2.3h-4.3c-1.4,0-3.7-0.1-5.1-0.2c0,0-1.6-0.1-1.6-2.3c0-2.3,2.1-2.6,2.1-2.6
	c1.4-0.2,3.7-0.3,5-0.3h3.8c1.4,0,2.5,1,2.5,2.3V71z M215.1,62.4c0-6.3-3.9-9.6-11.7-9.6h-12.8c-1.4,0-2.5,1-2.5,2.3v0.7
	c0,1.3,1.1,2.3,2.5,2.3h10c4.8,0,6.8,0.9,6.8,4.1v0.2c0,0.2-1.1,0.4-2.5,0.4h-7.3c-7.9,0-11.3,2.2-11.3,8.2c0,4.7,6.4,6.7,6.4,6.7
	c1.3,0.4,3.5,0.7,4.9,0.7h15.1c1.4,0,2.5-1,2.5-2.3V62.4z"/>
<path class="st1" d="M267.1,57.9h2.9c1.4,0,2.5-1,2.5-2.3V55c0-1.3-1.1-2.3-2.5-2.3h-2.9c-1.4,0-2.5-1-2.5-2.3v-4.7
	c0-1.3-1.1-2.3-2.5-2.3h-2.4c-1.4,0-2.5,1-2.5,2.3v4.7c0,1.3-1.1,2.3-2.5,2.3h-0.2h-22.6c-6.8,0-10,2.5-10,8c0,6,7.3,6.9,7.3,6.9
	c1.4,0.2,3.6,0.3,5,0.3h3.9c2.7,0,4.1,0.7,4.1,2.5c0,1.8-1.3,2.5-4.1,2.5h-13.3c-1.4,0-2.5,1-2.5,2.3v0.8c0,1.3,1.1,2.3,2.5,2.3
	h16.8c4.5,0,7.8-3.2,7.8-8c0-4.9-7.1-7-7.1-7c-1.3-0.4-3.6-0.7-4.9-0.7h-4.3c-2.4,0-3.6-0.7-3.6-2.3c0-2.1,2.6-2.2,2.6-2.2
	c1.4-0.1,3.7-0.1,5.1-0.1h18.6c0.8,0.4,1.4,1.1,1.4,2v10.2c0,5.3,6.2,7.3,6.2,7.3c1.3,0.4,3.5,0.8,4.9,0.8h1.8c1.4,0,2.5-1,2.5-2.3
	v-0.5c0-1.3-1.1-2.3-2.5-2.3h-0.5c-3.8,0-4.4-2.8-4.4-2.8c-0.2-1.2-0.5-3.3-0.5-4.5v-5.8C264.6,58.9,265.7,57.9,267.1,57.9"/>
<path class="st0" d="M67.3,70.4L67.3,70.4l0-15.5c0-1.3-1.1-2.3-2.5-2.3h-2.6c-1.4,0-2.5,1-2.5,2.3l0,10.1v11.3
	c0,1.3,1.1,2.3,2.5,2.3h2.6c1.4,0,2.5-1,2.5-2.3L67.3,70.4z"/>
<path class="st0" d="M96,78.4c1.4,0,2.5-1,2.5-2.3V60.6c0-1.3,1.1-2.3,2.5-2.3h1.7c4,0,4.4,2.4,4.4,2.4c0.2,1.2,0.4,3.3,0.4,4.6
	v10.8c0,1.3,1.1,2.3,2.5,2.3h2.5c1.4,0,2.5-1,2.5-2.3V65.6v-3.5c0-6-2.8-8.7-9-9.3c-0.9-0.1-1.8-0.1-2.8-0.1H77
	c-1.4,0-2.5,1-2.5,2.3v21.1c0,1.3,1.1,2.3,2.5,2.3h2.5c1.4,0,2.5-1,2.5-2.3V60.6c0-1.3,1.1-2.3,2.5-2.3h3.7c1.4,0,2.5,1,2.5,2.3
	v15.5c0,1.3,1.1,2.3,2.5,2.3H96z"/>
<path class="st1" d="M279.3,54.8l0-0.2l-0.1-0.1l-0.2-0.1l-0.3,0h-0.4v0.9h0.4l0.5-0.1L279.3,54.8z M280.8,57.5L280.8,57.5l-0.1,0.1
	l-0.2,0l-0.4,0l-0.4,0l-0.2,0l-0.1-0.1l-0.1-0.1l-0.2-0.7l-0.2-0.5l-0.4-0.1h-0.2v1.3l-0.1,0.2l-0.5,0.1c-0.3,0-0.4,0-0.5-0.1
	l-0.1-0.2V54l0.1-0.4l0.4-0.2h1.3l0.7,0.1l0.6,0.2l0.4,0.4l0.1,0.6c0,0.3-0.1,0.5-0.3,0.7c-0.2,0.2-0.4,0.3-0.7,0.4l0.5,0.3l0.3,0.5
	l0.2,0.6L280.8,57.5z M281.8,55.7c0-0.4-0.1-0.9-0.2-1.2c-0.2-0.4-0.4-0.7-0.6-1c-0.3-0.3-0.6-0.5-0.9-0.6c-0.4-0.2-0.8-0.2-1.2-0.2
	c-0.5,0-0.9,0.1-1.2,0.2c-0.4,0.2-0.7,0.4-0.9,0.7c-0.3,0.3-0.5,0.6-0.6,1c-0.1,0.4-0.2,0.8-0.2,1.2c0,0.4,0.1,0.9,0.2,1.2
	c0.2,0.4,0.4,0.7,0.6,1c0.3,0.3,0.6,0.5,0.9,0.6c0.4,0.2,0.8,0.2,1.2,0.2c0.5,0,0.9-0.1,1.2-0.2c0.4-0.2,0.7-0.4,0.9-0.6
	c0.3-0.3,0.5-0.6,0.6-1C281.7,56.5,281.8,56.1,281.8,55.7z M283,55.6c0,0.6-0.1,1.1-0.3,1.6c-0.2,0.5-0.5,0.9-0.9,1.3
	c-0.4,0.4-0.8,0.7-1.3,0.9c-0.5,0.2-1.1,0.3-1.7,0.3c-0.6,0-1.2-0.1-1.7-0.3c-0.5-0.2-0.9-0.5-1.3-0.9c-0.4-0.4-0.7-0.8-0.9-1.3
	c-0.2-0.5-0.3-1.1-0.3-1.7c0-0.6,0.1-1.1,0.3-1.6c0.2-0.5,0.5-0.9,0.9-1.3c0.4-0.4,0.8-0.7,1.3-0.9c0.5-0.2,1.1-0.3,1.6-0.3
	c0.6,0,1.2,0.1,1.7,0.3c0.5,0.2,0.9,0.5,1.3,0.8c0.4,0.4,0.7,0.8,0.9,1.3C282.9,54.5,283,55,283,55.6z"/>
</svg>
