<?xml version="1.0" encoding="utf-8"?>
<!-- Generator: Adobe Illustrator 21.1.0, SVG Export Plug-In . SVG Version: 6.00 Build 0)  -->
<svg version="1.1" id="Layer_1" xmlns="http://www.w3.org/2000/svg" xmlns:xlink="http://www.w3.org/1999/xlink" x="0px" y="0px"
	 viewBox="0 0 291 125" style="enable-background:new 0 0 291 125;" xml:space="preserve">
<style type="text/css">
	.st0{fill-rule:evenodd;clip-rule:evenodd;fill:#231F20;}
	.st1{fill-rule:evenodd;clip-rule:evenodd;fill:#0077BF;}
</style>
<path class="st0" d="M226.4,52h7.2v3.7c1.8-2.4,4.2-4.1,7.9-4.1c6,0,11.6,4.7,11.6,13.2v0.1c0,8.5-5.6,13.2-11.6,13.2
	c-3.9,0-6.2-1.8-7.9-3.8l0,10.9h-7.2V52z M246,64.8L246,64.8c0-4.3-2.9-7.1-6.2-7.1c-3.4,0-6.2,2.8-6.2,7v0.1c0,4.2,2.8,7,6.2,7
	C243.1,71.9,246,69.1,246,64.8z"/>
<polygon class="st0" points="82.8,44 89.6,44 105.2,64.8 105.2,44 112.4,44 112.4,77.6 106.2,77.6 90,56.4 90,77.6 82.8,77.6 "/>
<path class="st0" d="M115.9,64.9L115.9,64.9c0-7.4,5.2-13.4,12.6-13.4c8.5,0,12.4,6.6,12.4,13.9c0,0.6,0,1.2-0.1,1.9h-17.8
	c0.7,3.3,3,5,6.2,5c2.4,0,4.2-0.8,6.2-2.6l4.1,3.7c-2.4,3-5.8,4.8-10.4,4.8C121.6,78.1,115.9,72.8,115.9,64.9 M133.9,62.8
	c-0.4-3.2-2.3-5.4-5.4-5.4c-3,0-5,2.2-5.5,5.4H133.9z"/>
<path class="st0" d="M145.5,70.3V58.2h-3V52h3v-6.5h7.2V52h6v6.2h-6v10.9c0,1.7,0.7,2.5,2.3,2.5c1.3,0,2.5-0.3,3.6-0.9v5.8
	c-1.5,0.9-3.3,1.5-5.7,1.5C148.5,78,145.5,76.2,145.5,70.3"/>
<path class="st0" d="M196.7,52h7.2v3.7c1.8-2.4,4.2-4.1,7.9-4.1c6,0,11.6,4.7,11.6,13.2v0.1c0,8.5-5.6,13.2-11.6,13.2
	c-3.9,0-6.2-1.8-7.9-3.8v10.9h-7.2V52z M216.3,64.8L216.3,64.8c0-4.3-2.9-7.1-6.2-7.1c-3.4,0-6.2,2.8-6.2,7v0.1c0,4.2,2.8,7,6.2,7
	C213.4,71.9,216.3,69.1,216.3,64.8z"/>
<path class="st0" d="M174.4,44h6.6l13.9,33.6h-7.6l-3.1-7.5H171l-3,7.5h-7.5L174.4,44z M182,63.6l-4.4-10.8l-4.4,10.8H182z"/>
<polygon class="st1" points="28.1,44 28.1,77.6 43.7,77.6 43.7,57.4 52.7,57.4 52.7,77.6 68.3,77.6 68.3,44 "/>
<path class="st0" d="M254.5,55.8c0-0.6,0.1-1.1,0.3-1.6c0.2-0.5,0.5-0.9,0.9-1.3c0.4-0.4,0.8-0.7,1.3-0.9c0.5-0.2,1.1-0.3,1.6-0.3
	c0.6,0,1.1,0.1,1.6,0.3c0.5,0.2,1,0.5,1.3,0.9c0.4,0.4,0.7,0.8,0.9,1.3c0.2,0.5,0.3,1.1,0.3,1.6c0,0.6-0.1,1.2-0.3,1.7
	c-0.2,0.5-0.5,1-0.9,1.3c-0.4,0.4-0.8,0.7-1.3,0.9c-0.5,0.2-1,0.3-1.6,0.3c-0.6,0-1.1-0.1-1.6-0.3c-0.5-0.2-1-0.5-1.3-0.9
	c-0.4-0.4-0.7-0.8-0.9-1.3C254.6,56.9,254.5,56.4,254.5,55.8 M255.3,55.8c0,0.5,0.1,1,0.3,1.4c0.2,0.4,0.4,0.8,0.7,1.1
	c0.3,0.3,0.7,0.6,1.1,0.8c0.4,0.2,0.9,0.3,1.4,0.3c0.5,0,0.9-0.1,1.4-0.3c0.4-0.2,0.8-0.4,1.1-0.8c0.3-0.3,0.6-0.7,0.7-1.1
	c0.2-0.4,0.3-0.9,0.3-1.4c0-0.5-0.1-1-0.3-1.4c-0.2-0.4-0.4-0.8-0.7-1.1c-0.3-0.3-0.7-0.6-1.1-0.7c-0.4-0.2-0.9-0.3-1.4-0.3
	c-0.5,0-0.9,0.1-1.4,0.3c-0.4,0.2-0.8,0.4-1.1,0.7c-0.3,0.3-0.6,0.7-0.7,1.1C255.4,54.8,255.3,55.3,255.3,55.8z M257.1,53.3h1.9
	c0.6,0,1,0.1,1.3,0.3c0.3,0.2,0.4,0.6,0.4,1.1c0,0.4-0.1,0.8-0.4,1c-0.2,0.2-0.5,0.3-0.9,0.4l1.4,2.2H260l-1.3-2.1h-0.8v2.1h-0.8
	V53.3z M257.9,55.5h0.8c0.2,0,0.3,0,0.5,0c0.2,0,0.3,0,0.4-0.1c0.1-0.1,0.2-0.1,0.3-0.2c0.1-0.1,0.1-0.3,0.1-0.5
	c0-0.2,0-0.3-0.1-0.4c-0.1-0.1-0.1-0.2-0.2-0.2c-0.1-0.1-0.2-0.1-0.3-0.1c-0.1,0-0.3,0-0.4,0h-1V55.5z"/>
</svg>
