<?xml version="1.0" encoding="utf-8"?>
<!-- Generator: Adobe Illustrator 21.1.0, SVG Export Plug-In . SVG Version: 6.00 Build 0)  -->
<svg version="1.1" id="Layer_1" xmlns="http://www.w3.org/2000/svg" xmlns:xlink="http://www.w3.org/1999/xlink" x="0px" y="0px"
	 viewBox="0 0 291 125" style="enable-background:new 0 0 291 125;" xml:space="preserve">
<style type="text/css">
	.st0{fill:#231F20;}
</style>
<g>
	<path class="st0" d="M52.2,62.3c0,8-4.6,16.7-17,16.7c-8.9,0-17.1-5-17.1-16.7c0-9.7,6.1-17.2,18.3-16.5
		C49.4,46.5,52.2,56.5,52.2,62.3z M29.1,56.2c-1.2,1.8-1.6,3.9-1.6,6.1c0,4.9,2.4,9.4,7.7,9.4c5,0,7.5-4.1,7.5-9
		c0-3.4-0.9-6.1-2.6-7.8c-1.9-1.8-4.1-1.8-5.5-1.7C32,53.3,30.4,54.2,29.1,56.2z"/>
	<path class="st0" d="M135.3,49.3c0.9-1,1.5-1.7,3.2-2.5c1.5-0.6,3.5-1.1,5.8-1.1c1.9,0,4,0.3,5.7,1.2c3.3,1.8,4.2,4.6,4.2,9.6v21.7
		h-9.3V60.3c0-2.9-0.1-3.9-0.4-4.7c-0.7-1.7-2.4-2.4-4.2-2.4c-4.9,0-4.9,4-4.9,7.9v17.2h-9.4V46.5h9.4V49.3z"/>
	<path class="st0" d="M121.4,70c-0.9,1.8-3.6,9-15.8,9c-9.4,0-16.1-5.8-16.1-16.2c0-7.7,3.8-17.1,16.3-17.1c1.9,0,7.4-0.2,11.4,4.1
		c4.1,4.4,4.4,10.6,4.5,14.2H99.1c-0.1,4,2.2,7.9,7.2,7.9c5.1,0,6.9-3.3,8-5.6L121.4,70z M112.1,58.3c-0.2-1.3-0.4-3.1-1.8-4.5
		c-1.2-1.2-2.9-1.8-4.6-1.8c-2.3,0-3.8,1.1-4.7,2.1c-1.3,1.4-1.6,2.9-1.9,4.2H112.1z"/>
	<path class="st0" d="M251.6,53.1h6.2v-6.6h-6.1v-6.7h-9.3v6.7h-1.5l-4.3,6.6h5.7v15.1c0,3,0.1,5.3,1.3,7.2c2,2.9,5.5,3.1,8.8,3.1
		c1.7,0,2.9-0.2,4.9-0.5v-7.3l-3.3,0.1c-2.5,0-2.5-1.6-2.4-3.6V53.1z"/>
	<path class="st0" d="M158.7,39.9h9.3v6.7h9.7l-4.3,6.6H168v14.1c-0.1,1.9-0.1,3.6,2.4,3.6l3.3-0.1V78c-2,0.3-3.2,0.5-4.9,0.5
		c-3.2,0-6.8-0.2-8.8-3.1c-1.3-1.9-1.3-4.1-1.3-7.2V39.9z"/>
	<g>
		<path class="st0" d="M266.5,53.1h-1.1v-5.6h-2.1v-1h5.4v1h-2.1V53.1z M275.5,53.1h-1.1l0-4.1l0.1-1.3l-0.3,1.1l-1.3,4.3h-1
			l-1.3-4.3l-0.3-1.1l0.1,1.3l0,4.1h-1.1v-6.6h1.6l1.6,5.2l1.6-5.2h1.6V53.1z"/>
	</g>
	<path class="st0" d="M207,70l-1.8,2.8c-1.7,2.4-4.8,6.2-13.8,6.2c-9.4,0-15.8-5.8-15.8-16.2c0-7.7,3.8-17.1,16.3-17.1
		c1.9,0,7.4-0.2,11.4,4.1c4.1,4.4,4.4,10.6,4.5,14.2h-22.7c-0.1,4,1.9,7.9,6.9,7.9c5.1,0,6.6-3.3,7.7-5.6L207,70z M198.3,58.3
		c-0.2-1.3-0.4-3.1-1.8-4.5c-1.2-1.2-2.9-1.8-4.6-1.8c-2.3,0-3.8,1.1-4.7,2.1c-1.3,1.4-1.6,2.9-1.9,4.2H198.3z"/>
	<polygon class="st0" points="238.9,78.2 227.3,61.5 237,46.5 226.3,46.5 221.8,53.6 216.8,46.5 206.2,46.5 216.6,61.5 205.8,78.2 
		216.5,78.2 222.2,69.5 228.3,78.2 	"/>
	<path class="st0" d="M65.1,49.3c0.9-1.4,3.8-3.6,8.3-3.6c7.8,0,13.3,5.9,13.3,16.5c0,6.5-2.4,16.8-13.7,16.8c-4.1,0-7.2-2.3-8-3.6
		v13.3h-9.4V46.5h9.4V49.3z M71.4,53.1c-1.7,0-3.5,0.7-4.8,2.4c-1.3,1.6-1.9,4.2-1.9,7c0,3.7,1.1,6,2.3,7.3c1.1,1.2,2.7,1.9,4.2,1.9
		c4.6,0,6.6-4.8,6.6-9.4c0-3.9-1.2-8-5-8.9C72.3,53.1,71.9,53.1,71.4,53.1z"/>
</g>
</svg>
