<?xml version="1.0" encoding="utf-8"?>
<!-- Generator: Adobe Illustrator 21.1.0, SVG Export Plug-In . SVG Version: 6.00 Build 0)  -->
<svg version="1.1" id="Layer_1" xmlns="http://www.w3.org/2000/svg" xmlns:xlink="http://www.w3.org/1999/xlink" x="0px" y="0px"
	 viewBox="0 0 291 125" style="enable-background:new 0 0 291 125;" xml:space="preserve">
<style type="text/css">
	.st0{fill:#231F20;}
	.st1{fill-rule:evenodd;clip-rule:evenodd;fill:#00A1DF;}
	.st2{fill-rule:evenodd;clip-rule:evenodd;fill:#FFFFFF;}
	.st3{fill:#00A1DF;}
</style>
<g>
	<path class="st0" d="M67.8,35.1c0,7-4,14.5-14.8,14.5c-7.7,0-14.9-4.4-14.9-14.5c0-8.4,5.3-15,15.9-14.4
		C65.4,21.4,67.8,30.1,67.8,35.1z M47.7,29.8c-1,1.6-1.4,3.4-1.4,5.3c0,4.3,2.1,8.2,6.7,8.2c4.4,0,6.5-3.6,6.5-7.8
		c0-3-0.8-5.3-2.3-6.8c-1.7-1.6-3.6-1.6-4.8-1.5C50.2,27.3,48.8,28.1,47.7,29.8z"/>
	<path class="st0" d="M140.1,23.8c0.8-0.9,1.3-1.5,2.8-2.2c1.3-0.5,3-1,5-1c1.7,0,3.5,0.3,5,1c2.9,1.6,3.7,4,3.7,8.4V49h-8.1V33.4
		c0-2.5-0.1-3.4-0.3-4.1c-0.6-1.5-2.1-2.1-3.7-2.1c-4.3,0-4.3,3.5-4.3,6.9v15H132V21.4h8.2L140.1,23.8L140.1,23.8z"/>
	<path class="st0" d="M128,41.8c-0.8,1.6-3.1,7.8-13.7,7.8c-8.2,0-14-5-14-14.1c0-6.7,3.3-14.9,14.2-14.9c1.7,0,6.4-0.2,9.9,3.6
		c3.6,3.8,3.8,9.2,3.9,12.4h-19.7c-0.1,3.5,1.9,6.9,6.3,6.9c4.4,0,6-2.9,7-4.9L128,41.8z M119.9,31.6c-0.2-1.1-0.3-2.7-1.6-3.9
		c-1-1-2.5-1.6-4-1.6c-2,0-3.3,1-4.1,1.8c-1.1,1.2-1.4,2.5-1.7,3.7H119.9z"/>
	<path class="st0" d="M241.3,27.1h5.4v-5.7h-5.3v-5.8h-8.1v5.8H232l-3.7,5.7h5v13.1c0,2.6,0.1,4.6,1.1,6.3c1.7,2.5,4.8,2.7,7.7,2.7
		c1.5,0,2.5-0.2,4.3-0.4v-6.4l-2.9,0.1c-2.2,0-2.2-1.4-2.1-3.1L241.3,27.1L241.3,27.1z"/>
	<path class="st0" d="M160.5,15.6h8.1v5.8h8.4l-3.7,5.7h-4.7v12.3c-0.1,1.7-0.1,3.1,2.1,3.1l2.9-0.1v6.3c-1.7,0.3-2.8,0.4-4.3,0.4
		c-2.8,0-5.9-0.2-7.7-2.7c-1.1-1.7-1.1-3.6-1.1-6.3V15.6z"/>
	<g>
		<path class="st0" d="M254.3,27.1h-1v-4.9h-1.8v-0.9h4.7v0.9h-1.8L254.3,27.1L254.3,27.1z M262.1,27.1h-1v-3.6l0.1-1.1l-0.3,1
			l-1.1,3.7H259l-1.1-3.7l-0.3-1l0.1,1.1v3.6h-1v-5.7h1.4l1.4,4.5l1.4-4.5h1.4v5.7H262.1z"/>
	</g>
	<path class="st0" d="M202.5,41.8l-1.6,2.4c-1.5,2.1-4.2,5.4-12,5.4c-8.2,0-13.7-5-13.7-14.1c0-6.7,3.3-14.9,14.2-14.9
		c1.7,0,6.4-0.2,9.9,3.6c3.6,3.8,3.8,9.2,3.9,12.4h-19.8c-0.1,3.5,1.7,6.9,6,6.9c4.4,0,5.7-2.9,6.7-4.9L202.5,41.8z M194.9,31.6
		c-0.2-1.1-0.3-2.7-1.6-3.9c-1-1-2.5-1.6-4-1.6c-2,0-3.3,1-4.1,1.8c-1.1,1.2-1.4,2.5-1.7,3.7H194.9z"/>
	<polygon class="st0" points="230.3,49 220.2,34.4 228.6,21.4 219.3,21.4 215.4,27.5 211,21.4 201.8,21.4 210.9,34.4 201.5,49 
		210.8,49 215.7,41.4 221,49 	"/>
	<path class="st0" d="M79,23.8c0.8-1.2,3.3-3.1,7.2-3.1c6.8,0,11.6,5.1,11.6,14.4c0,5.7-2.1,14.6-11.9,14.6c-3.6,0-6.3-2-7-3.1v11.6
		h-8.2V21.4H79L79,23.8L79,23.8z M84.5,27.1c-1.5,0-3,0.6-4.2,2.1c-1.1,1.4-1.7,3.7-1.7,6.1c0,3.2,1,5.2,2,6.4c1,1,2.3,1.7,3.7,1.7
		c4,0,5.7-4.2,5.7-8.2c0-3.4-1-7-4.4-7.7C85.3,27.1,85,27.1,84.5,27.1z"/>
</g>
<g>
	<polyline class="st1" points="104.8,114.4 157.9,114.4 209.8,62.5 104.8,62.5 104.8,114.4 	"/>
	<path class="st2" d="M167.7,87.4h-2.3V79h2.3c3,0,5.5,1,5.5,4.1C173.2,86.4,170.7,87.4,167.7,87.4 M143.2,93.3
		c-1.2,0-2.3-0.2-3.3-0.6l3.3-10.3h0.1l3.2,10.4C145.5,93.1,144.4,93.3,143.2,93.3L143.2,93.3z M167.1,72.3l-10.3,0v24.6l-9-24.6
		h-8.9l-7.7,20.5c-0.8-5.2-6.2-7-10.4-8.3c-2.8-0.9-5.7-2.2-5.7-3.7c0-1.2,1.6-2.3,4.7-2.1c2.1,0.1,3.9,0.3,7.6,2l3.6-6.2
		c-3.3-1.7-7.9-2.8-11.7-2.8h0c-4.4,0-8.1,1.4-10.3,3.8c-1.6,1.6-2.4,3.7-2.5,6c-0.1,3.2,1.1,5.4,3.5,7.2c2.1,1.5,4.7,2.5,7,3.2
		c2.9,0.9,5.2,1.7,5.2,3.3c0,0.6-0.2,1.2-0.7,1.6c-0.7,0.7-1.8,1-3.3,1c-2.9,0.1-5.1-0.4-8.6-2.4l-3.2,6.3c3.4,2,7.5,3.1,11.7,3.1
		l0.5,0c3.6-0.1,6.6-1.1,8.9-3c0.1-0.1,0.3-0.2,0.4-0.3l-1,2.8h9.4l1.6-4.8c1.6,0.6,3.5,0.9,5.5,0.9c1.9,0,3.8-0.3,5.4-0.8l1.5,4.7
		h15.3v-9.9h3.3c8.1,0,12.8-4.1,12.8-11C181.6,75.8,177,72.3,167.1,72.3L167.1,72.3z"/>
	<path class="st3" d="M172.5,110.8v-1.2h0.8c0.4,0,0.8,0.1,0.8,0.6c0,0.6-0.4,0.6-0.9,0.6H172.5L172.5,110.8z M172.5,111.3h0.7
		l1,1.7h0.7l-1.1-1.7c0.6-0.1,1-0.4,1-1.1c0-0.8-0.5-1.1-1.4-1.1h-1.5v3.9h0.6V111.3L172.5,111.3z M173.2,114.4
		c1.8,0,3.4-1.4,3.4-3.4c0-1.9-1.6-3.4-3.4-3.4c-1.8,0-3.4,1.4-3.4,3.4C169.8,113,171.3,114.4,173.2,114.4L173.2,114.4z M170.4,111
		c0-1.6,1.2-2.8,2.7-2.8c1.5,0,2.7,1.2,2.7,2.8c0,1.6-1.2,2.8-2.7,2.8C171.6,113.8,170.4,112.6,170.4,111L170.4,111z"/>
</g>
</svg>
