<?xml version="1.0" encoding="utf-8"?>
<!-- Generator: Adobe Illustrator 21.1.0, SVG Export Plug-In . SVG Version: 6.00 Build 0)  -->
<svg version="1.1" id="Layer_1" xmlns="http://www.w3.org/2000/svg" xmlns:xlink="http://www.w3.org/1999/xlink" x="0px" y="0px"
	 viewBox="0 0 291 125" style="enable-background:new 0 0 291 125;" xml:space="preserve">
<style type="text/css">
	.st0{fill:#231F20;}
</style>
<path class="st0" d="M32.1,77.4c-5.4,0-10.3-4.3-10.3-15c0-11.1,5.4-15,10.3-15c5,0,10.3,3.9,10.3,15C42.4,73.1,37.5,77.4,32.1,77.4
	 M32.4,79.1c8.8,0,15.9-6.4,15.9-16.7c0-11.2-7.9-16.8-15.9-16.8c-8,0-15.9,5.6-15.9,16.8C16.5,72.8,23.6,79.1,32.4,79.1z"/>
<path class="st0" d="M59.1,54.5c0-1.4,0.5-1.4,2-1.4c2.1,0,9.2,0.1,9.2,6c0,6.3-6.5,6.3-8.3,6.3c-1,0-2,0-2.9-0.1V54.5z M50.3,52.4
	c3.5,0.3,4.1,0.8,4.1,3.7v17.9c0,3,0,3.9-4.1,4.2v0.8h13.6v-0.8c-3.7-0.1-4.6-0.7-4.6-3.7v-7.5c1.2,0.1,2.1,0.1,3.2,0.1
	c5.1,0,8.2-0.7,10.3-2.4c0.8-0.7,3-2.3,3-5.6c0-5.2-6-7.4-12.7-7.4H50.3V52.4z"/>
<path class="st0" d="M102.6,78.9H76.4v-0.8c3.1-0.2,4.2-0.5,4.2-3.7V56.1c0-3.3-1.2-3.5-4.2-3.7v-0.8h25.8l0.1,5.9h-1.2
	c-0.7-3.7-2-4.3-7.4-4.3h-6.6c-1,0-1.6,0-1.6,1.4v9.2h7.5c4.3,0,4.8-1,5.3-3.9h1.1v9.6h-1.1c-0.6-3.3-1.3-3.9-5.3-3.9l-7.5-0.1v10.2
	c0,1.7,0,1.7,7.2,1.7c6.1,0,8.5-1.2,10.6-5.4h1.4L102.6,78.9z"/>
<path class="st0" d="M139.6,52.4c-3.1,0.3-4.6,0.5-4.6,5.3v21.7h-0.8l-21.3-22.6h-0.1v16.1c0,4.3,1,5.2,4.6,5.3v0.8h-11.4v-0.8
	c3.7-0.2,4.7-0.8,4.7-5.3V54.6c-2-2.1-2.8-2.3-4.7-2.3v-0.8h8.3l18.6,19.8h0.1V57.6c0-4.7-1.4-5.1-4.7-5.3v-0.8h11.4V52.4z"/>
<path class="st0" d="M164.5,78.9h-15.3v-0.8c4.8-0.2,4.9-1.4,5.2-5.3V48.6h-3.6c-5.8,0-7.2,1-8.3,6.7h-1.3l0.3-8.7h30.8l0.3,8.7
	h-1.2c-1.1-5.8-2.6-6.7-8.4-6.7h-3.4v24.8c0,3.6,0.6,4.6,5,4.7V78.9z"/>
<path class="st0" d="M200.2,78.9H174v-0.8c3.1-0.2,4.2-0.5,4.2-3.7V56.1c0-3.3-1.2-3.5-4.2-3.7v-0.8h25.8l0.1,5.9h-1.2
	c-0.7-3.7-2-4.3-7.4-4.3h-6.6c-1,0-1.6,0-1.6,1.4v9.2h7.5c4.3,0,4.8-1,5.3-3.9h1.1v9.6H196c-0.6-3.3-1.3-3.9-5.3-3.9l-7.5-0.1v10.2
	c0,1.7,0,1.7,7.2,1.7c6.1,0,8.5-1.2,10.6-5.4h1.4L200.2,78.9z"/>
<path class="st0" d="M236,52.4c-2.6,0.2-3.8,0.3-7.2,3.9l-7.1,7.5L231,75c1.9,2.3,2.9,2.8,5.4,3.1v0.8H222v-0.8
	c2.4-0.1,3.7-0.1,3.7-1.4c0-0.7-1.7-3-2.5-3.9l-4.6-5.8l-5.8,6.1c-1,1.1-2.5,2.7-2.5,3.5c0,1.3,1.8,1.4,3.7,1.5v0.8h-11.3v-0.8
	c2.7-0.2,3.2-0.7,7-4.7l7.6-8l-5.3-6.6c-4.9-6.2-6-6.3-8.8-6.5v-0.8H218v0.8c-2.5,0-3.7,0.1-3.7,1.3c0,0.8,0.9,2.2,4.1,6.1l2,2.4
	l5.5-5.7c1.1-1.2,1.9-2,1.9-2.8c0-1.3-1.8-1.3-3.4-1.4v-0.8H236V52.4z"/>
<path class="st0" d="M258.1,78.9h-14.2v-0.8c4.4-0.2,4.6-1.1,4.6-4.2V53.3h-1.8c-5.3,0-6.7,0.8-7.7,5.3h-1.2l0.3-7h25.7l0.3,7h-1.2
	c-1-4.5-2.4-5.3-7.7-5.3h-1.8v21.1c0,2.8,0.6,3.6,4.7,3.7V78.9z"/>
<polygon class="st0" points="269.5,46.7 269.5,47.2 268,47.2 268,51.3 267.4,51.3 267.4,47.2 265.8,47.2 265.8,46.7 "/>
<path class="st0" d="M270.1,46.7h0.9l1.3,3.9l1.3-3.9h0.9v4.6h-0.6v-2.7c0-0.1,0-0.2,0-0.5c0-0.2,0-0.4,0-0.7l-1.3,3.9H272l-1.3-3.9
	v0.1c0,0.1,0,0.3,0,0.5c0,0.2,0,0.4,0,0.5v2.7h-0.6V46.7z"/>
</svg>
