<?xml version="1.0" encoding="utf-8"?>
<!-- Generator: Adobe Illustrator 21.1.0, SVG Export Plug-In . SVG Version: 6.00 Build 0)  -->
<svg version="1.1" id="Layer_1" xmlns="http://www.w3.org/2000/svg" xmlns:xlink="http://www.w3.org/1999/xlink" x="0px" y="0px"
	 viewBox="0 0 291 125" style="enable-background:new 0 0 291 125;" xml:space="preserve">
<style type="text/css">
	.st0{fill:#008CC1;}
	.st1{fill:#FFFFFF;}
</style>
<polygon class="st0" points="561.3,313.4 498.9,326.7 494,304 556.5,290.7 556.5,290.7 "/>
<path class="st1" d="M537.5,314.5l0.3-0.1c0,0-0.3-1.3-0.3-1.4c0.1,0.1,1.4,1.2,1.4,1.2l0.4-0.1l-0.4-1.9l-0.3,0.1
	c0,0,0.3,1.3,0.3,1.4c-0.1-0.1-1.4-1.2-1.4-1.2l-0.4,0.1L537.5,314.5z"/>
<path class="st1" d="M539.7,314l1.5-0.3l-0.1-0.3c0,0-1.2,0.2-1.2,0.3l-0.1-0.5l1.2-0.2l-0.1-0.3l-1.2,0.2c0-0.1-0.1-0.4-0.1-0.5
	c0.1,0,1.2-0.3,1.2-0.3l-0.1-0.3l-1.5,0.3L539.7,314z"/>
<path class="st1" d="M541.2,312c0,0,0.6-0.1,0.7-0.1c0,0.1,0.3,1.6,0.3,1.6l0.3-0.1c0,0-0.3-1.6-0.3-1.6c0.1,0,0.7-0.1,0.7-0.1
	l-0.1-0.3l-1.7,0.4L541.2,312z"/>
<path class="st1" d="M544.2,313.1l0.3-0.1c0,0,0.1-1.4,0.2-1.6c0.1,0.1,0.8,1.4,0.8,1.4l0.3-0.1l0.2-2.1l-0.3,0.1
	c0,0-0.1,1.4-0.1,1.5c-0.1-0.1-0.8-1.3-0.8-1.3l-0.4,0.1c0,0-0.1,1.4-0.2,1.5c-0.1-0.1-0.7-1.3-0.7-1.3l-0.4,0.1L544.2,313.1z"/>
<path class="st1" d="M547.2,310.4c-0.3,0.1-0.6,0.2-0.7,0.4c-0.1,0.2-0.2,0.5-0.1,0.8c0.1,0.3,0.2,0.5,0.4,0.7
	c0.2,0.1,0.5,0.2,0.8,0.1c0.8-0.2,0.9-0.8,0.8-1.2C548.3,310.7,547.9,310.2,547.2,310.4 M547,312c-0.1-0.1-0.2-0.3-0.3-0.5l0,0
	c0-0.2,0-0.4,0.1-0.5c0.1-0.2,0.3-0.3,0.5-0.3l0,0c0.4-0.1,0.8,0.1,0.9,0.6c0.1,0.4-0.1,0.8-0.6,0.9
	C547.3,312.1,547.1,312.1,547,312z"/>
<path class="st1" d="M549,312l0.3-0.1c0,0-0.2-0.7-0.2-0.8l0.7-0.1c0.2,0,0.3,0,0.4,0.3l0,0.1c0.1,0.2,0.1,0.3,0.1,0.3l0,0l0.4-0.1
	l-0.1,0c-0.1-0.1-0.1-0.1-0.2-0.5c-0.1-0.2-0.2-0.3-0.3-0.4c0.1-0.1,0.2-0.3,0.2-0.5c-0.1-0.2-0.2-0.5-0.6-0.4l-1.2,0.2L549,312z
	 M549,310.4c0.1,0,0.7-0.2,0.7-0.2c0.2,0,0.3,0,0.3,0.2c0,0.1,0,0.3-0.2,0.3c0,0-0.7,0.1-0.7,0.2C549.1,310.8,549,310.4,549,310.4z"
	/>
<path class="st1" d="M551.2,311.6l0.3-0.1c0,0-0.1-0.6-0.1-0.6c0,0,0.2-0.3,0.2-0.3c0.1,0,0.9,0.7,0.9,0.7l0.5-0.1
	c0,0-1.1-0.9-1.2-0.9c0-0.1,0.7-1,0.7-1l-0.5,0.1c0,0-0.7,1-0.8,1.1l-0.2-0.9l-0.3,0.1L551.2,311.6z"/>
<path class="st1" d="M552.9,309.8c0.1,0.4,0.5,0.4,0.7,0.4l0.4,0c0.2,0,0.3,0,0.4,0.2c0,0.1,0,0.1,0,0.2c-0.1,0.1-0.2,0.2-0.4,0.2
	c-0.2,0-0.6,0.1-0.6-0.3l0,0l-0.3,0.1l0,0c0,0.2,0.1,0.3,0.3,0.4c0.2,0.2,0.5,0.1,0.7,0.1c0.2,0,0.5-0.1,0.6-0.4
	c0.1-0.1,0.1-0.3,0.1-0.5c-0.1-0.4-0.5-0.4-0.7-0.4c0,0-0.5,0-0.5,0c-0.3,0-0.3-0.1-0.3-0.2c0-0.1,0-0.1,0-0.2
	c0.1-0.1,0.2-0.2,0.3-0.2c0.4-0.1,0.5,0.1,0.6,0.2l0,0l0.3-0.1l0,0c-0.1-0.4-0.4-0.5-0.9-0.4C553.1,309.1,552.9,309.4,552.9,309.8"
	/>
<path class="st1" d="M519.8,307.9c-0.4-0.3-1-0.4-1.5-0.2c-0.6,0.1-1.1,0.4-1.4,1l-0.1-0.4c-0.2-0.1-0.4-0.2-0.6-0.2
	c-0.2,0.1-0.4,0.2-0.5,0.4l1.7,8.2l1.2-0.3l-0.6-3c0.5,0.4,1.1,0.5,1.7,0.4c0.6-0.1,1.1-0.4,1.3-0.8c0.5-0.7,0.3-1.8,0.1-2.7
	C520.8,309.4,520.5,308.4,519.8,307.9 M519,312.8c-1.1,0.2-1.4-0.7-1.7-1.7c-0.2-1.1-0.3-2,0.8-2.3c1.1-0.2,1.4,0.7,1.6,1.7
	C520,311.6,520.1,312.6,519,312.8z"/>
<path class="st1" d="M526,312.4l-0.1-0.5c-0.3,0.5-0.7,0.8-1.4,0.9c-0.7,0.2-1.3,0.1-1.7-0.2c-0.4-0.3-0.6-0.7-0.7-1.2
	c-0.2-1,0.3-1.9,1.7-2.2l1.6-0.3l-0.1-0.4c-0.2-0.8-0.6-1-1.5-0.9c-0.6,0.1-0.9,0.4-1.2,0.9l-0.9-0.6c0.4-0.8,0.9-1.1,1.9-1.3
	c1.6-0.3,2.6,0.2,2.9,1.5l0.9,4L526,312.4z M525.4,309.8l-1.4,0.3c-0.7,0.1-1,0.5-0.9,1.1c0.1,0.5,0.5,0.8,1.3,0.6
	c0.5-0.1,0.8-0.2,1-0.6c0.1-0.2,0.2-0.5,0.1-0.9L525.4,309.8z"/>
<path class="st1" d="M529.9,310.5c-0.5,0.1-0.7-0.1-0.8-0.6l-1.4-6.7c-0.2-0.2-0.4-0.2-0.7-0.2c-0.2,0.1-0.4,0.2-0.5,0.4l1.4,6.8
	c0.2,0.9,0.8,1.6,2,1.3l0.7-0.2l-0.2-1L529.9,310.5z"/>
<path class="st1" d="M535.1,309.8c-0.3,0.5-0.8,0.9-1.6,1.1c-0.8,0.2-1.4,0-1.9-0.3c-0.7-0.5-1-1.2-1.2-2.2c-0.2-1-0.2-1.8,0.2-2.5
	c0.3-0.5,0.8-0.9,1.6-1.1c0.8-0.2,1.4,0,1.9,0.3c0.7,0.5,1,1.2,1.2,2.2C535.5,308.3,535.5,309.1,535.1,309.8 M533.4,306
	c-0.3-0.2-0.6-0.2-0.9-0.2c-0.3,0.1-0.6,0.3-0.8,0.5c-0.3,0.4-0.2,1.1-0.1,1.7c0.1,0.7,0.3,1.3,0.8,1.6c0.3,0.2,0.6,0.2,0.9,0.2
	c0.3-0.1,0.6-0.3,0.8-0.5c0.3-0.4,0.2-1.1,0.1-1.7C534,306.9,533.8,306.3,533.4,306z"/>
<path class="st1" d="M544.3,307.4c-0.5,0.1-0.7-0.1-0.8-0.6l-1.4-6.7c-0.2-0.2-0.4-0.2-0.7-0.2c-0.2,0.1-0.4,0.2-0.5,0.4l1.4,6.8
	c0.2,0.9,0.8,1.6,2,1.3l0.7-0.2l-0.2-1L544.3,307.4z"/>
<path class="st1" d="M540.2,309.4l-0.1-0.5c-0.3,0.5-0.7,0.8-1.4,0.9c-0.7,0.2-1.3,0.1-1.7-0.2c-0.4-0.3-0.6-0.7-0.7-1.2
	c-0.2-1,0.3-1.9,1.7-2.2l1.6-0.3l-0.1-0.4c-0.2-0.8-0.6-1-1.5-0.9c-0.6,0.1-0.9,0.4-1.2,0.9l-0.9-0.6c0.4-0.8,0.9-1.1,1.9-1.3
	c1.6-0.3,2.6,0.2,2.9,1.5l0.9,4L540.2,309.4z M539.7,306.7l-1.4,0.3c-0.7,0.1-1,0.5-0.9,1.1c0.1,0.5,0.5,0.8,1.3,0.6
	c0.5-0.1,0.8-0.2,1-0.6c0.1-0.2,0.2-0.5,0.1-0.9L539.7,306.7z"/>
<path class="st1" d="M547.3,302.7l-0.2-0.9L546,302l-0.4-1.8c-0.2-0.2-0.4-0.2-0.7-0.2c-0.2,0.1-0.4,0.2-0.5,0.4l0.4,1.8l-0.7,0.1
	l0.2,0.9l0.7-0.1l0.7,3.3c0.2,0.9,0.9,1.6,2,1.3l0.7-0.1l-0.2-1l-0.5,0.1c-0.4,0.1-0.7-0.1-0.8-0.6l-0.7-3.2L547.3,302.7z"/>
<path class="st1" d="M553.1,306c-0.3,0.5-0.8,0.9-1.6,1.1c-0.8,0.2-1.4,0-1.9-0.3c-0.7-0.5-1-1.2-1.2-2.2c-0.2-1-0.2-1.8,0.2-2.5
	c0.3-0.5,0.8-0.9,1.6-1.1c0.8-0.2,1.4,0,1.9,0.3c0.7,0.5,1,1.2,1.2,2.2C553.5,304.5,553.5,305.3,553.1,306 M551.4,302.1
	c-0.3-0.2-0.6-0.2-0.9-0.2c-0.3,0.1-0.6,0.3-0.8,0.5c-0.3,0.4-0.2,1.1-0.1,1.7c0.1,0.7,0.3,1.3,0.8,1.6c0.3,0.2,0.6,0.2,0.9,0.2
	c0.3-0.1,0.6-0.3,0.8-0.5c0.3-0.4,0.2-1.1,0.1-1.7C552,303,551.8,302.4,551.4,302.1z"/>
<path class="st1" d="M555.7,309.8c-0.3,0.1-0.6-0.1-0.7-0.5c-0.1-0.3,0.1-0.6,0.4-0.7c0.3-0.1,0.6,0.1,0.7,0.5
	C556.2,309.5,556,309.8,555.7,309.8 M555.5,308.8c-0.3,0.1-0.4,0.3-0.4,0.6c0.1,0.3,0.3,0.5,0.6,0.4c0.3-0.1,0.4-0.3,0.4-0.6
	C556,308.9,555.7,308.7,555.5,308.8z M555.8,309.5l-0.2-0.2l-0.1,0l0.1,0.3l-0.1,0l-0.1-0.6l0.2,0c0.1,0,0.2,0,0.2,0.1
	c0,0.1,0,0.2-0.1,0.2l0.2,0.2L555.8,309.5z M555.5,309l-0.1,0l0,0.2l0.1,0c0.1,0,0.1-0.1,0.1-0.1C555.7,309,555.6,309,555.5,309z"/>
<path class="st1" d="M512.8,312.3c0-0.3,0.2-0.5,0.4-0.6l-0.8-3.8c-0.2-1-1.2-1.6-2.1-1.4l-7.7,1.6c-1,0.2-1.6,1.2-1.4,2.1l1.7,7.8
	c0.2,1,1.2,1.6,2.1,1.4l7.7-1.6c1-0.2,1.6-1.2,1.4-2.1l-0.5-2.5c-0.1,0.1-0.2,0.1-0.2,0.1c-0.3,0.1-0.5-0.1-0.5-0.4L512.8,312.3z
	 M503.8,315.2l0,0.6c0,0.3-0.2,0.6-0.5,0.6c-0.3,0.1-0.5-0.1-0.5-0.4l0-0.6c0-0.3,0.2-0.6,0.5-0.6
	C503.6,314.7,503.8,314.9,503.8,315.2z M505.5,314.8l0.1,2.3c0,0.3-0.2,0.6-0.5,0.6c-0.3,0.1-0.5-0.1-0.5-0.4l-0.1-2.3
	c0-0.3,0.2-0.6,0.5-0.6C505.3,314.4,505.5,314.5,505.5,314.8z M507.1,313.4l0.2,4.3c0,0.3-0.2,0.6-0.5,0.6c-0.3,0.1-0.5-0.1-0.5-0.4
	l-0.2-4.3c0-0.3,0.2-0.6,0.5-0.6C506.9,313,507.1,313.2,507.1,313.4z M508.7,311l0.2,5.9c0,0.3-0.2,0.6-0.5,0.6
	c-0.3,0.1-0.5-0.1-0.5-0.4l-0.2-5.9c0-0.3,0.2-0.6,0.5-0.6C508.5,310.6,508.7,310.7,508.7,311z M510.3,310.1l0.2,4.3
	c0,0.3-0.2,0.6-0.5,0.6c-0.3,0.1-0.5-0.1-0.5-0.4l-0.2-4.3c0-0.3,0.2-0.6,0.5-0.6C510.1,309.7,510.3,309.8,510.3,310.1z M512,310.8
	l0.1,2.3c0,0.3-0.2,0.6-0.5,0.6c-0.3,0.1-0.5-0.1-0.5-0.4l-0.1-2.3c0-0.3,0.2-0.6,0.5-0.6C511.8,310.3,512,310.5,512,310.8z"/>
<polygon class="st0" points="239,76.2 65.5,113.1 52.1,50.1 225.6,13.2 225.6,13.2 "/>
<path class="st1" d="M172.8,79.2l0.9-0.2c0,0-0.7-3.5-0.8-4c0.3,0.3,4,3.3,4,3.3l1-0.2l-1.1-5.3l-0.9,0.2c0,0,0.7,3.5,0.8,4
	c-0.3-0.3-4-3.3-4-3.3l-1,0.2L172.8,79.2z"/>
<path class="st1" d="M179,77.9l4.3-0.9l-0.2-0.8c0,0-3.2,0.7-3.4,0.7l-0.3-1.5l3.2-0.7l-0.2-0.8l-3.2,0.7c0-0.2-0.2-1.2-0.3-1.3
	c0.2,0,3.3-0.7,3.3-0.7l-0.2-0.8l-4.2,0.9L179,77.9z"/>
<path class="st1" d="M183.2,72.3c0,0,1.7-0.4,1.9-0.4c0,0.2,1,4.5,1,4.5l0.9-0.2c0,0-0.9-4.3-1-4.5c0.2,0,1.9-0.4,1.9-0.4l-0.2-0.8
	l-4.7,1L183.2,72.3z"/>
<path class="st1" d="M191.4,75.3l1-0.2c0,0,0.4-3.9,0.5-4.4c0.2,0.4,2.2,3.8,2.2,3.8l0.9-0.2l0.6-5.7l-1,0.2c0,0-0.3,3.8-0.4,4.3
	c-0.2-0.4-2.2-3.7-2.2-3.7l-1,0.2c0,0-0.4,3.8-0.4,4.3c-0.2-0.4-2.1-3.7-2.1-3.7l-1,0.2L191.4,75.3z"/>
<path class="st1" d="M199.7,67.8c-0.9,0.2-1.6,0.6-2,1.2c-0.4,0.6-0.5,1.4-0.3,2.2c0.2,0.8,0.6,1.5,1.2,1.8c0.6,0.4,1.4,0.5,2.3,0.3
	c2.1-0.5,2.6-2.1,2.3-3.4C202.9,68.7,201.8,67.4,199.7,67.8 M199.1,72.3c-0.4-0.3-0.7-0.7-0.8-1.3l0,0c-0.1-0.6-0.1-1.1,0.2-1.5
	c0.3-0.4,0.7-0.7,1.3-0.9l0,0c1.2-0.3,2.1,0.3,2.4,1.5c0.3,1.2-0.3,2.1-1.5,2.4C200.1,72.7,199.6,72.6,199.1,72.3z"/>
<path class="st1" d="M204.8,72.4l0.9-0.2c0,0-0.4-2-0.5-2.2l1.9-0.4c0.5-0.1,0.9,0,1.1,0.9l0,0.2c0.1,0.5,0.2,0.7,0.4,0.8l0,0l1-0.2
	l-0.2-0.1c-0.2-0.2-0.3-0.4-0.5-1.3c-0.1-0.6-0.5-0.9-0.9-1c0.4-0.3,0.6-0.8,0.5-1.4c-0.1-0.7-0.7-1.4-1.8-1.2l-3.2,0.7L204.8,72.4z
	 M204.8,67.8c0.2,0,2-0.4,2-0.4c0.5-0.1,0.9,0.1,1,0.6c0.1,0.3,0,0.7-0.7,0.9c0,0-1.8,0.4-2,0.4C205,69.1,204.8,67.9,204.8,67.8z"/>
<path class="st1" d="M210.8,71.2l0.9-0.2c0,0-0.4-1.7-0.4-1.7c0-0.1,0.6-0.8,0.7-0.9c0.1,0.1,2.6,2,2.6,2l1.3-0.3
	c0,0-3.1-2.4-3.2-2.6c0.1-0.1,2-2.8,2-2.8l-1.3,0.3c0,0-1.9,2.7-2.2,3l-0.5-2.5l-0.9,0.2L210.8,71.2z"/>
<path class="st1" d="M215.7,66.1c0.2,1.2,1.5,1.1,1.9,1.1l1.2,0c0.6,0,0.9,0.1,1,0.5c0,0.2,0,0.3-0.1,0.5c-0.2,0.3-0.5,0.5-1,0.6
	c-0.6,0.1-1.5,0.2-1.8-0.7l0-0.1l-0.9,0.2l0,0.1c0.1,0.5,0.4,0.9,0.7,1.2c0.6,0.4,1.5,0.4,2.1,0.2c0.5-0.1,1.3-0.4,1.7-1
	c0.2-0.4,0.3-0.8,0.2-1.3c-0.2-1.1-1.5-1.1-1.9-1.1c0,0-1.3,0-1.3,0c-0.7,0-0.8-0.2-0.9-0.4c0-0.2,0-0.3,0.1-0.5
	c0.1-0.2,0.5-0.4,0.8-0.5c1.1-0.2,1.5,0.2,1.6,0.6l0,0.1l0.9-0.2l0-0.1c-0.3-1.1-1.2-1.5-2.6-1.2C216.2,64.3,215.5,65.1,215.7,66.1"
	/>
<path class="st1" d="M123.7,61c-1.1-0.7-2.7-1-4.3-0.6c-1.8,0.4-3,1.1-3.9,2.9l-0.2-1c-0.5-0.4-1.1-0.6-1.8-0.5
	c-0.7,0.1-1.2,0.6-1.4,1.2l4.8,22.7l3.3-0.7l-1.8-8.5c1.5,1.2,2.9,1.4,4.7,1c1.6-0.3,2.9-1.2,3.6-2.3c1.3-2,0.9-4.9,0.3-7.5
	C126.5,65.1,125.7,62.3,123.7,61 M121.5,74.6c-3,0.6-4-1.9-4.6-4.8c-0.6-3-0.7-5.6,2.2-6.3c3-0.6,3.9,1.9,4.6,4.8
	C124.3,71.3,124.5,74,121.5,74.6z"/>
<path class="st1" d="M140.8,73.4l-0.3-1.5c-0.9,1.5-2,2.2-4,2.6c-2,0.4-3.5,0.2-4.7-0.6c-1-0.7-1.8-1.9-2.1-3.3
	c-0.6-2.8,0.9-5.2,4.6-6l4.3-0.9l-0.3-1.2c-0.4-2.1-1.7-2.9-4.2-2.4c-1.8,0.4-2.6,1-3.2,2.4l-2.6-1.6c1.2-2.2,2.6-3.1,5.3-3.7
	c4.5-0.9,7.1,0.5,7.9,4.3l2.4,11.2L140.8,73.4z M139.1,66.1l-3.8,0.8c-1.9,0.4-2.7,1.5-2.4,3c0.3,1.5,1.4,2.2,3.5,1.7
	c1.3-0.3,2.2-0.6,2.9-1.6c0.4-0.6,0.4-1.4,0.2-2.6L139.1,66.1z"/>
<path class="st1" d="M151.7,68.1c-1.3,0.3-1.9-0.3-2.2-1.6l-4-18.6c-0.5-0.4-1.2-0.6-1.8-0.5c-0.7,0.1-1.2,0.6-1.5,1.2l4,18.8
	c0.5,2.5,2.3,4.3,5.5,3.7l2-0.4l-0.6-2.9L151.7,68.1z"/>
<path class="st1" d="M166.2,66.2c-0.8,1.3-2.2,2.5-4.5,3c-2.2,0.5-4-0.1-5.3-0.9c-1.9-1.3-2.7-3.3-3.3-6.2c-0.6-2.8-0.7-5,0.5-7
	c0.8-1.3,2.2-2.5,4.4-3c2.2-0.5,4,0,5.3,0.9c1.9,1.3,2.7,3.3,3.3,6.1C167.3,62,167.4,64.2,166.2,66.2 M161.3,55.5
	c-0.7-0.5-1.7-0.6-2.6-0.4c-1,0.2-1.7,0.7-2.2,1.5c-0.8,1.2-0.5,3-0.2,4.8c0.4,1.8,0.9,3.5,2.1,4.3c0.7,0.5,1.6,0.7,2.6,0.5
	c1-0.2,1.7-0.7,2.2-1.5c0.8-1.2,0.5-3,0.2-4.8C163,58.1,162.5,56.4,161.3,55.5z"/>
<path class="st1" d="M191.8,59.6c-1.3,0.3-1.9-0.3-2.2-1.6l-4-18.6c-0.5-0.4-1.2-0.6-1.8-0.5c-0.7,0.1-1.2,0.6-1.5,1.2l4,18.8
	c0.5,2.5,2.3,4.3,5.5,3.7l2-0.4l-0.6-2.9L191.8,59.6z"/>
<path class="st1" d="M180.5,65l-0.3-1.5c-0.9,1.5-2,2.2-4,2.6c-2,0.4-3.5,0.2-4.7-0.6c-1-0.7-1.7-1.9-2-3.3c-0.6-2.8,0.9-5.2,4.6-6
	l4.3-0.9l-0.3-1.2c-0.4-2.1-1.7-2.9-4.2-2.4c-1.8,0.4-2.6,1-3.2,2.4l-2.6-1.6c1.2-2.2,2.6-3.1,5.3-3.7c4.5-1,7.1,0.5,7.9,4.3
	l2.4,11.2L180.5,65z M178.8,57.6l-3.8,0.8c-1.9,0.4-2.7,1.5-2.4,3c0.3,1.5,1.4,2.2,3.5,1.7c1.3-0.3,2.2-0.6,2.9-1.6
	c0.4-0.6,0.4-1.4,0.2-2.6L178.8,57.6z"/>
<path class="st1" d="M200,46.4l-0.5-2.6l-3.2,0.7l-1.1-5.1c-0.5-0.4-1.2-0.6-1.8-0.5c-0.7,0.1-1.2,0.6-1.5,1.2l1.1,5.1l-1.9,0.4
	l0.5,2.6l1.9-0.4l2,9.2c0.5,2.4,2.4,4.3,5.5,3.7l2-0.4l-0.6-2.9l-1.4,0.3c-1.2,0.3-2-0.3-2.2-1.6l-1.9-9L200,46.4z"/>
<path class="st1" d="M216.2,55.5c-0.8,1.3-2.2,2.5-4.5,3c-2.2,0.5-4,0-5.3-0.9c-1.9-1.3-2.7-3.3-3.3-6.2c-0.6-2.8-0.7-5,0.5-7
	c0.8-1.3,2.2-2.5,4.4-3c2.2-0.5,4,0,5.3,0.9c1.9,1.3,2.7,3.3,3.3,6.1C217.4,51.4,217.4,53.6,216.2,55.5 M211.4,44.9
	c-0.7-0.5-1.7-0.6-2.6-0.4c-1,0.2-1.7,0.7-2.2,1.5c-0.8,1.2-0.5,3-0.2,4.8c0.4,1.8,0.9,3.5,2.1,4.3c0.7,0.5,1.6,0.7,2.6,0.5
	c1-0.2,1.7-0.7,2.2-1.5c0.8-1.2,0.5-3,0.2-4.8C213.1,47.4,212.6,45.7,211.4,44.9z"/>
<path class="st1" d="M223.4,66.3c-0.9,0.2-1.7-0.4-1.9-1.3c-0.2-0.9,0.4-1.8,1.2-2c0.9-0.2,1.7,0.4,1.9,1.3
	C224.9,65.2,224.3,66.1,223.4,66.3 M222.8,63.3c-0.7,0.2-1.2,0.9-1,1.7c0.2,0.8,0.9,1.3,1.6,1.1c0.7-0.2,1.2-0.9,1-1.7
	C224.3,63.6,223.5,63.1,222.8,63.3z M223.7,65.5l-0.5-0.6l-0.3,0.1l0.2,0.7l-0.2,0.1l-0.4-1.8l0.6-0.1c0.3-0.1,0.6,0.1,0.7,0.4
	c0.1,0.3-0.1,0.5-0.3,0.6l0.6,0.7L223.7,65.5z M223,64l-0.3,0.1l0.1,0.6l0.3-0.1c0.2,0,0.3-0.2,0.3-0.4C223.4,64,223.2,63.9,223,64z
	"/>
<path class="st1" d="M104.2,73c0-0.8,0.5-1.5,1.2-1.7l-2.2-10.5c-0.6-2.7-3.2-4.5-5.9-3.9l-21.4,4.6c-2.7,0.6-4.4,3.2-3.8,6
	l4.6,21.7c0.6,2.7,3.2,4.5,5.9,3.9l21.4-4.6c2.7-0.6,4.4-3.2,3.8-6l-1.5-6.8c-0.2,0.2-0.4,0.3-0.7,0.3c-0.8,0.2-1.4-0.4-1.4-1.1
	L104.2,73z M79.3,81.2l0.1,1.8c0,0.8-0.6,1.6-1.3,1.7c-0.7,0.2-1.4-0.3-1.4-1.1l-0.1-1.8c0-0.8,0.5-1.6,1.3-1.7
	C78.7,79.9,79.3,80.4,79.3,81.2z M83.9,80.2l0.2,6.3c0,0.8-0.6,1.6-1.3,1.7c-0.8,0.2-1.4-0.3-1.4-1.1l-0.2-6.3
	c0-0.8,0.6-1.6,1.3-1.7C83.3,78.9,83.9,79.4,83.9,80.2z M88.4,76.3l0.5,12.1c0,0.8-0.6,1.6-1.3,1.7c-0.8,0.2-1.4-0.3-1.4-1.1
	l-0.5-12.1c0-0.8,0.6-1.6,1.3-1.7C87.8,75,88.4,75.5,88.4,76.3z M92.8,69.6l0.6,16.3c0,0.8-0.6,1.5-1.3,1.7
	c-0.7,0.2-1.4-0.3-1.4-1.1l-0.6-16.3c0-0.8,0.6-1.5,1.3-1.7C92.2,68.3,92.8,68.8,92.8,69.6z M97.4,67.1l0.5,12.1
	c0,0.8-0.6,1.6-1.3,1.7c-0.7,0.2-1.4-0.3-1.4-1.1l-0.5-12.1c0-0.8,0.6-1.6,1.3-1.7C96.7,65.8,97.3,66.3,97.4,67.1z M102.1,69
	l0.2,6.3c0,0.8-0.6,1.6-1.3,1.7c-0.7,0.2-1.4-0.3-1.4-1.1l-0.2-6.3c0-0.8,0.6-1.6,1.3-1.7C101.4,67.7,102.1,68.2,102.1,69z"/>
</svg>
