<?xml version="1.0" encoding="utf-8"?>
<!-- Generator: Adobe Illustrator 21.1.0, SVG Export Plug-In . SVG Version: 6.00 Build 0)  -->
<svg version="1.1" id="Layer_1" xmlns="http://www.w3.org/2000/svg" xmlns:xlink="http://www.w3.org/1999/xlink" x="0px" y="0px"
	 viewBox="0 0 291 125" style="enable-background:new 0 0 291 125;" xml:space="preserve">
<style type="text/css">
	.st0{fill-rule:evenodd;clip-rule:evenodd;fill:#FF671B;}
</style>
<path class="st0" d="M37.7,49.9h9.2v4.9c3.8-3.3,6.9-5.4,12.2-5.4v9.8c-0.9-0.4-1.8-0.5-2.8-0.5c-3.9,0-9.4,2.4-9.4,10v27.3h-9.2
	V49.9z"/>
<path class="st0" d="M62.9,35.9c0-2.5,2.1-4.6,4.6-4.6c2.5,0,4.6,2.1,4.6,4.6c0,2.5-2.1,4.6-4.6,4.6C65,40.6,62.9,38.5,62.9,35.9"/>
<rect x="62.9" y="49.9" class="st0" width="9.2" height="45.9"/>
<polygon class="st0" points="96,95.8 87.8,95.8 75.9,49.9 85.6,49.9 91.8,79.3 92,79.3 98.1,49.9 107.9,49.9 "/>
<path class="st0" d="M118.1,76.4v6.2c0,2.9,1.7,4.5,4.5,4.5c3.5,0,4.4-2.6,4.5-4.6h9.2c0,3.8-1.4,7.3-3.7,9.8
	c-2.4,2.5-5.8,4.1-10.1,4.1c-5.6,0-9.9-2.6-12-6.6c-1.3-2.4-1.7-5.6-1.7-9.3V65.3c0-3.7,0.5-7,1.7-9.3c2.2-4,6.4-6.6,12-6.6
	c8.5,0,13.8,6.2,13.8,14.3v12.7H118.1z M118.1,69.1h9.1v-5.3c0-3.4-1.7-5.3-4.5-5.3c-2.8,0-4.5,1.8-4.5,5.3V69.1z"/>
<path class="st0" d="M140.2,49.9h9.2v4.9c3.8-3.3,6.9-5.4,12.2-5.4v9.8c-0.9-0.4-1.8-0.5-2.8-0.5c-3.9,0-9.4,2.4-9.4,10v27.3h-9.2
	V49.9z"/>
<path class="st0" d="M165.3,31.3h9.2v22.7h0.2c2-3,4.9-4.7,8.5-4.7c4.4,0,6.7,1.7,8.2,4.2c1.2,1.9,1.4,4.5,1.4,11.1v17.5
	c0,5.1-0.5,7.9-1.5,9.9c-1.6,3-4.3,4.4-8.1,4.4c-4.6,0-6.4-2.1-8.8-4.7v4.2h-9.2V31.3z M183.7,64c0-2.9-1-5.4-4.5-5.4
	c-2.6,0-4.6,2.1-4.6,5v17.9c0,3.4,1.8,5.7,4.6,5.7c3.2,0,4.5-2.5,4.5-6.3V64z"/>
<path class="st0" d="M206,76.4v6.2c0,2.9,1.7,4.5,4.5,4.5c3.5,0,4.4-2.6,4.5-4.6h9.2c0,3.8-1.4,7.3-3.7,9.8
	c-2.4,2.5-5.8,4.1-10.1,4.1c-5.6,0-9.9-2.6-12-6.6c-1.3-2.4-1.7-5.6-1.7-9.3V65.3c0-3.7,0.5-7,1.7-9.3c2.2-4,6.4-6.6,12-6.6
	c8.5,0,13.8,6.2,13.8,14.3l0,12.7H206z M206,69.1h9.1v-5.3c0-3.4-1.7-5.3-4.5-5.3c-2.8,0-4.5,1.8-4.5,5.3V69.1z"/>
<path class="st0" d="M246.4,91.7c-2.4,2.6-4.2,4.7-8.8,4.7c-3.7,0-6.4-1.4-8.1-4.4c-1.1-2-1.5-4.8-1.5-9.9V64.7
	c0-6.6,0.3-9.2,1.5-11.1c1.5-2.4,3.8-4.2,8.2-4.2c3.6,0,6.5,1.7,8.5,4.7h0.2V31.3h9.2v64.5h-9.2V91.7z M237.3,80.9
	c0,3.7,1.4,6.3,4.5,6.3c2.8,0,4.6-2.4,4.6-5.7V63.6c0-2.9-2-5-4.6-5c-3.5,0-4.5,2.5-4.5,5.4V80.9z"/>
<path class="st0" d="M260.1,31.2c1.5,0,2.7,1.2,2.7,2.7c0,1.5-1.2,2.7-2.7,2.7c-1.5,0-2.7-1.2-2.7-2.7
	C257.4,32.4,258.6,31.2,260.1,31.2 M260.1,31.7c-1.2,0-2.2,1-2.2,2.2c0,1.2,1,2.2,2.2,2.2c1.2,0,2.2-1,2.2-2.2
	C262.3,32.7,261.3,31.7,260.1,31.7z M259.1,32.3h1.2c0.7,0,1.1,0.3,1.1,0.9c0,0.6-0.4,0.8-0.8,0.9l0.9,1.4h-0.6l-0.9-1.4h-0.4v1.4
	h-0.5V32.3z M259.6,33.7h0.6c0.5,0,0.7-0.1,0.7-0.5c0-0.3-0.2-0.4-0.6-0.4h-0.7V33.7z"/>
</svg>
