<?xml version="1.0" encoding="utf-8"?>
<!-- Generator: Adobe Illustrator 21.1.0, SVG Export Plug-In . SVG Version: 6.00 Build 0)  -->
<svg version="1.1" id="Layer_1" xmlns="http://www.w3.org/2000/svg" xmlns:xlink="http://www.w3.org/1999/xlink" x="0px" y="0px"
	 viewBox="0 0 300 180" style="enable-background:new 0 0 300 180;" xml:space="preserve">
<style type="text/css">
	.st0{fill-rule:evenodd;clip-rule:evenodd;fill:#FF671B;}
</style>
<path class="st0" d="M36,76.2h9.4v5c3.9-3.4,7-5.5,12.4-5.5v9.9c-0.9-0.4-1.8-0.6-2.8-0.6c-4,0-9.6,2.5-9.6,10.1v27.7H36V76.2z"/>
<path class="st0" d="M61.5,62c0-2.6,2.1-4.7,4.7-4.7c2.6,0,4.7,2.1,4.7,4.7c0,2.6-2.1,4.7-4.7,4.7C63.7,66.7,61.5,64.6,61.5,62"/>
<rect x="61.5" y="76.2" class="st0" width="9.4" height="46.6"/>
<polygon class="st0" points="95.1,122.7 86.8,122.7 74.7,76.2 84.6,76.2 90.9,105.9 91,105.9 97.3,76.2 107.2,76.2 "/>
<path class="st0" d="M117.5,103v6.3c0,2.9,1.7,4.6,4.6,4.6c3.6,0,4.4-2.7,4.6-4.7h9.4c0,3.9-1.4,7.4-3.8,9.9
	c-2.5,2.6-5.9,4.1-10.2,4.1c-5.7,0-10-2.7-12.2-6.7c-1.3-2.4-1.7-5.7-1.7-9.5V91.8c0-3.8,0.5-7.1,1.7-9.5c2.2-4,6.5-6.7,12.2-6.7
	c8.6,0,14,6.3,14,14.5V103H117.5z M117.5,95.6h9.2v-5.3c0-3.5-1.7-5.3-4.6-5.3c-2.8,0-4.6,1.8-4.6,5.3V95.6z"/>
<path class="st0" d="M139.9,76.2h9.4v5c3.9-3.4,7-5.5,12.4-5.5v9.9c-0.9-0.4-1.8-0.6-2.8-0.6c-3.9,0-9.6,2.5-9.6,10.1v27.7h-9.4
	V76.2z"/>
<path class="st0" d="M165.4,57.3h9.4v23.1h0.2c2-3,5-4.8,8.6-4.8c4.5,0,6.8,1.7,8.4,4.2c1.2,1.9,1.5,4.6,1.5,11.3v17.7
	c0,5.1-0.5,8-1.6,10c-1.6,3-4.4,4.4-8.2,4.4c-4.7,0-6.5-2.1-8.9-4.8v4.2h-9.4V57.3z M184.1,90.5c0-2.9-1-5.5-4.6-5.5
	c-2.7,0-4.7,2.1-4.7,5.1v18.1c0,3.4,1.8,5.8,4.7,5.8c3.2,0,4.6-2.6,4.6-6.3V90.5z"/>
<path class="st0" d="M206.6,103v6.3c0,2.9,1.7,4.6,4.6,4.6c3.6,0,4.4-2.7,4.6-4.7h9.4c0,3.9-1.4,7.4-3.8,9.9
	c-2.5,2.6-5.9,4.1-10.2,4.1c-5.7,0-10-2.7-12.2-6.7c-1.3-2.4-1.7-5.7-1.7-9.5V91.8c0-3.8,0.5-7.1,1.7-9.5c2.2-4,6.5-6.7,12.2-6.7
	c8.6,0,14,6.3,14,14.5l0,12.9H206.6z M206.6,95.6h9.2v-5.3c0-3.5-1.7-5.3-4.6-5.3c-2.8,0-4.6,1.8-4.6,5.3V95.6z"/>
<path class="st0" d="M247.7,118.5c-2.4,2.7-4.2,4.8-8.9,4.8c-3.8,0-6.5-1.4-8.2-4.4c-1.1-2-1.6-4.9-1.6-10V91.1
	c0-6.7,0.3-9.4,1.5-11.3c1.6-2.5,3.9-4.2,8.4-4.2c3.7,0,6.6,1.7,8.6,4.8h0.2V57.3h9.4v65.4h-9.4V118.5z M238.4,107.6
	c0,3.8,1.4,6.3,4.6,6.3c2.9,0,4.7-2.4,4.7-5.8V90c0-2.9-2-5.1-4.7-5.1c-3.6,0-4.6,2.6-4.6,5.5V107.6z"/>
<path class="st0" d="M261.6,57.2c1.5,0,2.7,1.2,2.7,2.7c0,1.5-1.2,2.7-2.7,2.7c-1.5,0-2.7-1.2-2.7-2.7
	C258.8,58.4,260.1,57.2,261.6,57.2 M261.6,57.7c-1.2,0-2.2,1-2.2,2.2c0,1.2,1,2.2,2.2,2.2c1.2,0,2.2-1,2.2-2.2
	C263.8,58.7,262.8,57.7,261.6,57.7z M260.5,58.3h1.2c0.7,0,1.1,0.3,1.1,0.9c0,0.6-0.4,0.8-0.8,0.9l0.9,1.4h-0.6l-0.9-1.4H261v1.4
	h-0.5V58.3z M261,59.7h0.6c0.5,0,0.7-0.1,0.7-0.5c0-0.3-0.2-0.4-0.6-0.4H261V59.7z"/>
</svg>
