<?xml version="1.0" encoding="utf-8"?>
<!-- Generator: Adobe Illustrator 21.1.0, SVG Export Plug-In . SVG Version: 6.00 Build 0)  -->
<svg version="1.1" id="Layer_1" xmlns="http://www.w3.org/2000/svg" xmlns:xlink="http://www.w3.org/1999/xlink" x="0px" y="0px"
	 viewBox="0 0 291 125" style="enable-background:new 0 0 291 125;" xml:space="preserve">
<style type="text/css">
	.st0{fill:#008CC1;}
	.st1{fill:#FFFFFF;}
	.st2{fill-rule:evenodd;clip-rule:evenodd;fill:#EC1C24;}
</style>
<polygon class="st0" points="561.3,313.4 498.9,326.7 494,304 556.5,290.7 556.5,290.7 "/>
<path class="st1" d="M537.5,314.5l0.3-0.1c0,0-0.3-1.3-0.3-1.4c0.1,0.1,1.4,1.2,1.4,1.2l0.4-0.1l-0.4-1.9l-0.3,0.1
	c0,0,0.3,1.3,0.3,1.4c-0.1-0.1-1.4-1.2-1.4-1.2l-0.4,0.1L537.5,314.5z"/>
<path class="st1" d="M539.7,314l1.5-0.3l-0.1-0.3c0,0-1.2,0.2-1.2,0.3l-0.1-0.5l1.2-0.2l-0.1-0.3l-1.2,0.2c0-0.1-0.1-0.4-0.1-0.5
	c0.1,0,1.2-0.3,1.2-0.3l-0.1-0.3l-1.5,0.3L539.7,314z"/>
<path class="st1" d="M541.2,312c0,0,0.6-0.1,0.7-0.1c0,0.1,0.3,1.6,0.3,1.6l0.3-0.1c0,0-0.3-1.6-0.3-1.6c0.1,0,0.7-0.1,0.7-0.1
	l-0.1-0.3l-1.7,0.4L541.2,312z"/>
<path class="st1" d="M544.2,313.1l0.3-0.1c0,0,0.1-1.4,0.2-1.6c0.1,0.1,0.8,1.4,0.8,1.4l0.3-0.1l0.2-2.1l-0.3,0.1
	c0,0-0.1,1.4-0.1,1.5c-0.1-0.1-0.8-1.3-0.8-1.3l-0.4,0.1c0,0-0.1,1.4-0.2,1.5c-0.1-0.1-0.7-1.3-0.7-1.3l-0.4,0.1L544.2,313.1z"/>
<path class="st1" d="M547.2,310.4c-0.3,0.1-0.6,0.2-0.7,0.4c-0.1,0.2-0.2,0.5-0.1,0.8c0.1,0.3,0.2,0.5,0.4,0.7
	c0.2,0.1,0.5,0.2,0.8,0.1c0.8-0.2,0.9-0.8,0.8-1.2C548.3,310.7,547.9,310.2,547.2,310.4 M547,312c-0.1-0.1-0.2-0.3-0.3-0.5l0,0
	c0-0.2,0-0.4,0.1-0.5c0.1-0.2,0.3-0.3,0.5-0.3l0,0c0.4-0.1,0.8,0.1,0.9,0.6c0.1,0.4-0.1,0.8-0.6,0.9
	C547.3,312.1,547.1,312.1,547,312z"/>
<path class="st1" d="M549,312l0.3-0.1c0,0-0.2-0.7-0.2-0.8l0.7-0.1c0.2,0,0.3,0,0.4,0.3l0,0.1c0.1,0.2,0.1,0.3,0.1,0.3l0,0l0.4-0.1
	l-0.1,0c-0.1-0.1-0.1-0.1-0.2-0.5c-0.1-0.2-0.2-0.3-0.3-0.4c0.1-0.1,0.2-0.3,0.2-0.5c-0.1-0.2-0.2-0.5-0.6-0.4l-1.2,0.2L549,312z
	 M549,310.4c0.1,0,0.7-0.2,0.7-0.2c0.2,0,0.3,0,0.3,0.2c0,0.1,0,0.3-0.2,0.3c0,0-0.7,0.1-0.7,0.2C549.1,310.8,549,310.4,549,310.4z"
	/>
<path class="st1" d="M551.2,311.6l0.3-0.1c0,0-0.1-0.6-0.1-0.6c0,0,0.2-0.3,0.2-0.3c0.1,0,0.9,0.7,0.9,0.7l0.5-0.1
	c0,0-1.1-0.9-1.2-0.9c0-0.1,0.7-1,0.7-1l-0.5,0.1c0,0-0.7,1-0.8,1.1l-0.2-0.9l-0.3,0.1L551.2,311.6z"/>
<path class="st1" d="M552.9,309.8c0.1,0.4,0.5,0.4,0.7,0.4l0.4,0c0.2,0,0.3,0,0.4,0.2c0,0.1,0,0.1,0,0.2c-0.1,0.1-0.2,0.2-0.4,0.2
	c-0.2,0-0.6,0.1-0.6-0.3l0,0l-0.3,0.1l0,0c0,0.2,0.1,0.3,0.3,0.4c0.2,0.2,0.5,0.1,0.7,0.1c0.2,0,0.5-0.1,0.6-0.4
	c0.1-0.1,0.1-0.3,0.1-0.5c-0.1-0.4-0.5-0.4-0.7-0.4c0,0-0.5,0-0.5,0c-0.3,0-0.3-0.1-0.3-0.2c0-0.1,0-0.1,0-0.2
	c0.1-0.1,0.2-0.2,0.3-0.2c0.4-0.1,0.5,0.1,0.6,0.2l0,0l0.3-0.1l0,0c-0.1-0.4-0.4-0.5-0.9-0.4C553.1,309.1,552.9,309.4,552.9,309.8"
	/>
<path class="st1" d="M519.8,307.9c-0.4-0.3-1-0.4-1.5-0.2c-0.6,0.1-1.1,0.4-1.4,1l-0.1-0.4c-0.2-0.1-0.4-0.2-0.6-0.2
	c-0.2,0.1-0.4,0.2-0.5,0.4l1.7,8.2l1.2-0.3l-0.6-3c0.5,0.4,1.1,0.5,1.7,0.4c0.6-0.1,1.1-0.4,1.3-0.8c0.5-0.7,0.3-1.8,0.1-2.7
	C520.8,309.4,520.5,308.4,519.8,307.9 M519,312.8c-1.1,0.2-1.4-0.7-1.7-1.7c-0.2-1.1-0.3-2,0.8-2.3c1.1-0.2,1.4,0.7,1.6,1.7
	C520,311.6,520.1,312.6,519,312.8z"/>
<path class="st1" d="M526,312.4l-0.1-0.5c-0.3,0.5-0.7,0.8-1.4,0.9c-0.7,0.2-1.3,0.1-1.7-0.2c-0.4-0.3-0.6-0.7-0.7-1.2
	c-0.2-1,0.3-1.9,1.7-2.2l1.6-0.3l-0.1-0.4c-0.2-0.8-0.6-1-1.5-0.9c-0.6,0.1-0.9,0.4-1.2,0.9l-0.9-0.6c0.4-0.8,0.9-1.1,1.9-1.3
	c1.6-0.3,2.6,0.2,2.9,1.5l0.9,4L526,312.4z M525.4,309.8l-1.4,0.3c-0.7,0.1-1,0.5-0.9,1.1c0.1,0.5,0.5,0.8,1.3,0.6
	c0.5-0.1,0.8-0.2,1-0.6c0.1-0.2,0.2-0.5,0.1-0.9L525.4,309.8z"/>
<path class="st1" d="M529.9,310.5c-0.5,0.1-0.7-0.1-0.8-0.6l-1.4-6.7c-0.2-0.2-0.4-0.2-0.7-0.2c-0.2,0.1-0.4,0.2-0.5,0.4l1.4,6.8
	c0.2,0.9,0.8,1.6,2,1.3l0.7-0.2l-0.2-1L529.9,310.5z"/>
<path class="st1" d="M535.1,309.8c-0.3,0.5-0.8,0.9-1.6,1.1c-0.8,0.2-1.4,0-1.9-0.3c-0.7-0.5-1-1.2-1.2-2.2c-0.2-1-0.2-1.8,0.2-2.5
	c0.3-0.5,0.8-0.9,1.6-1.1c0.8-0.2,1.4,0,1.9,0.3c0.7,0.5,1,1.2,1.2,2.2C535.5,308.3,535.5,309.1,535.1,309.8 M533.4,306
	c-0.3-0.2-0.6-0.2-0.9-0.2c-0.3,0.1-0.6,0.3-0.8,0.5c-0.3,0.4-0.2,1.1-0.1,1.7c0.1,0.7,0.3,1.3,0.8,1.6c0.3,0.2,0.6,0.2,0.9,0.2
	c0.3-0.1,0.6-0.3,0.8-0.5c0.3-0.4,0.2-1.1,0.1-1.7C534,306.9,533.8,306.3,533.4,306z"/>
<path class="st1" d="M544.3,307.4c-0.5,0.1-0.7-0.1-0.8-0.6l-1.4-6.7c-0.2-0.2-0.4-0.2-0.7-0.2c-0.2,0.1-0.4,0.2-0.5,0.4l1.4,6.8
	c0.2,0.9,0.8,1.6,2,1.3l0.7-0.2l-0.2-1L544.3,307.4z"/>
<path class="st1" d="M540.2,309.4l-0.1-0.5c-0.3,0.5-0.7,0.8-1.4,0.9c-0.7,0.2-1.3,0.1-1.7-0.2c-0.4-0.3-0.6-0.7-0.7-1.2
	c-0.2-1,0.3-1.9,1.7-2.2l1.6-0.3l-0.1-0.4c-0.2-0.8-0.6-1-1.5-0.9c-0.6,0.1-0.9,0.4-1.2,0.9l-0.9-0.6c0.4-0.8,0.9-1.1,1.9-1.3
	c1.6-0.3,2.6,0.2,2.9,1.5l0.9,4L540.2,309.4z M539.7,306.7l-1.4,0.3c-0.7,0.1-1,0.5-0.9,1.1c0.1,0.5,0.5,0.8,1.3,0.6
	c0.5-0.1,0.8-0.2,1-0.6c0.1-0.2,0.2-0.5,0.1-0.9L539.7,306.7z"/>
<path class="st1" d="M547.3,302.7l-0.2-0.9L546,302l-0.4-1.8c-0.2-0.2-0.4-0.2-0.7-0.2c-0.2,0.1-0.4,0.2-0.5,0.4l0.4,1.8l-0.7,0.1
	l0.2,0.9l0.7-0.1l0.7,3.3c0.2,0.9,0.9,1.6,2,1.3l0.7-0.1l-0.2-1l-0.5,0.1c-0.4,0.1-0.7-0.1-0.8-0.6l-0.7-3.2L547.3,302.7z"/>
<path class="st1" d="M553.1,306c-0.3,0.5-0.8,0.9-1.6,1.1c-0.8,0.2-1.4,0-1.9-0.3c-0.7-0.5-1-1.2-1.2-2.2c-0.2-1-0.2-1.8,0.2-2.5
	c0.3-0.5,0.8-0.9,1.6-1.1c0.8-0.2,1.4,0,1.9,0.3c0.7,0.5,1,1.2,1.2,2.2C553.5,304.5,553.5,305.3,553.1,306 M551.4,302.1
	c-0.3-0.2-0.6-0.2-0.9-0.2c-0.3,0.1-0.6,0.3-0.8,0.5c-0.3,0.4-0.2,1.1-0.1,1.7c0.1,0.7,0.3,1.3,0.8,1.6c0.3,0.2,0.6,0.2,0.9,0.2
	c0.3-0.1,0.6-0.3,0.8-0.5c0.3-0.4,0.2-1.1,0.1-1.7C552,303,551.8,302.4,551.4,302.1z"/>
<path class="st1" d="M555.7,309.8c-0.3,0.1-0.6-0.1-0.7-0.5c-0.1-0.3,0.1-0.6,0.4-0.7c0.3-0.1,0.6,0.1,0.7,0.5
	C556.2,309.5,556,309.8,555.7,309.8 M555.5,308.8c-0.3,0.1-0.4,0.3-0.4,0.6c0.1,0.3,0.3,0.5,0.6,0.4c0.3-0.1,0.4-0.3,0.4-0.6
	C556,308.9,555.7,308.7,555.5,308.8z M555.8,309.5l-0.2-0.2l-0.1,0l0.1,0.3l-0.1,0l-0.1-0.6l0.2,0c0.1,0,0.2,0,0.2,0.1
	c0,0.1,0,0.2-0.1,0.2l0.2,0.2L555.8,309.5z M555.5,309l-0.1,0l0,0.2l0.1,0c0.1,0,0.1-0.1,0.1-0.1C555.7,309,555.6,309,555.5,309z"/>
<path class="st1" d="M512.8,312.3c0-0.3,0.2-0.5,0.4-0.6l-0.8-3.8c-0.2-1-1.2-1.6-2.1-1.4l-7.7,1.6c-1,0.2-1.6,1.2-1.4,2.1l1.7,7.8
	c0.2,1,1.2,1.6,2.1,1.4l7.7-1.6c1-0.2,1.6-1.2,1.4-2.1l-0.5-2.5c-0.1,0.1-0.2,0.1-0.2,0.1c-0.3,0.1-0.5-0.1-0.5-0.4L512.8,312.3z
	 M503.8,315.2l0,0.6c0,0.3-0.2,0.6-0.5,0.6c-0.3,0.1-0.5-0.1-0.5-0.4l0-0.6c0-0.3,0.2-0.6,0.5-0.6
	C503.6,314.7,503.8,314.9,503.8,315.2z M505.5,314.8l0.1,2.3c0,0.3-0.2,0.6-0.5,0.6c-0.3,0.1-0.5-0.1-0.5-0.4l-0.1-2.3
	c0-0.3,0.2-0.6,0.5-0.6C505.3,314.4,505.5,314.5,505.5,314.8z M507.1,313.4l0.2,4.3c0,0.3-0.2,0.6-0.5,0.6c-0.3,0.1-0.5-0.1-0.5-0.4
	l-0.2-4.3c0-0.3,0.2-0.6,0.5-0.6C506.9,313,507.1,313.2,507.1,313.4z M508.7,311l0.2,5.9c0,0.3-0.2,0.6-0.5,0.6
	c-0.3,0.1-0.5-0.1-0.5-0.4l-0.2-5.9c0-0.3,0.2-0.6,0.5-0.6C508.5,310.6,508.7,310.7,508.7,311z M510.3,310.1l0.2,4.3
	c0,0.3-0.2,0.6-0.5,0.6c-0.3,0.1-0.5-0.1-0.5-0.4l-0.2-4.3c0-0.3,0.2-0.6,0.5-0.6C510.1,309.7,510.3,309.8,510.3,310.1z M512,310.8
	l0.1,2.3c0,0.3-0.2,0.6-0.5,0.6c-0.3,0.1-0.5-0.1-0.5-0.4l-0.1-2.3c0-0.3,0.2-0.6,0.5-0.6C511.8,310.3,512,310.5,512,310.8z"/>
<path class="st2" d="M251.1,77.8c-1.3,0-2.4-1.1-2.4-2.4c0-1.3,1.1-2.4,2.4-2.4c1.3,0,2.4,1.1,2.4,2.4
	C253.5,76.8,252.4,77.8,251.1,77.8 M251.1,72.7c-1.5,0-2.7,1.2-2.7,2.7c0,1.5,1.2,2.7,2.7,2.7c1.5,0,2.7-1.2,2.7-2.7
	C253.8,73.9,252.6,72.7,251.1,72.7z"/>
<path class="st2" d="M251,75.3h-0.6v-1.1h0.9c0.4,0,0.8,0.1,0.8,0.5C252.1,75.3,251.5,75.3,251,75.3 M252.5,74.7
	c0-0.3-0.1-0.5-0.3-0.7c-0.2-0.1-0.5-0.2-0.7-0.2h-1.3V77h0.4v-1.4h0.7L252,77h0.4l-0.9-1.4C252.1,75.5,252.5,75.3,252.5,74.7z"/>
<path class="st2" d="M233.5,62.6c-3.1,0-6.6-0.3-9.1-1.2v-9.2c3.2-0.3,8.3-0.5,9.7-0.5c1.5,0,9.1,0.3,9.1,5.3
	C243.3,62.2,236.6,62.6,233.5,62.6 M233,46.5c-3.2,0-12.2,0.3-18.1,1.2v29.8h9.5V66.8c1.2,0.4,8.1,1.1,10.5,1.1
	c2.4,0,19.6-0.7,19.6-10.9C254.4,46,236.2,46.5,233,46.5z"/>
<path class="st2" d="M69.5,59.7c-2.6-0.6-12.2-2.1-14.8-2.5c-3.3-0.4-5.3-1-5.3-2.9c0-2.5,4.9-2.1,8.9-1.9
	c4.9,0.2,14.2,3.3,16.8,4.4l3.1-6.9c-5.1-2.5-15-3.7-21.2-3.7c-4.5,0.1-19.6,1.1-19.8,9.2c-0.1,5.7,4.9,7.8,11.2,9.4
	c5.5,1.1,11.5,1.7,15.6,2.5c5.3,1.1,5.3,4.9,1.1,5.3c-7.2,0.5-19.5-3.1-25.1-5.9l-3.6,7.3c7.8,3.8,19.8,4.7,24,4.7
	c5.3-0.1,19.4-0.6,19.4-9.1C80,64.1,75.2,61,69.5,59.7"/>
<polygon class="st2" points="111.7,59.3 92,59.3 92,47.7 81.9,47.7 81.9,77.5 92,77.5 92,65.3 111.7,65.3 111.7,77.5 121.9,77.5 
	121.9,47.7 111.7,47.7 "/>
<path class="st2" d="M138.4,64.8l6.3-10.7l6.4,10.7H138.4z M153,47.7h-12.4l-17.5,29.8h7.9l4.1-6.8h19.7l4.1,6.8H171L153,47.7z"/>
<path class="st2" d="M211.9,56.4c-0.1-10.9-18.6-9.9-21.8-9.9c-3.2,0-12.2,0.3-18.1,1.2v29.8h9.7V52.2c3.5-0.3,8.4-0.5,9.8-0.5
	c1.5,0,9-0.3,9.1,5.1c0.1,5.1-7,5.2-10,5.2c-1.9,0-3.5-0.4-5.2-0.8l-1.8,3.1l14.9,13.2h14.3l-13-11.4C205.3,65,212,62.4,211.9,56.4"
	/>
</svg>
