<?xml version="1.0" encoding="utf-8"?>
<!-- Generator: Adobe Illustrator 21.1.0, SVG Export Plug-In . SVG Version: 6.00 Build 0)  -->
<svg version="1.1" id="Layer_1" xmlns="http://www.w3.org/2000/svg" xmlns:xlink="http://www.w3.org/1999/xlink" x="0px" y="0px"
	 viewBox="0 0 291 125" style="enable-background:new 0 0 291 125;" xml:space="preserve">
<style type="text/css">
	.st0{fill:#14B14B;}
</style>
<path class="st0" d="M262.8,39.7c-2.6-0.7-5.3,0.5-6.5,3l-16,31.2c-0.7,1.3-1.9,1.4-2.3,1.4h0c-0.5,0-1.7-0.1-2.3-1.4l-16-31.2
	c-1.3-2.4-3.9-3.6-6.5-3c-2.6,0.7-4.4,2.9-4.4,5.7v32.8c0,1.6,1.2,2.8,2.8,2.8c1.5,0,2.8-1.3,2.8-2.8V44.9c0-0.1,0-0.3,0.1-0.3
	c0.2,0,0.2,0.1,0.3,0.2l16,31.3c1.4,2.7,4.2,4.4,7.3,4.4c3.1,0,5.8-1.7,7.3-4.4l16-31.3c0.1-0.1,0.1-0.3,0.3-0.2
	c0.2,0,0.1,0.2,0.1,0.3v33.4c0,1.6,1.2,2.8,2.8,2.8s2.8-1.3,2.8-2.8V45.4C267.2,42.7,265.4,40.4,262.8,39.7"/>
<path class="st0" d="M70.6,39.9c-1.4-0.7-3.1-0.2-3.8,1.2L49.3,74.9c-0.3,0.7-0.8,1-1.4,1c-0.5,0-1-0.4-1.4-1L29.1,41.1
	c-0.7-1.4-2.4-1.9-3.8-1.2c-1.4,0.7-1.9,2.4-1.2,3.8L41.6,77c1.3,2.5,3.7,4,6.3,4c2.6,0,5-1.5,6.3-4l17.6-33.3
	C72.5,42.3,72,40.6,70.6,39.9"/>
<path class="st0" d="M91.8,38.8c-11.6,0-21.1,9.6-21.1,21.5c0,11.9,9.5,21.5,21.1,21.5c6.6,0,12.9-3.2,16.9-8.7
	c0.9-1.3,0.7-3-0.6-3.9c-1.2-0.9-3-0.7-3.9,0.6c-3,4.1-7.5,6.6-12.5,6.6c-7.6,0-14-5.9-15.3-13.3h33.6c1.5,0,2.8-1.3,2.8-2.8
	C112.8,48.4,103.4,38.8,91.8,38.8 M76.5,58c1.3-7.4,7.7-13.8,15.3-13.8c7.6,0,14,6.4,15.3,13.8H76.5z"/>
<path class="st0" d="M137.5,38.8c-11.6,0-21.1,9.6-21.1,21.5c0,11.9,9.5,21.5,21.1,21.5c6.6,0,12.9-3.2,16.9-8.7
	c0.9-1.3,0.7-3-0.6-3.9c-1.2-0.9-3-0.7-3.9,0.6c-3,4.1-7.5,6.6-12.5,6.6c-7.6,0-14-5.9-15.3-13.3h33.6c1.5,0,2.8-1.3,2.8-2.8
	C158.6,48.4,149.1,38.8,137.5,38.8 M122.2,58c1.3-7.4,7.7-13.8,15.3-13.8c7.6,0,14,6.4,15.3,13.8H122.2z"/>
<path class="st0" d="M187,43.5c-1.3-2.5-3.6-3.9-6.1-3.9c-2.6,0-4.8,1.5-6.1,3.9l-17.5,33.4c-0.7,1.4-0.2,3.1,1.2,3.8
	c0.4,0.2,0.9,0.3,1.3,0.3c1,0,2-0.5,2.5-1.5l4.9-9.4h20.2c1.5,0,2.7-1.2,2.7-2.8c0-1.5-1.3-2.7-2.9-2.7l-17.2,0l9.7-19.3
	c0.3-0.6,0.7-0.9,1.2-0.9c0.5,0,0.9,0.3,1.2,0.9l17.5,34.1c0.7,1.4,2.4,1.9,3.8,1.2c1.4-0.7,1.7-2.7,1-4L187,43.5z"/>
</svg>
