<?xml version="1.0" encoding="utf-8"?>
<!-- Generator: Adobe Illustrator 21.1.0, SVG Export Plug-In . SVG Version: 6.00 Build 0)  -->
<svg version="1.1" id="Layer_1" xmlns="http://www.w3.org/2000/svg" xmlns:xlink="http://www.w3.org/1999/xlink" x="0px" y="0px"
	 viewBox="0 0 300 180" style="enable-background:new 0 0 300 180;" xml:space="preserve">
<style type="text/css">
	.st0{fill:#B0181E;}
</style>
<path class="st0" d="M116.5,80c0-1.7,1.4-3.1,3.1-3.1h13.5c2.1,0,4.1,1.3,4.9,3.3c1,2.7-0.3,5.7-3,6.7l-10.5,3.9
	c-3.8,1.3-5.8,5.4-4.5,9.3c0.7,2,2.1,3.5,3.9,4.3l19.6,8.9v-6.8l-17.1-7.6c-0.3-0.1-0.6-0.4-0.7-0.7c-0.2-0.6,0.1-1.4,0.8-1.6
	l10.7-3.7c5.9-2.3,8.8-8.9,6.6-14.8c-1.7-4.5-6.1-7.3-10.7-7.3h-13.5c-5.2,0-9.4,4.2-9.4,9.4v32.2h6.2V80z"/>
<rect x="150.9" y="70.7" class="st0" width="6.2" height="41.6"/>
<path class="st0" d="M64.9,70.7l-11.2,34.6c-0.1,0.4-0.5,0.7-1,0.7c-0.4,0-0.8-0.3-1-0.7L40.6,70.7H34l11.8,36.5c1,3.1,3.8,5,6.9,5
	c3.1,0,5.9-2,6.9-5l11.8-36.5H64.9z"/>
<path class="st0" d="M194.6,112.3l11.2-34.6c0.1-0.4,0.5-0.7,1-0.7c0.4,0,0.8,0.3,1,0.7l11.2,34.6h6.6l-11.8-36.6
	c-1-3.1-3.8-5-6.9-5c-3.1,0-5.9,2-6.9,5l-11.8,36.6H194.6z"/>
<path class="st0" d="M84.2,76.9h19.7v-6.2H84.2c-5.7,0-10.4,4.7-10.4,10.4v20.8c0,5.7,4.7,10.4,10.4,10.4h19.7V106H84.2
	c-2.3,0-4.2-1.9-4.2-4.2v-7.3h19.8v-6.1H80v-7.3C80,78.8,81.9,76.9,84.2,76.9"/>
<polygon class="st0" points="192.7,70.7 162.3,70.7 162.3,76.9 174.4,76.9 174.4,112.3 180.6,112.3 180.6,76.9 192.7,76.9 "/>
<path class="st0" d="M248.7,112.3c6.6,0,12-5.4,12-12c0-6.6-5.3-12-12-12h-10.4c-3.2,0-5.7-2.6-5.7-5.7c0-3.2,2.6-5.7,5.7-5.7h20.3
	v-6.2h-20.3c-6.6,0-12,5.3-12,12c0,6.6,5.4,12,12,12h10.4c3.2,0,5.7,2.6,5.7,5.7c0,3.2-2.6,5.7-5.7,5.7h-20.3v6.2H248.7z"/>
<path class="st0" d="M262.1,70.7h-0.5v-2.5h-0.9v-0.5h2.4v0.5h-0.9V70.7z M264.9,69.9l0.2-0.5l0.7-1.8h0.6v3h-0.5v-1.5l0-0.5
	l-0.2,0.4l-0.6,1.6h-0.5l-0.6-1.6l-0.2-0.4l0,0.5v1.5h-0.5v-3h0.6l0.7,1.8L264.9,69.9z"/>
</svg>
