<?xml version="1.0" encoding="utf-8"?>
<!-- Generator: Adobe Illustrator 21.1.0, SVG Export Plug-In . SVG Version: 6.00 Build 0)  -->
<svg version="1.1" id="Layer_1" xmlns="http://www.w3.org/2000/svg" xmlns:xlink="http://www.w3.org/1999/xlink" x="0px" y="0px"
	 viewBox="0 0 291 125" style="enable-background:new 0 0 291 125;" xml:space="preserve">
<style type="text/css">
	.st0{fill:#B0181E;}
	.st1{fill:#414142;}
</style>
<g>
	<path class="st0" d="M114.2,35.6c0-1.6,1.3-2.9,2.9-2.9h12.6c1.9,0,3.8,1.2,4.5,3.1c1,2.5-0.3,5.3-2.8,6.2l-9.7,3.6
		c-3.5,1.2-5.4,5.1-4.2,8.6c0.6,1.8,2,3.2,3.6,4l18.2,8.3v-6.3l-15.9-7c-0.3-0.1-0.5-0.4-0.6-0.7c-0.2-0.6,0.1-1.3,0.7-1.5l10-3.5
		c5.5-2.1,8.2-8.3,6.1-13.7c-1.6-4.2-5.7-6.8-9.9-6.8h-12.6c-4.8,0-8.7,3.9-8.7,8.7v30h5.8V35.6L114.2,35.6z"/>
	<polygon class="st0" points="146.1,65.5 151.9,65.5 151.9,26.9 146.1,26.9 146.1,65.5 	"/>
	<path class="st0" d="M66.2,26.9L55.8,59.1c-0.1,0.4-0.5,0.7-0.9,0.7c-0.4,0-0.8-0.2-0.9-0.7L43.6,26.9h-6.1l11,34
		c0.9,2.8,3.6,4.7,6.4,4.7c2.9,0,5.5-1.8,6.4-4.7l11-34H66.2L66.2,26.9z"/>
	<path class="st0" d="M186.8,65.5l10.4-32.2c0.1-0.4,0.5-0.7,0.9-0.7c0.4,0,0.8,0.2,0.9,0.7l10.4,32.2h6.1l-11-34
		c-0.9-2.8-3.6-4.7-6.4-4.7c-2.9,0-5.5,1.8-6.4,4.7l-11,34H186.8L186.8,65.5z"/>
	<path class="st0" d="M84.1,32.7h18.4v-5.8H84.1c-5.3,0-9.7,4.3-9.7,9.7v19.3c0,5.3,4.3,9.7,9.7,9.7h18.4v-5.8H84.1
		c-2.1,0-3.9-1.7-3.9-3.9v-6.8h18.4v-5.7H80.2v-6.8C80.2,34.4,82,32.7,84.1,32.7L84.1,32.7z"/>
	<polygon class="st0" points="185,26.9 156.8,26.9 156.8,32.7 168,32.7 168,65.5 173.8,65.5 173.8,32.7 185,32.7 185,26.9 	"/>
	<path class="st0" d="M237,65.5c6.1,0,11.1-5,11.1-11.1c0-6.1-5-11.1-11.1-11.1h-9.7c-2.9,0-5.3-2.4-5.3-5.3c0-2.9,2.4-5.3,5.3-5.3
		h18.8v-5.8h-18.8c-6.1,0-11.1,5-11.1,11.1c0,6.1,5,11.1,11.1,11.1h9.7c2.9,0,5.3,2.4,5.3,5.3c0,2.9-2.4,5.3-5.3,5.3l-18.8,0v5.8
		H237L237,65.5z"/>
	<path class="st0" d="M249.5,26.9H249v-2.4h-0.8v-0.5h2.2v0.5h-0.8V26.9L249.5,26.9z M252.1,26.2l0.2-0.5l0.6-1.6h0.6v2.8H253v-1.4
		l0-0.5l-0.2,0.4l-0.6,1.5h-0.4l-0.6-1.5l-0.2-0.4l0,0.5v1.4h-0.5v-2.8h0.6l0.6,1.6L252.1,26.2L252.1,26.2z"/>
	<polygon class="st1" points="44.1,100.7 42.8,100.7 42.8,87 38,87 38,85.7 48.9,85.7 48.9,87 44.1,87 44.1,100.7 	"/>
	<path class="st1" d="M50.8,85.3H52v6.9c0.7-1.1,1.9-1.9,3.5-1.9c2.1,0,3.8,1.2,3.8,3.3v7.1H58v-6.8c0-1.5-1.1-2.3-2.7-2.3
		c-1.9,0-3.2,1.6-3.3,2.9v6.3h-1.3V85.3L50.8,85.3z"/>
	<path class="st1" d="M70.4,95.6v0.5h-7.6c0.1,2.6,1.4,3.6,3.3,3.6c1.8,0,2.6-0.8,2.9-2l1.4,0.2c-0.3,1.6-1.5,3-4.3,3
		c-2.9,0-4.6-1.8-4.6-5.3c0-3.5,1.8-5.3,4.6-5.3C69.1,90.3,70.4,92.3,70.4,95.6L70.4,95.6z M62.8,95H69c0-2.3-0.9-3.5-2.9-3.5
		C64.2,91.5,62.9,92.5,62.8,95L62.8,95z"/>
	<path class="st1" d="M76.6,90.5h1.8v-2.6l1.3-0.4v3h3.1v1.2h-3.1v5.2c0,2.3,0.7,2.8,2.2,2.8c0.5,0,0.8-0.1,0.9-0.2l0.2,1.2
		c-0.3,0.1-0.7,0.2-1.1,0.2c-3,0-3.5-1.9-3.5-4v-5.2h-1.8V90.5L76.6,90.5z"/>
	<path class="st1" d="M90.7,91.8c-0.2-0.1-0.5-0.2-1-0.2c-2.1,0-3.3,1.6-3.4,2.9v6.2H85v-7.8l-0.1-2.4h1.2l0.2,1.8
		c0.6-1.1,1.9-2,3.4-2c0.4,0,0.9,0.1,1.1,0.2L90.7,91.8L90.7,91.8z"/>
	<path class="st1" d="M99.7,99c-0.7,1.1-1.9,1.9-3.5,1.9c-2.1,0-3.8-1.2-3.8-3.3v-7.1h1.3v6.8c0,1.5,1.1,2.4,2.7,2.4
		c1.9,0,3.2-1.6,3.3-2.9v-6.3h1.3v7.8l0.1,2.4H100L99.7,99L99.7,99z"/>
	<path class="st1" d="M102.9,90.5h1.8v-2.6l1.3-0.4v3h3.1v1.2H106v5.2c0,2.3,0.7,2.8,2.2,2.8c0.5,0,0.8-0.1,0.9-0.2l0.2,1.2
		c-0.3,0.1-0.7,0.2-1.1,0.2c-3,0-3.5-1.9-3.5-4v-5.2h-1.8V90.5L102.9,90.5z"/>
	<path class="st1" d="M111.3,85.3h1.3v6.9c0.7-1.1,1.9-1.9,3.5-1.9c2.1,0,3.8,1.2,3.8,3.3v7.1h-1.3v-6.8c0-1.5-1.1-2.3-2.7-2.3
		c-1.9,0-3.2,1.6-3.3,2.9v6.3h-1.3V85.3L111.3,85.3z"/>
	<path class="st1" d="M128.9,88.2h-1.7v-1.7h1.7V88.2L128.9,88.2z M127.4,90.5h1.3v10.2h-1.3V90.5L127.4,90.5z"/>
	<path class="st1" d="M133.1,92.3c0.7-1.1,1.9-1.9,3.5-1.9c2.1,0,3.8,1.2,3.8,3.3v7.1h-1.3v-6.8c0-1.5-1.1-2.3-2.7-2.3
		c-1.9,0-3.2,1.6-3.3,2.9v6.3h-1.3v-7.8l-0.1-2.4h1.2L133.1,92.3L133.1,92.3z"/>
	<path class="st1" d="M149.4,88.2h-1.7v-1.7h1.7V88.2L149.4,88.2z M147.9,90.5h1.3v10.2h-1.3V90.5L147.9,90.5z"/>
	<path class="st1" d="M153.6,92.3c0.7-1.1,1.9-1.9,3.5-1.9c2.1,0,3.8,1.2,3.8,3.3v7.1h-1.3v-6.8c0-1.5-1.1-2.3-2.7-2.3
		c-1.9,0-3.2,1.6-3.3,2.9v6.3h-1.3v-7.8l-0.1-2.4h1.2L153.6,92.3L153.6,92.3z"/>
	<path class="st1" d="M162.3,90.5h2v-1.4c0-2.1,0.5-4,3.5-4c0.4,0,0.8,0.1,1.1,0.2l-0.2,1.2c-0.2-0.1-0.5-0.2-0.9-0.2
		c-1.5,0-2.2,0.5-2.2,2.8v1.4h2.9v1.2h-2.9v9h-1.3v-9h-2V90.5L162.3,90.5z"/>
	<path class="st1" d="M169.8,95.6c0-3.5,1.8-5.3,4.6-5.3c2.8,0,4.6,1.8,4.6,5.3c0,3.5-1.8,5.3-4.6,5.3
		C171.6,100.9,169.8,99.2,169.8,95.6L169.8,95.6z M171.1,95.6c0,2.9,1.3,4.1,3.3,4.1c2,0,3.3-1.2,3.3-4.1c0-2.9-1.3-4.1-3.3-4.1
		C172.4,91.5,171.1,92.8,171.1,95.6L171.1,95.6z"/>
	<path class="st1" d="M187,91.8c-0.2-0.1-0.5-0.2-1-0.2c-2.1,0-3.3,1.6-3.4,2.9v6.2h-1.3v-7.8l-0.1-2.4h1.2l0.2,1.8
		c0.6-1.1,1.9-2,3.4-2c0.4,0,0.9,0.1,1.1,0.2L187,91.8L187,91.8z"/>
	<path class="st1" d="M190.2,92.2c0.6-1.1,1.7-1.9,3-1.9c1.6,0,2.8,0.7,3.2,2.1c0.7-1.5,2-2.1,3.2-2.1c2.1,0,3.4,1.2,3.4,3.3v7.1
		h-1.3v-6.8c0-1.6-0.8-2.4-2.3-2.4c-1.6,0-2.8,1.6-2.9,2.9v6.3h-1.3v-6.8c0-1.6-0.7-2.4-2.3-2.4c-1.7,0-2.8,1.6-2.9,2.9v6.3h-1.3
		v-7.8l-0.1-2.4h1.2L190.2,92.2L190.2,92.2z"/>
	<path class="st1" d="M209.1,94.9l3.5-0.5v-0.5c0-1.8-1.1-2.3-3-2.4c-1.7,0-2.4,0.7-2.7,2l-1.3-0.2c0.4-1.8,1.3-3,4-3
		c2.6,0,4.2,1.2,4.2,3.6v4.4l0.1,2.4h-1.1l-0.2-1.8c-0.6,1.2-2.2,1.9-3.8,1.9c-2.4,0-3.6-1.1-3.6-2.9
		C205.2,95.9,206.8,95.2,209.1,94.9L209.1,94.9z M208.8,99.8c2.2,0,3.8-1.6,3.8-2.9v-1.3l-3.5,0.6c-1.4,0.2-2.6,0.6-2.6,2
		C206.5,99.2,207.3,99.8,208.8,99.8L208.8,99.8z"/>
	<path class="st1" d="M215.7,90.5h1.8v-2.6l1.3-0.4v3h3.1v1.2h-3.1v5.2c0,2.3,0.7,2.8,2.2,2.8c0.5,0,0.8-0.1,0.9-0.2l0.2,1.2
		c-0.3,0.1-0.7,0.2-1.1,0.2c-3,0-3.5-1.9-3.5-4v-5.2h-1.8V90.5L215.7,90.5z"/>
	<path class="st1" d="M226,88.2h-1.7v-1.7h1.7V88.2L226,88.2z M224.6,90.5h1.3v10.2h-1.3V90.5L224.6,90.5z"/>
	<path class="st1" d="M228.6,95.6c0-3.5,1.8-5.3,4.6-5.3c2.8,0,4.6,1.8,4.6,5.3c0,3.5-1.8,5.3-4.6,5.3
		C230.4,100.9,228.6,99.2,228.6,95.6L228.6,95.6z M229.9,95.6c0,2.9,1.3,4.1,3.3,4.1c2,0,3.3-1.2,3.3-4.1c0-2.9-1.3-4.1-3.3-4.1
		C231.2,91.5,229.9,92.8,229.9,95.6L229.9,95.6z"/>
	<path class="st1" d="M241.4,92.3c0.7-1.1,1.9-1.9,3.5-1.9c2.1,0,3.8,1.2,3.8,3.3v7.1h-1.3v-6.8c0-1.5-1.1-2.3-2.7-2.3
		c-1.9,0-3.2,1.6-3.3,2.9v6.3h-1.3v-7.8l-0.1-2.4h1.2L241.4,92.3L241.4,92.3z"/>
	<polygon class="st1" points="253.3,100.7 251.7,100.7 251.7,99.1 253.3,99.1 253.3,100.7 	"/>
</g>
</svg>
