<?xml version="1.0" encoding="utf-8"?>
<!-- Generator: Adobe Illustrator 21.1.0, SVG Export Plug-In . SVG Version: 6.00 Build 0)  -->
<svg version="1.1" id="Layer_1" xmlns="http://www.w3.org/2000/svg" xmlns:xlink="http://www.w3.org/1999/xlink" x="0px" y="0px"
	 viewBox="0 0 291 125" style="enable-background:new 0 0 291 125;" xml:space="preserve">
<style type="text/css">
	.st0{fill:#B0181E;}
</style>
<path class="st0" d="M109.8,51.5c0-1.8,1.5-3.3,3.3-3.3h14.3c2.2,0,4.3,1.3,5.1,3.5c1.1,2.8-0.3,6-3.2,7.1l-11.1,4.1
	c-4,1.4-6.2,5.8-4.8,9.8c0.7,2.1,2.3,3.7,4.2,4.5l20.8,9.4v-7.2l-18.2-8c-0.3-0.1-0.6-0.4-0.7-0.8c-0.2-0.7,0.1-1.4,0.8-1.7l11.4-4
	c6.2-2.4,9.4-9.4,7-15.7c-1.8-4.8-6.4-7.8-11.3-7.8h-14.3c-5.5,0-9.9,4.4-9.9,9.9v34.2h6.6V51.5z"/>
<rect x="146.2" y="41.6" class="st0" width="6.6" height="44.1"/>
<path class="st0" d="M55,41.6L43.2,78.2c-0.2,0.5-0.6,0.8-1,0.8c-0.5,0-0.9-0.3-1-0.8L29.3,41.6h-6.9l12.5,38.7
	c1.1,3.2,4.1,5.3,7.3,5.3c3.3,0,6.3-2.1,7.3-5.3L62,41.6H55z"/>
<path class="st0" d="M192.6,85.6l11.8-36.7c0.2-0.5,0.6-0.8,1-0.8c0.5,0,0.9,0.3,1,0.8l11.8,36.7h6.9l-12.5-38.7
	c-1.1-3.2-4.1-5.3-7.3-5.3c-3.3,0-6.3,2.1-7.3,5.3l-12.5,38.7H192.6z"/>
<path class="st0" d="M75.5,48.2h20.9v-6.6H75.5c-6.1,0-11,4.9-11,11v22c0,6.1,4.9,11,11,11h20.9V79H75.5c-2.4,0-4.4-2-4.4-4.4v-7.8
	H92v-6.5H71.1v-7.8C71.1,50.1,73.1,48.2,75.5,48.2"/>
<polygon class="st0" points="190.5,41.6 158.4,41.6 158.4,48.2 171.1,48.2 171.1,85.6 177.7,85.6 177.7,48.2 190.5,48.2 "/>
<path class="st0" d="M249.8,85.6c7,0,12.7-5.7,12.7-12.7c0-7-5.7-12.7-12.7-12.7h-11c-3.3,0-6.1-2.7-6.1-6.1c0-3.3,2.7-6.1,6.1-6.1
	h21.5v-6.6h-21.5c-7,0-12.7,5.7-12.7,12.7c0,7,5.7,12.7,12.7,12.7h11c3.3,0,6.1,2.7,6.1,6.1c0,3.3-2.7,6.1-6.1,6.1h-21.5v6.6H249.8z
	"/>
<path class="st0" d="M264,41.6h-0.6v-2.7h-1v-0.5h2.5v0.5h-1V41.6z M267.1,40.8l0.2-0.6l0.7-1.9h0.7v3.2h-0.6V40l0-0.6l-0.2,0.5
	l-0.6,1.7h-0.5l-0.6-1.7l-0.2-0.5l0,0.6v1.6h-0.6v-3.2h0.7l0.7,1.9L267.1,40.8z"/>
</svg>
