<?xml version="1.0" encoding="utf-8"?>
<!-- Generator: Adobe Illustrator 21.1.0, SVG Export Plug-In . SVG Version: 6.00 Build 0)  -->
<svg version="1.1" id="Layer_1" xmlns="http://www.w3.org/2000/svg" xmlns:xlink="http://www.w3.org/1999/xlink" x="0px" y="0px"
	 viewBox="0 0 291 125" style="enable-background:new 0 0 291 125;" xml:space="preserve">
<style type="text/css">
	.st0{fill:#706F73;}
</style>
<path class="st0" d="M264.9,47L264.9,47c0-1.1-0.9-2.1-2.1-2.1c-1.1,0-2,0.9-2,2.1v0c0,1.1,0.9,2.1,2,2.1
	C264,49,264.9,48.1,264.9,47 M260.3,47L260.3,47c0-1.4,1.1-2.6,2.5-2.6c1.4,0,2.5,1.2,2.5,2.5v0c0,1.4-1.1,2.6-2.5,2.6
	C261.4,49.5,260.3,48.4,260.3,47z"/>
<path class="st0" d="M263,46.9c0.3,0,0.4-0.1,0.4-0.3v0c0-0.2-0.2-0.3-0.4-0.3h-0.5v0.7H263z M261.9,46c0-0.1,0.1-0.3,0.3-0.3h0.8
	c0.3,0,0.6,0.1,0.7,0.3c0.1,0.1,0.2,0.3,0.2,0.6v0c0,0.4-0.2,0.6-0.5,0.7l0.4,0.5c0.1,0.1,0.1,0.1,0.1,0.2c0,0.1-0.1,0.2-0.3,0.2
	c-0.1,0-0.2-0.1-0.3-0.1l-0.5-0.7h-0.4v0.5c0,0.2-0.1,0.3-0.3,0.3c-0.2,0-0.3-0.1-0.3-0.3V46z"/>
<path class="st0" d="M131.5,77.8l-10.6-29.5c-0.1-0.4-0.3-0.9-0.3-1.4c0-1.3,1.1-2.5,2.6-2.5c1.3,0,2.2,0.9,2.6,2.2l8.8,25.4
	l8.8-25.5c0.4-1.2,1.2-2.1,2.6-2.1h0.3c1.4,0,2.3,0.9,2.7,2.1l8.8,25.5l8.9-25.6c0.3-1.1,1.1-2,2.5-2c1.5,0,2.6,1.1,2.6,2.4
	c0,0.5-0.2,1-0.3,1.4l-10.7,29.6c-0.5,1.5-1.6,2.4-2.8,2.4h-0.2c-1.4,0-2.4-0.8-2.8-2.4l-8.7-25.1l-8.8,25.1
	c-0.5,1.5-1.5,2.4-2.8,2.4h-0.1C133.1,80.1,132,79.3,131.5,77.8"/>
<path class="st0" d="M208.7,46.9c0-1.4,1.1-2.6,2.6-2.6c1.5,0,2.6,1.2,2.6,2.6v6c2.6-5.8,8.2-8.6,12-8.6c1.5,0,2.6,1.1,2.6,2.6
	c0,1.4-0.9,2.4-2.3,2.6c-6.8,0.8-12.3,5.9-12.3,16v11.8c0,1.4-1.1,2.6-2.6,2.6c-1.5,0-2.6-1.2-2.6-2.6V46.9z"/>
<path class="st0" d="M255.3,60.4c-0.5-6.3-4.1-11.8-10.9-11.8c-6,0-10.5,5-11.1,11.8H255.3z M245.2,80.4c-9.4,0-17.1-7.3-17.1-18
	v-0.1c0-10,7-18,16.4-18c10.1,0,15.9,8.4,15.9,17.5c0,1.4-1.1,2.4-2.4,2.4h-24.8c0.7,7.5,6,11.7,12.1,11.7c4.2,0,7.3-1.7,9.9-4
	c0.4-0.3,0.9-0.6,1.5-0.6c1.3,0,2.2,1,2.2,2.2c0,0.6-0.3,1.2-0.8,1.7C254.8,78.3,251,80.4,245.2,80.4z"/>
<path class="st0" d="M197.5,66.9v-3.4c-2.6-0.7-6-1.5-10.2-1.5c-6.5,0-10.2,2.8-10.2,7.2v0.1c0,4.4,4,6.9,8.8,6.9
	C192.2,76.3,197.5,72.4,197.5,66.9 M171.8,69.6v-0.1c0-7.3,6.1-11.3,14.9-11.3c4.5,0,7.6,0.6,10.7,1.5v-1.2c0-6.3-3.8-9.5-10.4-9.5
	c-3.5,0-5.6,0.4-8.1,1.6c-0.3,0.1-0.7,0.2-0.9,0.2c-1.2,0-2.3-1-2.3-2.2c0-1.1,0.5-1.7,1.4-2.1c3.4-1.5,6-2,10.5-2
	c4.9,0,8.7,1.3,11.3,3.8c2.4,2.4,3.6,5.7,3.6,10.2v19.2c0,1.5-1.1,2.6-2.5,2.6c-1.5,0-2.5-1.1-2.5-2.4v-3.3c-2.4,3.2-6.5,6-12.6,6
	C178.3,80.4,171.8,76.7,171.8,69.6z"/>
<path class="st0" d="M37.1,46.6c-1.1-2.5-4-3.6-6.6-2.5c-2.6,1.2-3.6,4.1-2.4,6.6l11.1,24c1.7,3.8,3.6,5.7,7,5.7
	c3.7,0,5.3-2.2,7-5.7c0,0,9.6-21,9.7-21.2c0.1-0.2,0.4-0.9,1.4-0.9c0.8,0,1.5,0.7,1.5,1.6v20.5c0,3.2,1.8,5.8,5.1,5.8
	c3.4,0,5.2-2.6,5.2-5.8V57.9c0-3.2,2.3-5.3,5.5-5.3c3.2,0,5.3,2.2,5.3,5.3v16.8c0,3.2,1.8,5.8,5.1,5.8c3.4,0,5.2-2.6,5.2-5.8V57.9
	c0-3.2,2.3-5.3,5.5-5.3c3.2,0,5.3,2.2,5.3,5.3v16.8c0,3.2,1.8,5.8,5.1,5.8c3.4,0,5.2-2.6,5.2-5.8V55.6c0-7-5.7-12-12.5-12
	c-6.8,0-11,4.7-11,4.7c-2.3-2.9-5.4-4.7-10.7-4.7c-5.6,0-10.4,4.7-10.4,4.7c-2.3-2.9-6.1-4.7-9.3-4.7c-4.9,0-8.9,2.2-11.2,7.6
	l-7.1,16.6L37.1,46.6z"/>
</svg>
