<?xml version="1.0" encoding="utf-8"?>
<!-- Generator: Adobe Illustrator 21.1.0, SVG Export Plug-In . SVG Version: 6.00 Build 0)  -->
<svg version="1.1" id="Layer_1" xmlns="http://www.w3.org/2000/svg" xmlns:xlink="http://www.w3.org/1999/xlink" x="0px" y="0px"
	 viewBox="0 0 291 125" style="enable-background:new 0 0 291 125;" xml:space="preserve">
<style type="text/css">
	.st0{fill:#231F20;}
	.st1{fill:#E2231A;}
</style>
<polygon class="st0" points="10.4,76 10.4,46.2 43.2,46.2 43.2,52.9 17.6,52.9 17.6,57.9 39.6,57.9 39.6,64.3 17.6,64.3 17.6,76 "/>
<path class="st0" d="M120.2,76V65.8c0-0.9-0.8-1.3-0.8-1.3c-0.3-0.2-1.4-0.3-2.9-0.3h0.4h-15.3V76h-7.3V46.2H117
	c3.9,0,6.6,0.6,8.5,2.4c1.8,1.9,2.1,4.3,2.1,6.8v2.1c0,2.2-1.1,4.1-2.5,5.3l0.3,0.1c0.6,0.3,0.9,0.6,0.9,0.6c1,1.3,1,2.4,1,3.8V76
	H120.2z M116.3,57.9c1.8,0,2.8,0,3.3-0.3c0,0,0.7-0.4,0.8-1.3l0-1.9c0-0.9-0.8-1.3-0.8-1.3c-0.6-0.3-1.5-0.3-3.8-0.3h-14.2v5.1h15
	H116.3z"/>
<path class="st0" d="M138.2,76V52.9h-6.9v-6.6h27.3v6.6l-13.2,0V76H138.2z M140.1,51v-1V51z"/>
<path class="st0" d="M253,76V52.9h-6.9v-6.6h27.3v6.6l-13.1,0V76H253z M254.9,51v-1V51z"/>
<rect x="162.2" y="46.2" class="st0" width="7.3" height="29.8"/>
<polygon class="st0" points="213.3,76 213.3,46.2 242.6,46.2 242.6,52.9 220.6,52.9 220.6,57.9 235.9,57.9 235.9,64.3 220.6,64.3 
	220.6,69.4 242.7,69.4 242.7,76 "/>
<path class="st0" d="M182.2,76h-7.3V46.2l23.5,0c0,0,4.3-0.2,7,2.5c0,0,2.8,2.3,2.8,8V76H201V56.3c0,0,0.1-2-0.6-2.7
	c0,0-0.6-0.8-1.8-0.8h-16.4L182.2,76z"/>
<path class="st0" d="M271.8,69.2c-1.8,0-3.2,1.4-3.2,3.2c0,1.8,1.4,3.2,3.2,3.2c1.8,0,3.2-1.4,3.2-3.2
	C275,70.6,273.5,69.2,271.8,69.2 M270.4,70.3h1.8c0.6,0,1.2,0.1,1.3,1c0,0.5-0.1,0.7-0.5,1c0.4,0.3,0.4,0.3,0.5,1
	c0,0.5,0,0.6,0.2,0.9H273l-0.1-0.5c-0.1-0.5,0.1-1.2-0.7-1.2h-1.3v1.7h-0.5V70.3z M275.4,72.7v-0.6c-0.2-1.8-1.7-3.3-3.6-3.3
	c-2,0-3.6,1.6-3.6,3.6c0,2,1.6,3.6,3.6,3.6C273.7,75.9,275.2,74.5,275.4,72.7z M270.9,70.7v1.4h1.3c0.3,0,0.7-0.1,0.7-0.6
	c0.1-0.7-0.4-0.8-0.7-0.8H270.9z"/>
<rect x="46.4" y="57.1" class="st1" width="12.1" height="7.9"/>
<rect x="61.8" y="45.9" class="st1" width="11.8" height="7.9"/>
<rect x="61.8" y="68.4" class="st1" width="11.8" height="7.9"/>
<rect x="76.9" y="57.1" class="st1" width="12.1" height="7.9"/>
<path class="st1" d="M51.4,45.9c-2.5,0.7-4.5,3.5-5,7v0.9h12.1v-7.9H51.4z"/>
<path class="st1" d="M46.4,68.4v1c0.4,3.4,2.3,6.1,4.6,6.9h7.4v-7.9H46.4z"/>
<path class="st1" d="M89,53.8v-0.9c-0.5-3.6-2.4-6.4-5-7h-7.1v7.9H89z"/>
<path class="st1" d="M84.4,76.3c2.4-0.8,4.2-3.5,4.6-6.9v-1H76.9v7.9H84.4z"/>
</svg>
