<?xml version="1.0" encoding="utf-8"?>
<!-- Generator: Adobe Illustrator 21.1.0, SVG Export Plug-In . SVG Version: 6.00 Build 0)  -->
<svg version="1.1" id="Layer_1" xmlns="http://www.w3.org/2000/svg" xmlns:xlink="http://www.w3.org/1999/xlink" x="0px" y="0px"
	 viewBox="0 0 300 180" style="enable-background:new 0 0 300 180;" xml:space="preserve">
<style type="text/css">
	.st0{fill-rule:evenodd;clip-rule:evenodd;fill:#00B38C;}
	.st1{fill-rule:evenodd;clip-rule:evenodd;fill:#231F20;}
</style>
<path class="st0" d="M109.7,62H15.9V35h93.8V62z M22,55.8h81.5V41.2H22V55.8z"/>
<polygon class="st1" points="38.6,79 38.6,104.9 33.2,104.9 33.2,94 21.4,94 21.4,104.9 16,104.9 16,79 21.4,79 21.4,89.3 
	33.2,89.3 33.2,79 "/>
<path class="st1" d="M47.2,96.7c0.4,3.1,2.7,4.3,5.4,4.3c2.1,0,3.5-0.5,5.4-1.6v4.3c-1.6,1.1-3.7,1.6-6.2,1.6
	c-5.7,0-9.7-3.7-9.7-9.7c0-5.9,3.7-10,8.9-10c5.5,0,8.3,3.8,8.3,9.4v1.7H47.2z M47.3,93.3h7.1c-0.1-2-1.3-3.5-3.3-3.5
	C49.4,89.8,47.9,90.9,47.3,93.3z"/>
<polygon class="st1" points="79.7,98.1 83.1,86.1 88.1,86.1 82.4,104.9 77.6,104.9 74.5,93.4 71.4,104.9 66.6,104.9 60.9,86.1 
	66.1,86.1 69.5,98.1 72.6,86.1 76.6,86.1 "/>
<path class="st1" d="M107.2,96.7c0.4,3.1,2.7,4.3,5.4,4.3c2.1,0,3.5-0.5,5.4-1.6v4.3c-1.6,1.1-3.7,1.6-6.2,1.6
	c-5.7,0-9.7-3.7-9.7-9.7c0-5.9,3.7-10,8.9-10c5.5,0,8.3,3.8,8.3,9.4v1.7H107.2z M107.3,93.3h7.1c-0.1-2-1.3-3.5-3.3-3.5
	C109.4,89.8,107.9,90.9,107.3,93.3z"/>
<path class="st1" d="M161.9,95.9v9h-5.4V79h10.6c5.5,0,9.1,3,9.1,8.5c0,5.5-3.6,8.4-9.1,8.4H161.9z M166.7,83.6h-4.9v7.7h4.9
	c2.8,0,4.1-1.6,4.1-3.8C170.9,85.2,169.5,83.6,166.7,83.6z"/>
<path class="st1" d="M189,93.1c0-1.8-1.6-3-4.2-3c-1.9,0-3.7,0.5-5.2,1.5v-4.5c1.4-0.8,3.8-1.6,6.3-1.6c5.2,0,8.1,2.7,8.1,7.3v12h-5
	v-1c-0.6,0.6-2.5,1.4-4.6,1.4c-3.8,0-7-2.2-7-6.1c0-3.6,3.2-6,7.3-6c1.6,0,3.5,0.5,4.2,1.1V93.1z M189,98.4c-0.5-1-1.9-1.6-3.3-1.6
	c-1.6,0-3.3,0.7-3.3,2.3c0,1.6,1.7,2.3,3.3,2.3c1.5,0,2.9-0.6,3.3-1.6V98.4z"/>
<path class="st1" d="M207.4,85.6c1.9,0,3.8,0.4,5.1,1.5v4.8c-1.3-1.1-2.8-1.7-4.5-1.7c-2.8,0-5,1.9-5,5.3c0,3.3,2.2,5.3,5,5.3
	c1.7,0,3.2-0.6,4.5-1.7v4.7c-1.4,1.1-3.2,1.5-5.1,1.5c-5.4,0-9.5-3.8-9.5-9.8C197.9,89.4,202,85.6,207.4,85.6"/>
<polygon class="st1" points="234.9,104.9 228.8,104.9 222,96.2 222,104.9 216.8,104.9 216.8,77.5 222,77.5 222,93.5 228.5,86.1 
	234.8,86.1 226.9,94.7 "/>
<path class="st1" d="M247.2,93.1c0-1.8-1.6-3-4.2-3c-1.9,0-3.7,0.5-5.2,1.5v-4.5c1.4-0.8,3.8-1.6,6.3-1.6c5.2,0,8.1,2.7,8.1,7.3
	l0,12h-5v-1c-0.6,0.6-2.5,1.4-4.6,1.4c-3.8,0-7-2.2-7-6.1c0-3.6,3.2-6,7.3-6c1.6,0,3.5,0.5,4.2,1.1V93.1z M247.2,98.4
	c-0.5-1-1.9-1.6-3.3-1.6c-1.6,0-3.3,0.7-3.3,2.3c0,1.6,1.7,2.3,3.3,2.3c1.5,0,2.9-0.6,3.3-1.6V98.4z"/>
<path class="st1" d="M268.7,91.2c-0.7-0.4-1.6-0.6-2.6-0.6c-1.8,0-3.2,0.9-3.6,2.7v11.7h-5.2V86.1h5.2v1.9c0.8-1.4,2.4-2.3,4.2-2.3
	c0.9,0,1.7,0.2,2,0.3V91.2z"/>
<path class="st1" d="M283.7,103.4c-0.8,1-2.7,2-4.7,2c-5.5,0-8.6-4.4-8.6-9.8c0-5.4,3.1-9.9,8.6-9.9c2,0,3.9,1,4.7,2V77.5h5.3v27.4
	h-5.3V103.4z M283.7,92.4c-0.6-1.3-2-2.2-3.5-2.2c-2.8,0-4.5,2.3-4.5,5.3c0,3,1.7,5.3,4.5,5.3c1.6,0,3-0.9,3.5-2.2V92.4z"/>
<path class="st1" d="M99.3,101.7c-1.6,0-2.5-0.9-2.6-2.5h0.1v-20h-5.2v18.7v1.3v0.3c0,4.3,2.7,6.7,6.7,6.7c1.2,0,2.2-0.2,2.9-0.5
	v-4.4C100.6,101.6,100,101.7,99.3,101.7"/>
<path class="st1" d="M142.5,91.1h4.8v-4.3h-4.8v-7.7h-5.2v7.7h-7.6v-7.7h-5.2v7.7H121v4.3h3.4v6.8v1.3v0.3c0,4.3,2.7,6.7,6.7,6.7
	c1.2,0,2.2-0.2,2.9-0.5v-4.4c-0.5,0.4-1.2,0.5-1.9,0.5c-1.6,0-2.5-0.9-2.6-2.5h0.1v-8h7.6v6.8v1.3v0.3c0,4.3,2.7,6.7,6.7,6.7
	c1.2,0,2.2-0.2,2.9-0.5v-4.4c-0.5,0.4-1.2,0.5-1.9,0.5c-1.6,0-2.5-0.9-2.6-2.5h0.1V91.1z"/>
<polygon class="st1" points="32.9,115.2 32.9,118.2 19.6,118.2 19.6,126.4 31.7,126.4 31.7,129.4 19.6,129.4 19.6,138.3 32.9,138.3 
	32.9,141.3 16.3,141.3 16.3,115.2 "/>
<path class="st1" d="M38,122.4h3.2v2.4c1.1-1.5,3.1-2.8,5.6-2.8c4.3,0,6.6,2.8,6.6,6.9v12.4h-3.2v-11.9c0-2.6-1.3-4.5-4.2-4.5
	c-2.2,0-4.1,1.5-4.8,3.5v12.8H38V122.4z"/>
<path class="st1" d="M73.8,132.4c0.1,4.4,2.9,6.5,6.3,6.5c2.1,0,3.7-0.5,5.4-1.8v2.9c-1.5,1.2-3.5,1.7-5.7,1.7
	c-5.4,0-9.1-3.7-9.1-9.7c0-5.9,3.4-10,8.4-10c5.1,0,7.7,3.7,7.7,9.2v1.1H73.8z M73.9,129.9h9.7c-0.1-2.8-1.5-5.1-4.6-5.1
	C76.6,124.8,74.5,126.4,73.9,129.9z"/>
<path class="st1" d="M100.8,125.6c-0.5-0.3-1.3-0.5-2.1-0.5c-2,0-3.7,1.3-4.4,3.5v12.7h-3.2v-18.9h3.2v2.5c0.8-1.6,2.6-2.8,4.7-2.8
	c0.8,0,1.5,0.1,1.8,0.3V125.6z"/>
<path class="st1" d="M107.3,148.6h-3.2v-26.1h3.2v2.2c1-1.4,3-2.6,5.3-2.6c5.6,0,8.5,4.6,8.5,9.8s-2.9,9.8-8.5,9.8
	c-2.3,0-4.3-1.2-5.3-2.6V148.6z M107.3,135.7c1,2,2.9,3.1,4.8,3.1c3.6,0,5.7-2.9,5.7-6.9c0-4-2.1-6.9-5.7-6.9c-2,0-3.9,1.1-4.8,3.1
	V135.7z"/>
<path class="st1" d="M135.8,125.6c-0.5-0.3-1.3-0.5-2.1-0.5c-2,0-3.7,1.3-4.4,3.5v12.7h-3.2v-18.9h3.2v2.5c0.8-1.6,2.6-2.8,4.7-2.8
	c0.8,0,1.5,0.1,1.8,0.3V125.6z"/>
<path class="st1" d="M141.4,118.8c-1.1,0-2-0.9-2-2c0-1.1,0.9-2,2-2c1.1,0,2.1,0.9,2.1,2C143.4,117.9,142.5,118.8,141.4,118.8
	 M143,141.3h-3.2v-18.9h3.2V141.3z"/>
<path class="st1" d="M147.6,136.4c1.7,1.6,3.9,2.6,6.2,2.6c2.1,0,3.9-0.8,3.9-2.6c0-1.4-1.1-2.2-2.7-2.7l-2.6-0.9
	c-2.8-0.9-4.8-2.3-4.8-5.4c0-3.3,2.9-5.3,6.7-5.3c2.1,0,4.1,0.6,5.6,1.7v3.3c-1.6-1.3-3.3-2.3-5.6-2.3c-2,0-3.6,0.9-3.6,2.5
	c0,1.5,1,2,2.8,2.7l2.9,1c2.8,1,4.4,2.6,4.4,5.3c0,3.5-3.1,5.5-7.1,5.5c-2.5,0-4.8-0.8-6.2-1.9V136.4z"/>
<path class="st1" d="M167.2,132.4c0.1,4.4,2.9,6.5,6.3,6.5c2.1,0,3.7-0.5,5.4-1.8v2.9c-1.5,1.2-3.5,1.7-5.7,1.7
	c-5.4,0-9.1-3.7-9.1-9.7c0-5.9,3.4-10,8.4-10c5.1,0,7.7,3.7,7.7,9.2v1.1H167.2z M167.4,129.9h9.7c-0.1-2.8-1.5-5.1-4.6-5.1
	C170,124.8,168,126.4,167.4,129.9z"/>
<path class="st1" d="M66.5,138.9c-1.9,0-3.1-1.2-3.1-3.4v-1.6h0.1v-8.7h5v-2.7h-5v-4.7h-3.2v4.7h-4.3v2.7h4.3v8.7v1.9
	c0,3.8,2.5,6,5.8,6c1,0,1.7-0.1,2.5-0.4v-2.9C67.9,138.8,67.1,138.9,66.5,138.9"/>
</svg>
