<?xml version="1.0" encoding="utf-8"?>
<!-- Generator: Adobe Illustrator 21.1.0, SVG Export Plug-In . SVG Version: 6.00 Build 0)  -->
<svg version="1.1" id="Layer_1" xmlns="http://www.w3.org/2000/svg" xmlns:xlink="http://www.w3.org/1999/xlink" x="0px" y="0px"
	 viewBox="0 0 291 125" style="enable-background:new 0 0 291 125;" xml:space="preserve">
<style type="text/css">
	.st0{fill:#00A0DC;}
</style>
<path class="st0" d="M135.8,15.2h-0.3h0c-0.6,0-1.2,0-1.8,0l-9.7,26.6h8.4c5,0,7.7,3.9,6,8.6l-11.9,32.8l-10,0l12.8-35.2h-7.5
	l-12.8,35.2h-10l15.1-41.4h0l9.1-24.9C103,22.5,88.4,40.8,88.4,62.5c0,22.3,15.5,41.1,36.3,46l8.8-24.1h0L149,41.8h18.5
	c5,0,7.7,3.9,6,8.6L163,79.2c-0.8,2.2-3.4,4-5.7,4H144l-9.7,26.6c0.5,0,0.9,0,1.4,0c26.1,0,47.3-21.2,47.3-47.3
	C183,36.4,161.9,15.2,135.8,15.2 M164.3,48h-7.5L146.2,77h7.5L164.3,48z"/>
</svg>
