<svg xmlns="http://www.w3.org/2000/svg" width="448" height="512" viewBox="0 0 448 512"><path d="M400 0H48C21.49 0 0 21.49 0 48v414c0 26.51 21.49 48 48 48h352c26.51 0 48-21.49 48-48V48c0-26.51-21.49-48-48-48zM54 48h340a6 6 0 0 1 6 6v113H48V54a6 6 0 0 1 6-6zm340 414H54a6 6 0 0 1-6-6V215h352v241a6 6 0 0 1-6 6zM160 267v40c0 6.627-5.373 12-12 12h-40c-6.627 0-12-5.373-12-12v-40c0-6.627 5.373-12 12-12h40c6.627 0 12 5.373 12 12zm96 0v40c0 6.627-5.373 12-12 12h-40c-6.627 0-12-5.373-12-12v-40c0-6.627 5.373-12 12-12h40c6.627 0 12 5.373 12 12zm96 0v136c0 6.627-5.373 12-12 12h-40c-6.627 0-12-5.373-12-12V267c0-6.627 5.373-12 12-12h40c6.627 0 12 5.373 12 12zm-192 96v40c0 6.627-5.373 12-12 12h-40c-6.627 0-12-5.373-12-12v-40c0-6.627 5.373-12 12-12h40c6.627 0 12 5.373 12 12zm96 0v40c0 6.627-5.373 12-12 12h-40c-6.627 0-12-5.373-12-12v-40c0-6.627 5.373-12 12-12h40c6.627 0 12 5.373 12 12z"/></svg>